<svg xmlns="http://www.w3.org/2000/svg" viewBox="0 0 586.5 154.3">
  <style>
    .st1{fill:#060808}.st3{fill:#f9c33e}.st4{fill:#de384e}.st8{fill:#060708}.st10,.st11{fill:#111110;stroke:#fff;stroke-width:2.500000e-04;stroke-miterlimit:10;stroke-dasharray:.109}.st11{stroke-dasharray:.5}
  </style>
  <path id="_x23_ffffffff" d="M445.8 38.3c.4.1-.1.6-.3.7-.4-.2-.1-.7.3-.7zm65.4 10.8c1.3 1.4 2.4 3.3 2.3 5.3 0 1.9-.9 3.7-2.3 4.9V49.1zM437 56.9c-.3-.4-.1-.7.3-.9.1.4 0 .7-.3.9zm-.9 3.2c-.2 0-.2-.4 0-.4.3-.1.2.3 0 .4zm146.6 30.5c.4.2.3.8-.2.8 0-.3.1-.6.2-.8zM434.9 93c-.5 0-.6-.6-.2-.8.2.2.2.5.2.8zm5.8 18.2h.2l.9 1.8c-.6-.4-1.4-1-1.1-1.8z" style="fill:#fff"/>
  <path d="M498.1.1c.9-.1 1.9-.1 2.8-.1.5 4.8.9 9.5 1.4 14.3-.9.1-1.9.2-2.8.3-.5-4.9-.9-9.7-1.4-14.5zm-7.5 1.2 2.7-.6c1 4.7 2 9.5 2.9 14.2-2.1.5-4.3.8-6.4 1.5-2.6.8-5.2 1.7-7.7 2.7-2.3 1-4.6 2.2-6.8 3.5-2.4-4.2-4.7-8.4-7.1-12.7.8-.4 1.6-.9 2.4-1.4 2 3.6 4.1 7.3 6.1 10.9 1.5-.9 3.1-1.7 4.8-2.2-.5-.3-.9-.5-1.4-.8-.6-1.6-1.2-3.3-1.9-4.9 1.9-.7 3.8-1.5 5.7-2.2.8-.3 1.9-.2 2.4.6s.7 1.8 1.1 2.7c-.9.3-1.7.7-2.6 1-.3-.6-.4-1.5-1-1.9-.8-.3-1.6.3-2.3.5.4 1 .8 2.1 1.2 3.1.6.3 1.1.5 1.7.8 2.8-1.2 5.6-2.3 8.6-2.9-.7-3.8-1.5-7.8-2.4-11.9zm20.1 1.1c1 .1 2.1.2 3.1.3-.1.6-.1 1.2-.2 1.9-1-.1-2.1-.2-3.1-.3.1-.7.1-1.3.2-1.9zm4.3.4c1 .1 2.1.2 3.1.3-.1.6-.1 1.2-.2 1.9-1-.1-2.1-.2-3.1-.3.1-.7.1-1.3.2-1.9zm7 2.9c.2-.6.3-1.2.5-1.8 1 .3 2 .5 3 .8-.1.6-.3 1.2-.5 1.8-1-.2-2-.5-3-.8zm12.8-1c.9.4 1.7.7 2.6 1-1.6 3.9-3.1 7.7-4.7 11.6 1.2.4 2.3.9 3.3 1.6 1.1-1.9 2.2-3.8 3.3-5.6 1.8 1 3.5 2.1 5.3 3.1.5.3 1 .7 1.2 1.2.2.4 0 .9-.2 1.3-.7 1.3-1.5 2.5-2.2 3.8-.2.2 0 .5.2.7-.3.5-.6 1-.9 1.6-1.6-.9-3.2-1.9-4.8-2.8-1.1-.6-2.2-1.4-3.4-1.9-1.7-.8-3.3-1.5-5.1-2.2 1.8-4.4 3.6-8.9 5.4-13.4m4.1 15c-.2.3-.2.8.2 1.1.6.4 1.3.7 1.9 1.2 0-.2-.1-.5 0-.8.6-.9 1.1-1.9 1.7-2.8.2-.3.2-.7 0-.9-.5-.5-1.2-.8-1.8-1.2-.7 1.1-1.4 2.3-2 3.4zm-29.5-12c.2-1.2 1.4-1.9 2.5-1.8 1.9.2 3.8.4 5.7.5-.2 2.1-.4 4.3-.6 6.4 2.4.3 4.7 1 7 1.7.6-2.1 1.1-4.2 1.7-6.3.9.2 1.8.5 2.7.7-.7 2.7-1.4 5.4-2.2 8.1-3.1-.8-6.1-1.7-9.2-2.3-2.7-.3-5.5-.5-8.2-.8.2-2 .3-4.1.6-6.2m2.7 1.2-.3 3.6c.8.1 1.6.1 2.5.2.2-1.6.3-3.1.4-4.7-.6 0-1.3-.2-1.9 0-.5.1-.7.5-.7.9zm45.2 8.1c.4-.4.7-.8 1.1-1.2.5.5 1.1.9 1.6 1.5.3.4-.2.8-.5 1.1l-.6-.6c.1-.2.3-.3.4-.4l-.6-.6c-.2.3-.5.5-.7.8.4.4.9.8 1.3 1.2l-.4.4-2.4-2.1.4-.4c.1 0 .2.1.4.3zm-8.1 8.6c2.5-2.7 4.9-5.4 7.3-8.1.7.6 1.4 1.2 2.1 1.9-2.5 2.8-5 5.6-7.6 8.4-.4.4-1 .7-1.5.5.8.7 1.6 1.4 2.4 2.2 2.8-3.1 5.7-6.2 8.5-9.4.7.6 1.4 1.2 2.1 1.9-3.2 3.6-6.5 7.2-9.7 10.8-2.5-2.2-4.9-4.5-7.4-6.7.4-.5.8-.9 1.2-1.4.4.3.7.8 1.3.9.5-.1.9-.6 1.3-1zm-84.1-6.3c.5-.4 1.2-.9 1.9-.8.5 0 .8.4 1.1.7.9 1.2 1.8 2.3 2.7 3.5.2.2.5.1.7 0 .4.5.7 1 1.1 1.4-2.4 1.8-4.8 3.7-7.2 5.5-.8.6-1.6 1.3-2.3 2.1-1.9 2.1-3.8 4.3-5.7 6.4-1.5-1.3-3-2.7-4.5-4-1.1-.8-1-2.5-.1-3.5 1.2-1.4 2.5-2.8 3.7-4.2 1.6 1.4 3.3 2.9 4.9 4.3.9-1.1 1.9-2.2 3.1-2.9-1.3-1.7-2.7-3.4-4-5.2 1.5-.9 3.1-2.1 4.6-3.3m.2 2.2c-.5.3-1 .8-1.5 1.1.8 1 1.6 2.1 2.4 3.1.2.3.8.4 1.1.1.6-.4 1.2-.9 1.7-1.3-.2-.1-.5 0-.6-.2-.7-.9-1.4-1.9-2.2-2.8-.2-.3-.6-.2-.9 0M456 30c-.4.4-.8.8-1.1 1.4-.2.4 0 .9.3 1.2l2.7 2.4c.5-.6 1.1-1.2 1.6-1.9-1.2-1-2.4-2-3.5-3.1zm-4-3.3c.7-.8 1.4-1.5 2.1-2.3.5.4.9.8 1.4 1.2-.7.8-1.4 1.5-2.1 2.3-.5-.4-.9-.8-1.4-1.2zm102.7 9.5c3.7-3.1 7.5-6.1 11.3-9.1.6.7 1.2 1.4 1.8 2.2-3.7 3.1-7.5 6.1-11.3 9.1-.6-.8-1.2-1.5-1.8-2.2zm-103.5-8.7c.5.4.9.8 1.4 1.2-.7.8-1.4 1.5-2.1 2.3-.5-.4-.9-.8-1.4-1.2.7-.7 1.4-1.5 2.1-2.3zm119.1 5.8c.3.1.7.2 1 .2 0 .4 0 .7.1 1-.3-.1-.6-.1-.9-.2-.2-.3-.1-.7-.2-1zm-3.1 1.2c.6-.3 1.3-.5 1.9-.4-.5.3-1.3.2-1.5.9 0 .6.4 1.2.9 1.6.2.2.4.4.7.3.3-.4.5-.8.7-1.2.4 0 .8-.1 1.2-.1-.1.3-.4.7-.1 1 .3.5 1 .4 1.4.2-.3.5-.8.9-1.1 1.4.2.5.6 1 .9 1.4.4.2.8.2 1.1.5-.3 0-.6 0-.8.1.2.3.3.7.6 1 .3.1.8-.1 1 .3-.2.1-.5.1-.7.2 0 .3.2.5.3.7.2 0 .4-.1.6-.1l.6.3c-.2.1-.5.2-.7.4s.1.5.2.7c.5.7.6 1.6 1.4 2-.1-.6-.4-1.2-.8-1.7.4-.1.9-.3 1.3 0s.5.9.5 1.4c0 .7.3 1.3.6 1.9h-.9c-.2-.4-.4-.8-.7-1 .3.9.8 1.7 1.2 2.5.5-.4 1.2-.7 1.5-1.4.3-.2.8 0 1.2 0-.4.4-.4.9-.4 1.4-.4 0-.9-.2-1.3.2-.6.4-1.2.7-2 .7-.2-.1-.3-.4-.4-.6-.3-.8-.8-1.4-1-2.2-.1-.5.5-.7.8-.9-.4-.1-.9-.1-1.3-.3-.4-.2-.5-.8-.7-1.1-.2-.5-.7-.9-.6-1.4-.6-.1-.7-.8-.8-1.2-.5-.4-.8-1-1-1.6-.4-.4-.8-.9-1-1.4 0-.6.5-1 .8-1.4-.4.1-.8-.1-1.2-.3-.5.3-1.1.6-1.7.3-.7-.3-1.3-.9-1.5-1.6 0-.7.4-1.3.8-1.5zm-103.4 1.8c0-.2.3-.3.4-.1.1.5.2 1.1.5 1.6s0 1.2-.3 1.6c1.6.8 3.1 1.8 4.3 3.2.7.9 1.2 2 1 3.2-.1.8-.7 1.5-1.1 2.2v10.6c3.6.5 7.1 1.3 10.6 2.4.3 0 .4.3.2.5-1.3 1.2-2.5 2.3-3.8 3.5 0 3.3.1 6.6.1 9.9 0 .2 0 .4-.2.6-1.2 1-2.4 2-3.5 3h-11.6c-1.4 0-2.9 0-4.3-.1-1-.8-2-1.7-3.1-2.6-.2-.2-.5-.3-.5-.6V65c-1.1-1.2-2.4-2.3-3.7-3.4-.2-.1-.3-.4-.1-.5 3.5-1.4 7.2-2 11-2.4V48.1c-.5-.6-1-1.3-1.2-2.1-.3-1 .1-2.2.8-3 1.2-1.4 2.8-2.5 4.4-3.5-.4-.5-.6-1.2-.2-1.7.1-.6.2-1 .3-1.5m.1 2.8c.2-.3.4-.6.4-.9-.1-.3-.2-.5-.4-.7-.3.4-.5 1.1 0 1.6m-4.1 3.8c-.6.6-1.1 1.3-1 2.2 0 .9.5 1.7 1.1 2.4 2.7-.4 5.5-.4 8.3-.1.6-.7 1-1.5 1-2.4 0-1-.6-1.8-1.2-2.5-1.1-1.2-2.6-2.1-4-2.9-1.6 1.1-3 2-4.2 3.3m.2 5.1v10.5c2.6-.3 5.3-.3 7.9-.1V48c-2.6-.3-5.2-.3-7.9 0m.1 11c-3.7.3-7.4.9-10.9 2.2 1.2 1.1 2.4 2.1 3.5 3.2 3.8-.7 7.7-1.1 11.6-1.1 3.6 0 7.2.5 10.8 1.1 1.2-1.1 2.3-2.2 3.5-3.2-1.9-.6-3.7-1.1-5.7-1.5-2.1-.4-4.2-.9-6.3-.9-2.2-.1-4.3.1-6.5.2m-7.2 5.9v9.9c3.6-.7 7.3-1.1 11.1-1.2 3.7 0 7.4.4 11 1.1 0-3.3-.1-6.5-.1-9.8-3.7-.6-7.4-1-11.2-1-3.7.1-7.3.5-10.8 1m.3 10.4c1 .8 2 1.7 2.9 2.5 5.2 0 10.3 0 15.4.1 1-.9 2.1-1.8 3.1-2.7-3.8-.7-7.7-1.1-11.6-1-3.3.1-6.6.5-9.8 1.1zm99.9-39c0-.2.4-.4.4-.1.1.5.2 1.1.5 1.5.4.5 0 1.2-.3 1.7 1.4.8 2.8 1.7 3.9 2.9.7.8 1.3 1.7 1.4 2.7 0 1.1-.5 2.1-1.2 2.9v10.6c3.6.5 7.2 1.3 10.7 2.4.3 0 .2.4.1.5-1.3 1.1-2.5 2.3-3.8 3.5 0 3.3.1 6.7.1 10 0 .2-.1.4-.3.5-1.1 1-2.2 1.9-3.3 2.9-.4.1-.9.1-1.4.1h-14.6c-1.1-1-2.2-1.9-3.3-2.9-.2-.2-.2-.4-.2-.7v-9.9c-1.2-1.1-2.3-2.2-3.5-3.2-.2-.2-.4-.3-.3-.6.4-.3.9-.4 1.3-.5 3.1-1.1 6.4-1.6 9.7-1.9V48.1c-.9-.9-1.6-2.2-1.2-3.5.3-1 1.1-1.9 1.9-2.6 1-.9 2.2-1.7 3.4-2.4-.4-.5-.6-1.1-.3-1.7.1-.6.2-1.1.3-1.6m.2 1.2c-.4.5-.5 1.2 0 1.7.1-.3.4-.6.3-.9 0-.4-.2-.6-.3-.8m-3.1 4.4c-.8.7-1.6 1.4-2 2.4-.4 1.2.2 2.4 1 3.2 2.7-.4 5.5-.4 8.3-.1 1-1 1.4-2.5.7-3.7-1.1-1.9-3-3-4.8-4-1.2.7-2.2 1.4-3.2 2.2m-.8 6.1v10.5c2.6-.3 5.3-.3 7.9-.1V48c-2.6-.3-5.3-.3-7.9 0m-1.9 11.2c-3.1.4-6.1.9-9 2 1.2 1.1 2.4 2.1 3.5 3.2 5-.8 10-1.3 15-.9 2.5.2 4.9.5 7.3 1 1.2-1.1 2.4-2.2 3.5-3.3-2-.6-4.1-1.2-6.2-1.6-1.8-.4-3.6-.7-5.4-.8-2.8-.1-5.7.1-8.7.4m-5.3 5.7v9.9c2.5-.5 5-.8 7.5-1 4.9-.4 9.8.1 14.7.9 0-3.3-.1-6.5-.1-9.8-1.9-.3-3.7-.6-5.6-.8-5.5-.5-11.1 0-16.5.8m.4 10.4c.9.8 1.8 1.6 2.7 2.3.1.2.4.2.6.2 5 0 10.1 0 15.1.1 1-.9 2.1-1.8 3.1-2.7-1.9-.3-3.8-.6-5.7-.8-5.3-.5-10.7 0-15.8.9zm-97.7-37.8c.7-.2 1.4.1 2 .6.5.4 1 1 1 1.8 0 .4-.3.7-.5 1-.3.4-.6.7-1 1 .6-1 .9-2.3.3-3.5.2.6-.2 1.4-.8 1.4-.8-.2-1.2-1.1-1.2-1.8-.1-.2 0-.4.2-.5m.9.8c-.3 0-.7.6-.3.7.2-.1.6-.7.3-.7z" class="st1"/>
  <path d="M568.1 38.1c.3.1.6.1.9.2 0 .3 0 .5.1.8.2 0 .4.1.6.2 0 .3.1.6.1 1-.3-.1-.6-.1-.8-.2 0-.3-.1-.6-.1-.8-.2 0-.4-.1-.6-.2-.2-.4-.2-.7-.2-1zm-125.4 4.4c1.2-.1 1.4-1.4 2-2.2.3.4.6.8.9 1.3-.7 1.3-1.5 2.6-2.2 3.9-.2.4-.6.4-1 .4.2.2.3.5.5.7-.2.3-.4.7-.6 1.1.8.6.6 1.8.3 2.6-.2.6-.6 1.3-1.3 1.6-.4.2-.9-.1-1.2-.4-.5-.5-.8-1.2-.8-1.9.4.5.6 1.2 1.2 1.4 1-.3 1.4-1.6 1.4-2.6-.5.2-.7.7-.9 1.1-.3-.3-.5-.7-.6-1.1.4-.9.8-1.8 1.3-2.6-.7-.3-1.4-.6-2-.8-.2-.3-.3-.7-.5-1 .9.3 1.8.7 2.7 1 .5-.2.6-.9.9-1.3-.5-.2-.6-.7-.6-1.2-.1-.5 0-1.2.4-1.6.4-.3.9-.4 1.4-.3-.7.3-1.2 1.1-1.3 1.9zm67.6 6.6v13.5c.2.1.9.4 1 .5v-1.3c.7.5 1.4 1 2.3 1.2 1.9.6 4 0 5.9.7.9.3.7 1.5 1.5 1.9 1 .8 2.3.6 3.4 1 1.2.7 1.9 2 2.6 3.2.1.3.6.2.6-.1 0-1.3 0-2.7.4-3.9.8-2.3 1.7-4.6 2.6-6.8.2-.5.1-1 0-1.5-.1-.6-.4-1.3-1.1-1.5-1.7-.6-3.5-.4-5.2-1-.7-.3-1.3-.9-1.7-1.6-.4-.8-.7-1.7-1.5-2-2.5-1-5.3-.2-7.8-1.3-.7-.3-1.4-.6-2-1.1.2-.3.4-.7.2-1-.2-.3-.4-.7-.6-1.1-.1-.3-.7-.3-.8 0-.1.4-.3.9-.4 1.3.1.4.4.7.6.9zm5 2.1c1.6.2 3.3.1 4.9.5.5.1 1.1.3 1.4.8.4.7.7 1.5 1.2 2.1.7.8 1.7 1.1 2.7 1.3 1.2.3 2.5.3 3.7.6.5.1.7.6.8 1s.2.9 0 1.4c-.7 1.8-1.4 3.5-2.1 5.4-.5 1.4-.9 2.9-.9 4.3-.6-.9-1.2-1.7-2-2.3-1-.6-2.3-.3-3.3-1-.8-.4-.7-1.6-1.5-2-1.7-.8-3.7-.4-5.5-.6-1.2-.2-2.4-.8-3.3-1.7 1.8-1.3 2.8-3.6 2.9-5.8 0-1.8-.8-3.5-1.9-4.9.8.4 1.9.8 2.9.9zm-4.1-1.2c1.3 1.4 2.4 3.3 2.3 5.3 0 1.9-.9 3.7-2.3 4.9V50zm-.5-2.4c.2.2.6.5.3.9-.2.3-.4 0-.5-.2 0-.2.1-.4.2-.7zM509 58c.2-.2.4-.4.4-.6.1-.4-.2-.6-.4-.9.2-.3.3-.6.3-1s-.4-.8-.6-1.1c0-.3-.1-.5-.4-.7-.2.2-.4.4-.4.7-.3.3-.6.7-.6 1.1 0 .4.2.7.3 1-.2.2-.4.4-.4.7s.3.6.4.8c-.5.6-.9 1.3-1 2.1 0 .7.4 1.3.7 1.9.1-.1.2-.1.4-.2.1-.1.3-.1.4-.2l.2-.1s.6.3.9.5c.4-.6.7-1.2.7-1.8 0-.9-.4-1.6-.9-2.2zm67.8-6.3c.9-.6 1.9-1.1 2.8-1.7.5 0 .9.1 1.4.1-.9.6-1.8 1.2-2.8 1.6-.4.2-.9.1-1.4 0zm-142.1 1.4c.1-.2.1-.5.3-.7v.9c-.1 0-.3.1-.4.2-.1-.1-.2-.2-.3-.2.2 0 .3-.1.4-.2z" class="st1"/>
  <path d="M434.4 53.2c-.2-.1-.1-.7.2-.5.1.2 0 .4-.2.5zm.9-.4c1.1.1 2.2.3 3.2.7.5.2.7.6 1 1-.9-.2-1.8-.4-2.7-.5-.8-.1-1.2-.8-1.5-1.2zm141.5 2.4c0-.6.6-1 1.1-.9.6 0 1.3.1 1.7.5-.5.1-1.2-.3-1.5.3-.2.9.3 1.8 1 2.4.4-.3.6-.7.9-1.2.4.1.8.2 1.3.3-.2.4-.5.8-.6 1.2.1.8.4 1.7.6 2.5.3-.2.5-.5.7-.7.3.1.6.2 1 .4-.4.6-1 1.2-1.7 1.2-.4 0-1.2.2-1.3-.3-.2-.9-.5-1.9-.7-2.8-.4 0-.9.1-1.3-.2-.8-.9-1.2-1.8-1.2-2.7zm4.3-.9c.3.2.6.3.9.5-.1.3-.2.7-.3 1-.3-.2-.5-.3-.8-.5 0-.4.1-.7.2-1zm-144.6 1.1c.8-.2 1.7.2 2.4.6.5.4.9 1 .7 1.7-.2.6-.5 1.2-.9 1.7.3-1.1.3-2.5-.7-3.4.4.5.3 1.4-.3 1.6-.9 0-1.6-.8-1.8-1.6 0-.4.4-.5.6-.6m.5 1.5c.3-.2.4-.6.3-.9-.4.2-.6.6-.3.9zm-3.6 1.4c.5.1.8-.3 1.1-.5.2.3.4.5.5.8.3.2.5.4.8.6.6-.1 1.3.1 1.9.3-.2.9-.5 1.8-.7 2.7-.4-.2-.8-.4-1.2-.7.1-.6 0-1.2-.2-1.7-.3.2-.6.5-.9.8 0 0 .1.1.1.2-.3.4-.6.9-.9 1.2-.5.1-.9-.2-1.3-.4.7-1 1.5-1.9 2.6-2.4-.4-.2-.9-.3-1.3-.2-.2-.1-.3-.4-.5-.7m2.7 1.8c.2 0 .2-.4 0-.4-.2-.1-.2.4 0 .4zm142.4-.5c.3.2.6.4.8.5-.1.3-.2.7-.3 1-.3-.2-.5-.4-.8-.6.1-.2.2-.6.3-.9zm-145.4 4.7c.3-.7 1.1-1.2 1.9-1.1.6.1 1.2.3 1.7.6-.2.8-.2 1.6-.5 2.3-.4.2-.9-.1-1.4-.1.2-.7.3-1.4.4-2.1-.6.1-1.2.6-1.3 1.3-.3-.3-.9-.5-.8-.9zm146.9-.7c.6-.3 1.3-.1 1.9.2.3.2.7.4.8.8-.5-.2-1-.6-1.6-.5-.3.1-.4.4-.4.7-.1.8.2 1.5.6 2.2.2-.4.2-1 .1-1.4.4.1.8.2 1.1.5.2.9.4 1.9.4 2.8.7-.1 1.4-.3 2.2-.5.3.2.6.4 1 .6-.8.2-1.6.4-2.3.6-.2.1-.4.1-.6.2 0 .5.1 1 .1 1.5.7-.1 1.2.6 1.5 1.1.5.7 0 1.8-.7 2.1.3-.8.3-1.6-.1-2.4-.9.8-.4 2-.4 2.9-.5-.2-.9-.3-1.4-.5-.2-1.5-.3-3-.5-4.4-.1-.4.2-.7.6-.9-.3-.1-.5-.2-.8-.3 0-.4-.1-.8-.1-1.1-1-.1-1.6-1.2-1.8-2.1-.1-.9-.2-1.7.4-2.1z" class="st1"/>
  <path d="m578.9 64.3.6.6c-.1.2-.1.5-.2.7.1.1.2.3.4.4-.1.3-.1.6-.2.9-.2-.2-.3-.4-.5-.5 0-.3 0-.5.1-.8-.4-.3-.3-.8-.2-1.3zm-116.2 1.8c.8-.5 1.9-.4 2.6.3.4.4.7 1 .7 1.6v3.9c-1.4-.2-2.9-.2-4.3 0v-4.5c.1-.5.5-1 1-1.3zm88.3 1.4c.2-1 1.2-1.9 2.2-1.8 1 0 1.9 1 2.1 1.9v4.3c-1.4-.2-2.9-.2-4.3 0v-4.4zm-95.3 1.1c.1-1 .8-2.2 1.9-2.2 1-.1 1.9.9 1.9 1.9 0 1.4.1 2.7.1 4.1-1.3.2-2.6.3-3.9.5v-4.3zm13.2-1.8c.6-.6 1.8-.6 2.4.1.5.5.8 1.2.8 1.9v4.1c-1.3-.2-2.6-.3-3.9-.5 0-1.4.1-2.7.1-4.1 0-.6.2-1.1.6-1.5zm76.2 1.8c.1-1.1.8-2.3 2-2.2 1 0 1.8 1 1.8 1.9 0 1.4.1 2.7.1 4.1-1.3.2-2.6.3-3.9.5v-4.3zm12.5-.3c0-1 .9-2 1.9-1.9 1.1 0 1.9 1.2 1.9 2.2v4.3c-1.3-.2-2.6-.3-3.9-.5 0-1.4.1-2.8.1-4.1zm-126.3.2c1.1-.1 2.1-.1 3.2 0 .5.1.9.4 1.2.8-1.1 0-2.2.1-3.3 0-.4-.2-.7-.5-1.1-.8zm.8 1.8c.4.2.7.6 1.1.5.7-.1 1.5 0 2.1.4 0 1-.1 2-.2 2.9-.1.6-.8.6-1.2.5.3.3.7.6 1 .9.2.4 0 .8 0 1.3-.1.5.1 1.1-.2 1.6.4.4.2 1 .1 1.5.2.6.2 1.3 0 1.9.2.5.2 1.2.1 1.7-.3.4-.9.5-1.4.7.4.2.7.5.8.9.6 0 1.3.1 1.7.6.5.6.7 1.5.5 2.3-.1.6-.8.8-1.4.8-.6-.1-1.3-.2-1.7-.7.5.1 1 .4 1.5.2.3-.2.4-.6.4-.9 0-.6-.1-1.2-.5-1.7-.5.2-.9.5-1.3.7-.4-.2-.7-.4-1-.5.3-.2.7-.4.6-.8 0-.6-.7-.8-1.1-1 .5-.2 1.1-.3 1.6-.6.2-.5.1-1.1 0-1.7-.2-.3-.6-.6-.7-1 .2.1.5.3.7.4 0-.4.1-.9 0-1.2-.3-.2-.6-.4-.8-.7.3 0 .5.1.8.2.1-.3.1-.5 0-.8-.5 0-.8-.4-.9-.8.2 0 .5.1.8.1.3-.1.2-.5.2-.7h.6-.6c0-.8.3-1.7-.1-2.4-.4.5-.3 1.2-.2 1.8-.4-.1-1-.2-1.2-.7s.1-1 .3-1.5c.3-.6.4-1.3.4-1.9.3.2.6.3.8.5 0 .4-.1.8.2 1.2.2-.9.2-1.8.2-2.7-.5.1-.9.1-1.4.2-.3 0-.5.3-.8.3-.3-.2-.6-.4-.9-.7.6-.2.8-.7 1.1-1.1zm149.3 7c.4-.4.9-.3 1.4-.1.6.3 1.1.8 1.4 1.4-.5-.3-.9-.7-1.4-.8-.4-.1-.6.3-.7.6-.2.8-.2 1.6.1 2.4.4-.4.4-.9.4-1.4.4.2.8.4 1 .8 0 1 0 1.9-.1 2.9.7 0 1.4-.1 2.2 0 .3.2.6.5.9.7-.9 0-1.9.1-2.8.1-.3 0-.3.3-.3.5 0 .4 0 .7-.1 1.1.7 0 1 .8 1.2 1.3.4.8-.2 1.8-1.1 1.9.5-.7.7-1.6.4-2.3-.3.3-.7.7-.7 1.1-.1.6-.1 1.1-.2 1.7-.4-.3-.9-.5-1.3-.8.1-1.5.3-3 .4-4.5 0-.4.4-.6.8-.7-.2-.1-.5-.3-.7-.4 0-.4 0-.8.1-1.2-.9-.3-1.3-1.3-1.3-2.2-.1-.9-.1-1.6.4-2.1z" class="st1"/>
  <path d="m436.1 82.8.6.6c-.1.2-.2.5-.3.8l.4.4-.3.9c-.2-.2-.5-.4-.7-.6.1-.3.2-.5.3-.8-.2-.2-.3-.3-.5-.4.3-.3.4-.6.5-.9zm-4.2 4 .7.7c-.1.3-.2.7-.4 1l-.7-.7c.1-.4.2-.7.4-1zm148.2 3.4c.1-.6.3-1.3.6-1.8-.2 1.2.1 2.5 1.1 3.2-.3-.4-.4-1 0-1.4.2-.3.6-.2.9-.1.6.2 1.1.7 1.3 1.3 0 .4-.4.6-.7.7-.8.2-1.8 0-2.5-.5-.5-.3-.9-.8-.7-1.4m2.6.4c-.2.2-.2.5-.2.8.5 0 .6-.6.2-.8zm-149 1.4c.6-.7 1.7-.8 2.5-.6.6.1 1.3.5 1.4 1.1s.2 1.3 0 1.9c-.2-1.2-1-2.3-2.2-2.7.5.3.9 1 .5 1.5-.7.5-1.8.1-2.3-.5-.3-.2-.1-.5.1-.7m1.2 1c0-.3 0-.6-.2-.8-.3.2-.3.8.2.8zm144.5 1.6c.3-.5 1.1-.5 1.6-.3.6.3 1.1.6 1.4 1.2-.5-.3-.9-.8-1.5-.6-.5.3-.6.9-.7 1.4 0 .3-.1.8.2 1 .5 0 .9-.1 1.4-.2.3.3.5.6.8.8-.3.1-.8.1-.8.5-.3.6.4 1 .7 1.3-.6 0-1.2-.1-1.8.1-.2.4-.3.8-.4 1.2-.2.6.4 1 .3 1.5l-.6-.6c-.2.4-.3.7-.4 1.1.1.4.5.6.5 1-.2-.1-.4-.3-.7-.4-.2.2-.2.5-.3.7.4.2.6.6.6 1-.3-.1-.5-.3-.8-.3-.2.1-.3.4-.4.6-.2.8-.8 1.5-.6 2.4.4-.4.7-1 .8-1.7.4.2.9.6.9 1.1 0 .6-.6 1-.9 1.4-.4.4-.7 1-.9 1.5-.2-.2-.4-.5-.6-.7.2-.4.3-.8.3-1.2-.6.8-.8 1.7-1.2 2.5.7.1 1.4.5 2.1.3.4.2.5.6.7.9-.6-.1-1 .3-1.4.6-.3-.4-.5-.8-1-.9-.7-.1-1.3-.5-1.7-1-.1-.2.1-.4.2-.6.4-.7.6-1.5 1-2.2.3-.4.9-.1 1.3 0-.3-.6-1-1.2-.5-1.9.4-.6.4-1.6 1-2-.3-.5.2-1 .4-1.4 0-.6.2-1.3.6-1.8 0-.6.2-1.2.4-1.7.5-.3 1-.2 1.6-.3-.3-.3-.5-.7-.5-1.1-.6-.2-1.2-.5-1.4-1.1-.2-.6-.1-1.4.3-2.1zm-144.2-.2c.5.2 1.1.1 1.5.4.4 1.4.7 2.9 1.1 4.3.1.4-.2.7-.5 1 .3 0 .6.1.8.2l.3 1.2c1 0 1.7.8 2 1.7.2.6.5 1.4.2 2-.2.5-.9.6-1.4.5-.6-.1-1.2-.3-1.6-.8.6.1 1.2.4 1.8.2.3-.3.2-.8.2-1.2-.2-.6-.4-1.3-.9-1.7-.1.5 0 1 .2 1.4-.4 0-.8-.1-1.2-.4-.3-.9-.6-1.9-.9-2.8-.7.3-1.4.6-2.1.8-.3-.1-.7-.3-1-.4.7-.3 1.5-.6 2.2-.9.2-.1.4-.1.6-.3 0-.5-.3-1-.4-1.5-.7.2-1.3-.4-1.7-.9-.6-.6-.3-1.8.4-2.1-.2.8-.1 1.7.4 2.3.8-.9.2-2 0-3zM583 96.6c.2-.3.4-.5.7-.7.2.3.3.6.5.9-.3.2-.5.5-.8.7-.1-.3-.2-.6-.4-.9z" class="st1"/>
  <path d="M578 97.9c.2-.2.4-.5.7-.7.1.2.3.5.4.7l-.6.6.3.6c-.2.2-.5.4-.7.7-.1-.3-.3-.5-.4-.8l.6-.6c-.1-.1-.2-.3-.3-.5zm-138.3 10.4c.5-.2 1-.1 1.4 0l-2.4 1.5c-.5.4-1.2.1-1.8.1.9-.5 1.8-1.1 2.8-1.6zm-3.2 1.6c.3.2.6.4.8.7-.2 0-.3.1-.4.4-.3 0-1-.3-.5-.6.1.1.3.4.4.5 0-.4-.2-.7-.3-1zm3 1.1c.1-.3.3-.8.7-.7.6.1 1.4 0 2 .4.4.6.7 1.4 1.1 2 .2.4.6.9.4 1.4.2.1.4.2.5.4.4.6.8 1.2 1.1 1.8.2.5-.4.8-.7 1.1.6.1 1.3-.1 1.7.5.5.8 1.1 1.7 1.7 2.5-.9.7-1.8 1.5-2.7 2.2-.4 0-.8-.1-1.2-.1.8-.6 1.6-1.2 2.4-1.9-.4-.6-.8-1.1-1.2-1.8-.2-.4-.6-.8-1-.9.1.6.5 1.2.9 1.7-.4.1-.9.3-1.3.1-.5-.3-.6-.8-.6-1.3-.1-.7-.4-1.3-.8-1.9.3 0 .6-.1.9-.1.2.4.5.7.8 1-.3-.9-1-1.7-1.5-2.6-.1 0-.4.1-.5.2-.2-.1-.5-.2-.8-.3.3-.2 1.1-.2.9-.7-.7-.6-1.6-1-2.3-1.6-.4-.5-.7-1-.5-1.4m1.2.2c-.3.8.6 1.4 1.1 1.9l-.9-1.8c-.1-.1-.2-.1-.2-.1zm133.2 1.4c1 .3 2 .7 3 1 .4.3.6.8.8 1.2-1-.3-2-.6-3-1.1-.3-.1-.6-.6-.8-1.1zm-2.4 2.3c.3-.2.8-.2 1.1 0 .7.5 1 1.4 1 2.3-.4-.4-.4-1.2-1.1-1.4-.4 0-.8.4-1 .7-.4.5-.6 1.1-.8 1.7.5-.2.8-.6 1.1-1 .2.4.5.8.5 1.2-.5.8-1 1.6-1.6 2.4.6.4 1.3.7 1.9 1.1.1.4.2.7.3 1.1-.9-.4-1.7-1-2.6-1.4-.5.2-.7.8-1.1 1.2.5.3.5.9.4 1.3 0 .5-.2 1.1-.6 1.4-.4.3-1 .4-1.4.2.8-.3 1.4-1 1.5-1.8-1.2 0-1.6 1.2-2.2 1.9-.2-.4-.5-.9-.7-1.4.9-1.2 1.8-2.4 2.7-3.7.2-.4.7-.3 1-.2-.1-.2-.3-.5-.4-.7.2-.3.5-.7.7-1-.6-.7-.4-1.7-.1-2.5.5-.5.9-1.1 1.4-1.4zM448.2 122c.2-.1.6-.3.7 0 .7.8 1.3 1.7 2 2.6.3.4.6.9.3 1.3-.4.7-1.3 1-2.1 1 .2-.4.7-.3.9-.7.2-.4-.2-.7-.3-1-.6-.8-1.2-1.5-1.8-2.3-.2.3-.3.6-.4 1h-1c.1-.4.2-.8.4-1.2.3-.4.9-.5 1.3-.7zm2.1.4c.3.1.6.1.9.2.1.3.1.7.1 1-.3-.1-.7-.1-1-.2.1-.3.1-.7 0-1zm112.7 3.3c.6.3 1.1.7 1.6 1.1.4.3.7.8.5 1.2-.1.2-.2.5-.3.7.4-.1.6-.5.7-.9.3.4.7 1.1.2 1.6-.6.4-1.4.2-2.1.4-.2-.3-.4-.7-.6-1 .5-.4 1.1-.9 1.1-1.6-.5-.3-1.2-.8-1.1-1.5zm-110.8 2.4c.4-.4.9-.4 1.4-.4-.6.7-1.2 1.5-1.8 2.2-.4.6-1.1.5-1.7.6.6-.9 1.3-1.7 2.1-2.4zm108 2.7c.5-.8 1.1-1.5 1.8-2.1-.3 1-.9 1.9-.9 3 .5.3 1.1.4 1.7.3l-.1-.3 1.2-.3c.5 0 .8.6 1 1-1.2.5-2.9.8-3.8-.4.1.5.2 1.1.5 1.5.2.3.4.5.6.8v1c-.8-.7-1.5-1.4-2.4-1.9-.4.3-.8.6-1.2 1-.1.4-.1.8-.3 1.2-.1-.3-.1-.5-.2-.8-.3.2-.7.4-.9.8 0 .4.1.7-.1 1.1-.1-.2-.2-.5-.4-.7-.2.1-.3.2-.5.3-.2.2 0 .5.1.7-.1.2-.2.5-.2.7-.2-.2-.3-.7-.6-.7-.6.3-1 .7-1.5 1.1.6.4 1 1.1 1.7 1.3.2.4.1.8.1 1.1-.4-.4-1-.2-1.5-.2-.1-.4 0-.9-.4-1.2-.5-.5-1-1.2-1-1.9.3-.4.7-.6 1.1-.9.4-.2.7-.6 1.2-.6 0-.6.6-.8 1.1-1 .3-.6.8-1 1.4-1.2.3-.5.8-1 1.3-1.3.6-.1 1 .5 1.5.8-.2-.6-.7-1.4-.3-2.2zm-107.4 0c.5-.7 1.1-1.5 2-1.6.6.5 1.2 1.1 1.8 1.7.2.2.4.4.5.7 0 .4-.3.7-.6 1 .5 0 1-.2 1.4-.2.5.2.8.7 1.1 1 .3.3.8.5.8 1 .5 0 .8.3 1 .7.1.3.5.4.7.5.4.2.7.6.9.9.5.2 1 .5 1.4.9.2.5-.2 1.1-.3 1.6.4-.2.8-.2 1.2-.1.4-.5.9-1 1.6-.9.8.1 1.5.5 2 1.1.3.5.1 1.1-.3 1.5-.4.5-1 .9-1.7.9.4-.4 1.1-.6 1.1-1.2-.2-.7-.9-1.1-1.5-1.3-.2-.1-.5-.2-.6.1-.1.4-.2.9-.3 1.3-.4.2-.7.3-1.1.5 0-.3.2-.8-.2-1-.4-.4-1 0-1.4.2.1-.6.6-1.1.5-1.7-.4-.4-.8-.6-1.2-.9-.4-.1-.8.1-1.2-.2.2-.1.5-.2.7-.3-.3-.3-.6-.7-1-.8-.3.1-.6.2-1 .2.1-.2.3-.4.6-.5-.2-.2-.4-.7-.8-.4-.3.2-.7.1-1 .1.2-.2.4-.4.5-.6 0-.3-.3-.5-.5-.7-.6-.5-1.1-1.3-2-1.4.3.6.7 1 1.3 1.3-.4.3-.8.6-1.2.5-.5-.1-.8-.6-.9-1.1-.3-.7-.7-1.2-1.3-1.7l.9-.3c.3.3.6.6 1 .7-.6-.7-1.3-1.3-1.9-2-.4.6-1 1.2-1 1.9-.3.2-.7.2-1.1.3.3-.5.1-1-.1-1.5.6-.1.9-.2 1.2-.2m5.7 3.2c-.3.5.5 0 0 0z" class="st1"/>
  <path d="M464.1 136c.3 0 .6-.1.8-.1.2.2.3.5.4.8.2 0 .4 0 .6-.1.2.3.3.6.4.9-.3 0-.6.1-.9.1-.1-.3-.2-.5-.3-.8-.2 0-.4 0-.6.1-.1-.3-.3-.6-.4-.9zm87.4 2.3c.8.8 1.5 1.5 2.2 2.3.2.4.1 1 .2 1.4-.8-.7-1.6-1.5-2.2-2.4-.3-.3-.3-.8-.2-1.3zm-87.1 3.5c.3 0 .6-.1 1-.1.2.3.3.6.4.9-.3 0-.7.1-1 .1-.1-.2-.3-.5-.4-.9z" class="st1"/>
  <path d="M463.9 39.1c-.5-.5-.4-1.2 0-1.7.1.2.3.5.4.7.1.4-.2.7-.4 1zm89.4-1.6c.1.2.3.5.4.8 0 .3-.2.6-.3.9-.6-.5-.4-1.3-.1-1.7z" style="fill:#ffbd00"/>
  <path d="M459.8 42.9c1.2-1.3 2.7-2.3 4.2-3.2 1.5.8 2.9 1.7 4 2.9.6.7 1.2 1.5 1.2 2.5 0 .9-.5 1.7-1 2.4-2.8-.3-5.6-.3-8.3.1-.6-.7-1.1-1.5-1.1-2.4-.1-.9.4-1.7 1-2.3zm90.4-1c1-.8 2-1.6 3.1-2.2 1.8 1 3.7 2.2 4.8 4 .7 1.2.3 2.8-.7 3.7-2.7-.3-5.5-.3-8.3.1-.8-.8-1.4-2-1-3.2.5-.9 1.3-1.7 2.1-2.4zM460 48c2.6-.3 5.3-.3 7.9 0v10.4c-2.6-.2-5.3-.2-7.9.1V48zm89.4 0c2.6-.3 5.3-.3 7.9 0v10.4c-2.6-.2-5.3-.2-7.9.1V48zm-89.3 11c2.1-.2 4.3-.3 6.5-.2 2.1 0 4.2.5 6.3.9 1.9.4 3.8.9 5.7 1.5-1.2 1.1-2.4 2.1-3.5 3.2-3.6-.7-7.2-1.1-10.8-1.1-3.9 0-7.7.4-11.6 1.1-1.1-1.1-2.3-2.2-3.5-3.2 3.5-1.3 7.2-1.8 10.9-2.2zm87.4.2c2.9-.3 5.9-.6 8.8-.3 1.8.1 3.6.4 5.4.8 2.1.4 4.1 1 6.2 1.6-1.2 1.1-2.4 2.2-3.5 3.3-2.4-.5-4.8-.8-7.3-1-5-.4-10.1.1-15 .9-1.1-1.1-2.3-2.2-3.5-3.2 2.8-1.1 5.9-1.7 8.9-2.1z" class="st3"/>
  <path d="M452.9 64.9c3.6-.6 7.2-.9 10.8-1 3.8 0 7.5.4 11.2 1 .1 3.3.1 6.5.1 9.8-3.6-.6-7.3-1-11-1.1-3.7 0-7.4.4-11.1 1.2-.1-3.3 0-6.6 0-9.9m9.8 1.2c-.5.3-.9.8-1 1.4V72c1.4-.2 2.9-.2 4.3 0v-3.9c0-.6-.3-1.2-.7-1.6-.7-.9-1.9-1-2.6-.4m-7 2.5v4.3c1.3-.2 2.6-.3 3.9-.5 0-1.4-.1-2.7-.1-4.1 0-1-.9-2-1.9-1.9-1.1 0-1.9 1.1-1.9 2.2m13.2-1.8c-.4.4-.7.9-.7 1.5 0 1.4-.1 2.7-.1 4.1 1.3.2 2.6.3 3.9.5v-4.1c0-.7-.3-1.4-.8-1.9-.5-.7-1.6-.7-2.3-.1zm73.3-1.9c5.4-.9 10.9-1.3 16.4-.7 1.9.2 3.7.4 5.6.8 0 3.3.1 6.5.1 9.8-4.8-.8-9.8-1.3-14.7-.9-2.5.2-5 .5-7.5 1 .1-3.4.1-6.7.1-10m8.8 2.6v4.4c1.4-.2 2.9-.2 4.3 0v-4.3c-.2-1-1-1.9-2.1-1.9-1 0-2 .8-2.2 1.8m-5.9 1.1v4.3c1.3-.2 2.6-.3 3.9-.5 0-1.4-.1-2.7-.1-4.1 0-1-.8-2-1.8-1.9-1.2-.1-2 1.1-2 2.2m12.5-.3c0 1.4-.1 2.7-.1 4.1 1.3.2 2.6.3 3.9.5v-4.3c0-1-.8-2.2-1.9-2.2-1-.2-1.8.9-1.9 1.9z" class="st3"/>
  <path d="M453.2 75.3c3.3-.6 6.5-1 9.8-1.1 3.9-.1 7.8.3 11.6 1-1 .9-2.1 1.8-3.1 2.7-5.2 0-10.3 0-15.4-.1-1-.8-2-1.7-2.9-2.5zm89.4 0c5.2-.9 10.5-1.4 15.8-.8 1.9.2 3.8.4 5.7.8-1 .9-2.1 1.8-3.1 2.7-5 0-10.1 0-15.1-.1-.2 0-.4 0-.6-.2-.9-.8-1.9-1.6-2.7-2.4z" class="st3"/>
  <path id="_x23_ff0207ff" d="M510.7 47.6c.2.2.6.5.3.9-.2.3-.4 0-.5-.2 0-.2.1-.4.2-.7zm-54.9 30.6h.1c1.4.1 2.9 0 4.3.1v12.6l3.6 3.6c1.2-1.2 2.4-2.4 3.6-3.7V78.2h4.4v13.2c0 .2.1.5-.1.6-1.7 1.7-3.4 3.5-5.1 5.2 1.7 1.8 3.5 3.5 5.2 5.3v18.4h12.1v-7.7h4.3v7.7h2.8v-7.7h4.4v7.7h3.5v-7.7h4.4v7.7h9.4v-7.7h4.3v7.6h3.1v-7.6h4.3v7.7h3.2v-7.7h4.5v7.6h24.4v-3.4H545v-14.9l5.1-5.1v-.1l-5.1-5.1c-.2-.2-.1-.4-.1-.6V78h4.4v12.2c0 .2 0 .4.2.6l3.4 3.4 3.5-3.5V78.1h3.1c.5 0 .9 0 1.4-.1 0 4.6 0 9.2.1 13.8-1.7 1.8-3.5 3.5-5.2 5.3 1.7 1.7 3.5 3.5 5.2 5.3v7.4h-4.4v-6.1c-1.2-1.3-2.4-2.5-3.6-3.7-1.2 1.2-2.5 2.3-3.7 3.5v9.6H561v12.2H455.6v-12h11.6v-9.5c0-.2-.2-.3-.3-.5l-3.3-3.3-3.7 3.7c0 2.1 0 4.1.1 6.2-1.4 0-2.9.1-4.3.1v-7.5c1.7-1.8 3.5-3.5 5.2-5.3-1.7-1.7-3.5-3.4-5.2-5.1 0-4.6 0-9.2.1-13.9m13.3 27.2c-1 .3-1.3 1.7-.6 2.4.7.8 2.2.4 2.4-.6.4-1.1-.8-2.2-1.8-1.8m0 3.7c-1 .3-1.3 1.7-.5 2.4.7.8 2.2.4 2.4-.6.3-1.1-.9-2.3-1.9-1.8m22.7 4.8c0 .8.8 1.6 1.6 1.6.9 0 1.6-.7 1.6-1.6h-3.2m-31.7 3.8v3.4h7.2v-3.4h-7.2m21.8 7.4h3.2c0-.8-.7-1.6-1.6-1.6-.8 0-1.5.7-1.6 1.6m4.4 0h3.2c-.1-.8-.7-1.5-1.5-1.6-.9-.1-1.6.7-1.7 1.6m11.1 0h3.2c-.1-.8-.7-1.5-1.5-1.6-.9-.1-1.6.7-1.7 1.6m4.4 0h3.2c0-.8-.8-1.6-1.7-1.6-.7 0-1.4.8-1.5 1.6z" class="st4"/>
  <path id="_x23_272929ff" d="M458.5 134c.5 0-.3.5 0 0z" style="fill:#272929"/>
  <path d="M507.5 62.1c-3.2 1.7-6.8 3.8-9.6 5.8-5.4 3.8-10.2 7.9-13.5 11.6-1.4 1.6-2.6 3.3-3.6 4.9-.7 1.2-1.5 2.9-2 4.5-.1.2-.1.3-.1.4 0 0-.1.2-.1.3 0 .1-.1.4-.2.7-.7 2.2-1 4.1-1.1 6.1v3.4c.1 1.1.3 2.2.5 3.1.1.6.3 1.2.4 1.2v.2s0 .1.1.2.1.4.2.6c.8 2 2 3.9 3.5 5.7l1.8 1.8.3.2h48.1l.3-.3c.2-.2.6-.5.9-.9 2.9-2.9 4.7-5.9 5.6-9.3.2-1 .4-1.9.5-3 .1-.8.1-2.8 0-3.6-.2-1.8-.5-3.4-1-5.1l-.2-.6v-.3s-.1-.2-.1-.3c0-.2-.1-.4-.1-.4v-.1c0-.1-.8-2.1-1.2-2.9-1-2.2-2.7-4.6-5-7.2-.7-.8-2.6-2.7-3.5-3.5-2.8-2.6-5.9-5-9.3-7.4-2.1-1.4-4.8-3.1-7.3-4.5-.3-.2-.4-.2-.5-.2-.2-.1-.1-.1-.4-.3-.1-.1-.4-.2-.5-.3-.2-.1-1.9-1-1.9-1-.2 0-.5.2-1 .5z" style="fill:#f9c33e;stroke:#020200;stroke-width:.5;stroke-miterlimit:10"/>
  <path d="M512.3 50.3c1 .4 1.9.7 3 .8 1.6.2 3.3.1 4.9.5.5.1 1.1.3 1.4.8.4.7.7 1.5 1.2 2.2.7.8 1.7 1.1 2.7 1.3 1.2.3 2.5.3 3.7.6.5.1.7.6.8 1s.2.9 0 1.4l-2.1 5.4c-.5 1.4-1 2.8-1 4.3-.6-.9-1.1-1.7-2-2.3-1-.6-2.3-.3-3.4-1-.8-.4-.7-1.6-1.5-2-1.7-.8-3.7-.4-5.5-.6-1.2-.2-2.5-.8-3.3-1.7 1.8-1.4 2.9-3.6 2.9-5.8.1-2-.7-3.6-1.8-4.9z" class="st4"/>
  <path d="M539.1 132.2c.7-.3 1.4-.7 2.1-1 2.7 4.4 5.3 8.8 7.8 13.3-.6.8-1.7.9-2.5 1.4-2.6-4.5-5-9.1-7.4-13.7zm-4 1.8c.3-.1.6-.2.8-.3.3-.1.7 0 .9.3 2 4 3.9 8.1 5.9 12.2v.1c.1.4.6 1 .2 1.4-12.3 5.3-25.9 7.5-39.3 6.4-.4 0-.6-.3-.6-.7v-.4c0-.4.3-.7.7-.7 1 0 2 .1 3 .1.4 0 .7-.3.7-.7 0-1.4.1-2.7.1-4.1 0-.3-.2-.5-.4-.6-.5-.2-1.1-.2-1.7-.2-.4 0-.7-.3-.7-.7 0-.4.3-.6.7-.7 1.6 0 3.4-.3 4.6.7.1.1.2.2.2.4.4 1.8.1 3.6.2 5.4 0 .4.3.7.7.7 1.1 0 2.3 0 3.4-.1.5 0 .8-.6.6-1-.7-1.4-.6-3.2-.5-4.8.1-.9 1-1.4 1.9-1.4 1.8-.2 3.6-.5 5.4-.6.4 0 .7.2.8.6.3 1.9.6 3.7 1 5.6.1.4.4.6.8.5.7-.1 1.4-.3 2.1-.4.4-.1.6-.4.5-.8-.3-1.9-1-3.7-1.2-5.7 0-.4.2-.7.6-.8 1.8-.3 3.6-1 5.4-1.4.7-.2 1.6-.2 2 .6.7 1.6 1.2 3.3 1.9 4.9.1.3.5.5.8.4 1-.2 1.9-.6 2.8-1 .4-.1.5-.5.4-.9-1.5-3.9-3.3-7.6-4.8-11.4-.4-.3-.2-.7.1-.9zm-6.3 11.5c.2 1.4.6 2.7 1.1 3.9.1.3.4.5.7.4.6 0 1.2-.2 1.9-.3.4-.1.6-.5.5-.9-.4-1.2-.8-2.5-1.2-3.7 0 0 0-.1-.1-.1-.5-.8-1.5-.3-2.3-.1-.4.1-.6.4-.6.8zm-11.5 2.1c-.2 1 0 2 .1 2.9 0 .1 0 .1.1.2.2 1.1 1.7 1.7 2.7 1.3.4-.2.7-.4.7-.8-.1-1.3-.3-2.7-.6-3.9-.1-.3-.4-.6-.7-.6-.6 0-1.3 0-1.9.4-.3.1-.4.2-.4.5zm-38.7-13.4c1 .3 1.9.7 2.8 1.3-.4.5-.4 1.4-1 1.6-.9-.4-1.7-.8-2.6-1.2.2-.6.5-1.2.8-1.7zm6.2 4.9c-.9-.4-1.8-.7-2.7-1-.1-.7.3-1.4.7-1.9.9.4 1.8.7 2.6 1.2-.1.5-.3 1.1-.6 1.7m-9.6-.1c.6-1 2.1-1.6 3.1-1 1.7.8 3.5 1.5 5.3 2.4-.9 2.2-2 4.3-2.7 6.5 1.5.5 3 1.2 4.5 1.6l.4-.2c.9-2 1.4-4.1 2.3-6.1.8-.3 1.9.1 2.4.7-.6 2.2-1.5 4.3-1.9 6.6 1 .3 2 .5 2.9.8.6-2.2 1.3-4.4 1.8-6.7.8-.1 1.6.2 2.5.3-.1 2.4-1.2 4.7-1.2 7.1.9 0 2 .6 2.7.1.4-2.1.8-4.3 1.2-6.5.9 0 1.7.1 2.6.2-.4 2.9-.8 5.9-1.2 8.8-9.7-1.2-19.2-4.3-27.9-9 .9-1.9 2-3.8 3.2-5.6zm2.4 1.4c-.9 1.3-1.6 2.7-2.2 4.1.8.4 1.7.8 2.6 1.2 1-1.5 1.7-3.2 2.4-4.8-.9-.4-1.9-1-2.8-.5z" class="st8"/>
  <path d="M518.8 141.2c.9-.1 1.9-.2 2.8-.4.1.6.3 1.2.4 1.9-1 .3-2 .5-3.1.5 0-.7 0-1.3-.1-2zm-4.5.5c1 0 2-.1 3-.2v2c-1 .1-2 .1-3 .1v-1.9z" class="st8"/>
  <path d="M505.1 68.2c1.4-.8 2.6-2.3 2.8-3.9.9.1 1.8.3 2.4 1 .5.5.6 1.3.7 1.9.3-.1.7-.3 1.1-.2 1 .1 1.7 1.3 1.3 2.2-.1.3-.4.5-.6.8 1.4 1.3 2.9 2.7 3.5 4.6.4-.5.9-1 1.7-1s1.5.6 2.2.9c.5.2.9-.1 1.4-.2.2.1.1.3.2.4.1.7 0 1.4-.2 2-.6 1-1.8 1.3-2.8 1.2 0 .8-.2 1.6-.8 2.1s-1.4.6-2.1.5c-.1.5-.3 1-.6 1.5.7.8 1.7 1.3 2.6 1.8.9.5 1.5 1.4 1.8 2.3.1.6 0 1.2-.4 1.7-.5.5-1.4.5-2 .2-.8-.5-.8-1.9.1-2.4.2-.1.5-.1.8-.2-.2-.4-.5-.9-1-1.2-1-.5-2.2-.6-3.4-.7-1.5 1.5-3.8 1.8-5.8 1.3-.2.4-.3.9-.7 1.2-.7.6-1.8.5-2.4-.2-.4-.4-.4-.9-.5-1.4.2-.4.4-.8.7-1.2-.6-.8-1.2-1.7-1.6-2.7-.4-1.2-.7-2.5-1.1-3.8-.2-.6-.3-1.3-.7-1.9-.2-.4-.6-.6-1-.9.8-.5 1.7-.9 2.6-.8.8.2 1.4.9 1.8 1.6.5-.4 1.1-.8 1.7-1.1-.3-.6-.5-1.2-.1-1.8.5-.8 1.8-.9 2.4-.2.4.4.4 1 .3 1.6 1.6.2 2.8 1.4 3.4 2.8.4.9.4 2 .6 3 .1.7.3 1.4.5 2.1 1-1.7 1.6-3.7 1.1-5.7-.5-1.7-1.6-3.1-3-4.1-.8-.6-1.7-1-2.6-1.1-1.5-.3-3.1-.2-4.6 0-1.6.3-3.1 1-4.4 1.9-1.1.7-1.9 1.6-2.6 2.7.4.2.8.3 1 .8.2.4.1.8 0 1.2v.1c.5.2 1.1.4 1.4.8.4.6.6 1.4.7 2.2-.6-.1-1.3 0-1.8.5-1 1-1.2 2.5-2.1 3.6-.2.3-.5.4-.8.6-.6.2-1.4.2-2 0 .3 1.2.6 2.5 1.4 3.5.6.8 1.4 1.4 2.3 1.9.2-.3.4-.5.6-.8v14.4c0 .6.2 1.3.8 1.5.4.1.7.4.9.8.2-.4.6-.7 1-.8.6-.2.8-.9.8-1.4v-7c-.2-.8-1-1.3-1.8-1.4.2-.3.3-.5.5-.8.7-.7 1.6-1.2 2.6-1.2 0-.6.1-1.3.6-1.8.5-.4 1-.8 1.2-1.4v11.5h5.2c.4-.8 1-1.5 1.7-2-.4-.4-.8-.9-1.3-1.1-.8-.4-1.6-.4-2.5-.4v-.6c0-.5.1-1.1.5-1.5.4-.5 1-.7 1.6-.9-.3-.8-.5-1.6-.1-2.4.3-.6 1-.8 1.7-1.2.9-.5 1.8-1.1 2.5-1.9.7.9 1.7 1.5 2.7 2 .6.3 1.2.5 1.5 1.1.4.7.1 1.6-.2 2.3.6.2 1.2.4 1.6.9.3.4.4.9.5 1.3v.8c-.8 0-1.6 0-2.4.4-.6.2-1 .7-1.4 1.2.7.6 1.2 1.2 1.7 2h4.9V82.9c0-.8-.2-1.7-.7-2.3-.3-.4-.8-.6-1.2-.8.4-.6.8-1.3 1.5-1.6.5-.3 1-.3 1.6-.4v-.9c.1-.4.3-.7.6-.9.5-.5.9-1 1.4-1.5v28.4c0 .8-.1 1.7.5 2.3.5.3 1 .4 1.3 1 .2-.6.8-.7 1.3-1 .6-.6.5-1.5.5-2.2V79.7c.5.8 1.2 1.3 1.8 2.1.1.4.1.9.1 1.3 1.3-.1 2.5.8 3 2l-.6.3c-1.1.6-1.4 2-1.3 3.2 1.9 1.5 3.4 3.7 3.7 6.2.3 1.9.1 3.8-.4 5.6-.4 1.2-.9 2.3-1.7 3.3-.1.2-.5.2-.6 0 0-.4.2-.8.4-1.2.4-.7.6-1.5.8-2.3-.3 0-.7 0-1-.2-.5-.5-.5-1.2-.4-1.9.2-1.9.9-3.7.8-5.6-.1-1.1-.6-2.1-1.4-2.9 0 0-.1-.1-.1-.2v15.1c0 .4-.1.8-.2 1.1-.2 1-.6 1.9-1.3 2.6-.5.4-1.2.6-1.9.7-.8.2-1.2.9-1.5 1.6-.3-.8-.8-1.5-1.7-1.7-.8-.1-1.6-.4-2-1.1-.7-.8-.9-2-1.1-3-.3-.1-.3.3-.4.5-.7 2-2.1 3.7-4 4.8-2.1 1.2-4.7 1.5-7 .8-2.9-.8-5.3-3.3-6-6.2h-.5c-.2 1.3-.5 2.8-1.7 3.7-.7.5-1.7.4-2.3.9-.4.3-.6.8-.8 1.3-.3-.8-.8-1.5-1.7-1.7-.7-.1-1.5-.4-2-.9-.7-.9-1-2.1-1.2-3.2h-3c-.4 1.4-1.3 2.6-2.5 3.3-1.2.8-2.8 1-4.2.8-1.7-.3-3.2-1.5-4-3-.2-.3-.3-.7-.4-1h-.4c.5-2.3-.2-4.7.3-7 .4-1.2 1.2-2.2 2.2-2.9 1.2-1 2.7-1.5 3.7-2.7.7-.9.4-2.1.5-3.1v-3.6c0-1 .1-2-.4-2.9-.3-.5-.7-.9-1.3-1.1-.1 0-.2-.1-.2-.1.4-.6.8-1.3 1.5-1.7.5-.3 1-.3 1.5-.3 0-.4-.1-.9.1-1.3s.5-.6.8-.9c.4-.4.7-.8 1.1-1.2v25.8h1.8c.1-.6-.2-1.3.3-1.7.1.6.1 1.2 0 1.7h2.8V98c0-.8-.2-1.6-.7-2.2-.3-.4-.8-.6-1.2-.8 0-.1.1-.2.2-.3.6-1 1.7-1.8 2.9-1.7 0-.5 0-1.1.2-1.6-1.8-1.4-3.1-3.5-3.7-5.8-.3-1.3-.3-2.7-.1-4.1.2-1.4.7-2.8 1.4-4.1.7-1.5 1.7-2.9 2.9-4 1.5-2.5 4.5-3.7 7.1-5.2zm2.1-1.4c-1.1 1.6-3 2.3-4.6 3.2-2.5 1.3-5.3 2.7-6.9 5.2s-2.7 5.4-2.6 8.4c.1 2.7 1.6 5.4 3.7 7.1.2-.2.4-.3.6-.5-.4-.3-.9-.6-1.2-.9-1.6-1.4-2.2-3.6-2.5-5.7-.1-.9.2-2.1 1.1-2.3.9-.3 1.8.8 1.3 1.6-.2.5-1.1.8-1.3.2.2 0 .5 0 .7-.1.4-.2.5-.8.1-1.1-.4-.4-1-.1-1.3.3-.3.6-.3 1.3-.2 2 .8.5 2 .4 2.6-.4.7-.9 1-2.1 1.6-3 .5-.7 1.3-1.2 2.1-1.2-.2-.7-.3-1.5-1-1.9-.4-.3-.9-.3-1.4-.4.3-.3.6-.6.5-1.1 0-.6-.8-.8-1.2-.9.9-1.9 2.6-3.2 4.4-4.1 1.6-.8 3.4-1.2 5.2-1.3 1.9 0 3.9.2 5.4 1.3 1.5 1.1 2.7 2.7 3.1 4.5.4 2.1-.1 4.4-1.4 6.1-.1 0-.2 0-.2.1-.6-1.3-.7-2.8-.8-4.2-.1-1.3-.9-2.4-1.9-3.3-.6-.5-1.3-.6-2.1-.7.2-.5.4-1.2-.1-1.6-.6-.7-1.8-.4-2 .5-.2.6.2 1 .5 1.4-.9.3-1.7.8-2.3 1.5-.5-.6-.8-1.4-1.6-1.7-.7-.2-1.5.1-2.1.4.6.5 1 1.2 1.2 2 .4 1.4.7 2.9 1.2 4.3.3 1 .9 1.9 1.6 2.8.1 0 .4-.1.5-.2-.6-.8-1.1-1.7-1.3-2.6.1-1.1.1-2.1.3-3.2.4-.9 1-1.7 1.7-2.3 1-.8 2.4-.8 3.6-.4.8.2 1.5.8 1.6 1.6.1.8-.7 1.8-1.6 1.5-.6 0-1.1-1-.5-1.3.2.3.2.7.5.9.7.2 1.4-.7 1-1.3-.2-.6-1-.8-1.5-.5-.8.3-1.1 1.2-1 2 0 1.1-.2 2.5-1.3 3.1.6.3 1.2.7 1.9.5 1-.2 1.6-1.1 2-1.9.1.2.2.4.2.6.1.8.1 1.7.6 2.4.2.4.6.8 1 1.1-1.4 1.2-3.5 1.6-5.3 1.1 0 .1.1.4.1.5 1.9.5 4.2.2 5.6-1.3 1 0 2.1.1 3.1.5.5.3 1 .4 1.3.8.4.5.8 1.3.4 1.9-.4 0-.1-.6-.5-.6-1-.1-1.2 1.6-.3 1.9.5.2 1.3.2 1.6-.3.4-.7.2-1.6-.3-2.3-.5-.7-1.2-1.2-2-1.5-.8-.4-1.5-.9-2-1.7.4-.5.6-1.2.7-1.9.8.2 1.7.2 2.3-.4.6-.5.7-1.4.6-2.2.9.1 1.9.1 2.5-.5.7-.5.6-1.5.6-2.2-.4.1-.8.2-1.2.1-.7-.2-1.2-.9-2-1-.6-.1-1.2.3-1.6.8-.4.4 0 1 .3 1.3.4.4 1.1.1 1.2-.4 0-.4-.7-.5-.4-.9.4 0 .8.5.8.9 0 .8-1 1.3-1.7.8-.7-.4-.7-1.3-.9-2-.6-1.9-2.2-3.3-3.7-4.5.3-.2.8-.4.9-.7.4-.8-.2-1.8-1.1-1.9-.5 0-.8.3-1.2.5-.1-.7-.1-1.5-.6-2.1s-1.3-.9-2-1c-.3.4-.6 1.1-1.1 1.8zm-2 10.2c-.2.7-.2 1.5-.3 2.3-.3 1.4.6 2.6 1.4 3.6.7.1 1.1.8 1.8.8 1.5.4 3.1 0 4.3-.8-.2-.4-.6-.7-.8-1.1-.3-.6-.4-1.4-.5-2.1-.7.9-1.8 1.6-3 1.2-.5-.2-1.1-.5-1.4-1 .5-.1.9-.3 1.2-.7.4-.8.4-1.7.4-2.5 0-1 .8-2 1.9-1.9-.7-.4-1.5-.4-2.3-.3-1.3.2-2.2 1.4-2.7 2.5zm29 14.1c.6 2.4-.7 4.8-.6 7.2 0 .4.2.9.6 1 .7.1 1.1-1 .8-1.5-.3-.3-.6.1-.9.2-.3-.1-.1-.4.1-.5.5-.4 1.3-.1 1.4.5.2.8-.5 1.4-.6 2.1-.2 1.1-.8 2-1.1 3 2.1-2.5 2.6-6 2.1-9.2-.3-1.6-1.1-3-2.2-4.2 0 .5.3.9.4 1.4zm-21.7 5c.1.8.8 1.3 1.5 1.6.6-.3 1.4-.8 1.4-1.6.1-1-.7-1.8-1.4-2.3-.8.6-1.6 1.4-1.5 2.3zm-27.9 1.6c-.6 1-.6 2.3-.6 3.4h3.3v-5.5c-1 .4-2.1 1-2.7 2.1zm27.3 6.7h-5.5c.6 1.3 1.6 2.4 2.8 3.2 0-.6.1-1.3.7-1.5 1-.3 2.2.1 3.2-.1.5-.1 1-.3 1.5-.6.4.6.8 1.3.6 2.1.4-.1 1-.1 1.3.2.3.2.3.6.4.9 2-.8 3.7-2.3 4.7-4.2h-5.5c-.4-.8-.8-1.6-1.3-2.3-.2-.3-.5-.5-.8-.6-1.1.6-1.8 1.7-2.1 2.9zm-30.4-.1c.5 1.4 1.5 2.7 2.9 3.3 1.7.8 3.8.7 5.4-.4 1-.7 1.8-1.8 2.2-2.9l-.1.1c-.7 1.3-1.9 2.4-3.4 2.7 0-.4.2-.9 0-1.3-.2-.5-.7-.8-1.2-.9-.5 1.5-2.4 2.1-3.8 1.5-.9-.4-1.4-1.2-2-2.1.1.1 0 .1 0 0zm.5.1.9 1.2c1.1 1.3 3.7.7 4-1 1.1.1 2.1 1 2 2.1 1-.5 2-1.3 2.5-2.3H482zm23.8-.2c.8 3.2 3.6 5.7 6.8 6.2 2.3.4 4.8-.2 6.7-1.7 1.4-1.1 2.6-2.7 3-4.5-.2.1-.3.3-.4.4-1.1 2-3 3.7-5.3 4.3-.1-.4 0-.9-.5-1.1-.5-.3-1.1 0-1.6.2.1-.4.3-.8.3-1.2 0-.4-.2-.8-.4-1.1-.4.2-.7.4-1.1.4-1.1.2-2.2-.1-3.3.1-.6.1-.8 1-.3 1.4.4.3 1.1.4 1.4-.1.3-.4-.6-.6-.4-1 .7-.1 1.1.9.6 1.4s-1.4.4-1.9.1c-1.3-.8-2.4-2-3.2-3.3-.1-.1-.2-.4-.4-.5z" class="st1"/>
  <path d="M483.1 83.5c.6-.7 1.8-.8 2.5-.2.5.4.7 1.1.6 1.8-.2.7-.9 1.3-1.7 1.3-.8.1-1.5-.6-1.8-1.3-.1-.6 0-1.2.4-1.6zm16.9 1.3c0-1 .7-1.9 1.7-1.9.8 0 1.5.6 1.8 1.3 0 .5 0 1.1-.4 1.5-.6.7-1.7.8-2.4.3-.3-.2-.5-.7-.7-1.2zm-17.3 3.8c.1-.8.8-1.6 1.7-1.7.9-.1 1.7.7 1.9 1.6.1 1-.7 1.9-1.7 1.9-1.1.1-2-.8-1.9-1.8zm8.4 19.4c.2-.6.8-1.2 1.5-1.3.8-.2 1.6.4 1.9 1.1.4 1-.4 2.3-1.5 2.4-1.2.2-2.2-1-1.9-2.2z" class="st1"/>
  <path d="M507.2 66.8c.5-.6.8-1.4 1-2.1.7.2 1.5.4 2 1 .4.6.4 1.4.6 2.1.4-.2.7-.5 1.2-.5.8 0 1.5 1.1 1.1 1.9-.2.4-.6.5-.9.7 1.5 1.3 3.1 2.6 3.7 4.5.2.7.2 1.6.9 2 .6.4 1.6 0 1.7-.8 0-.4-.4-.9-.8-.9-.3.4.4.5.4.9-.1.5-.8.8-1.2.4-.3-.4-.6-.9-.3-1.3.3-.5.9-.9 1.6-.8.8.1 1.3.8 2 1 .4.1.8 0 1.2-.1 0 .8.1 1.7-.6 2.2-.7.6-1.7.6-2.5.5.1.8.1 1.7-.6 2.2-.6.6-1.5.6-2.3.4-.1.7-.3 1.3-.7 1.9.5.7 1.3 1.2 2 1.7.8.3 1.5.7 2 1.5.5.6.8 1.5.3 2.3-.3.5-1.1.6-1.6.3-.9-.3-.6-2 .3-1.9.4 0 .1.6.5.6.4-.6 0-1.4-.4-1.9-.3-.5-.9-.6-1.3-.8-1-.3-2-.4-3.1-.5-1.4 1.5-3.7 1.8-5.6 1.3 0-.1-.1-.4-.1-.5 1.8.5 3.9.1 5.3-1.1-.4-.4-.7-.7-1-1.2-.4-.7-.5-1.6-.6-2.4 0-.2-.1-.4-.2-.6-.4.8-1 1.7-2 1.9-.7.2-1.3-.1-1.9-.5 1.1-.6 1.4-1.9 1.3-3.1-.1-.8.2-1.7 1-2 .5-.2 1.3-.1 1.5.5.3.6-.3 1.5-1 1.3-.3-.2-.3-.6-.5-.9-.6.3-.1 1.3.5 1.3.9.2 1.7-.7 1.6-1.5s-.8-1.4-1.6-1.6c-1.2-.4-2.6-.4-3.6.4-.7.6-1.3 1.4-1.7 2.3-.1 1.1-.2 2.1-.3 3.2.2 1 .7 1.8 1.3 2.6-.1 0-.4.1-.5.2-.6-.8-1.3-1.7-1.6-2.8-.5-1.4-.8-2.9-1.2-4.3-.2-.8-.5-1.5-1.2-2 .6-.3 1.4-.6 2.1-.4.8.3 1.1 1.1 1.6 1.7.7-.6 1.4-1.2 2.3-1.5-.3-.4-.7-.9-.5-1.4.2-.9 1.4-1.2 2-.5.4.4.3 1.1.1 1.6.7.1 1.5.2 2.1.7 1 .8 1.8 2 1.9 3.3.1 1.4.3 2.9.8 4.2.1 0 .2 0 .2-.1 1.2-1.7 1.8-4 1.4-6.1-.4-1.8-1.7-3.4-3.1-4.5-1.5-1.2-3.5-1.4-5.4-1.3-1.8 0-3.6.4-5.2 1.3-1.8.9-3.6 2.2-4.4 4.1.5.2 1.2.3 1.2.9.1.4-.2.8-.5 1.1.4.2 1 .1 1.4.4.6.4.8 1.2 1 1.9-.9 0-1.7.5-2.1 1.2-.6 1-.9 2.1-1.6 3-.6.7-1.8.8-2.6.4-.1-.6-.1-1.4.2-2 .2-.4.9-.7 1.3-.3.3.3.2.9-.1 1.1-.2.1-.5.1-.7.1.2.7 1.1.3 1.3-.2.5-.8-.4-1.9-1.3-1.6-1 .2-1.2 1.4-1.1 2.3.2 2.1.8 4.3 2.5 5.7.4.4.8.6 1.2.9-.2.2-.4.3-.6.5-2.1-1.7-3.5-4.3-3.7-7.1-.2-3 .9-5.9 2.6-8.4 1.6-2.5 4.3-3.8 6.9-5.2 1.7-.5 3.6-1.3 4.7-2.8zm-1.4 37.4c.2.1.3.3.4.5.7 1.4 1.9 2.5 3.2 3.3.6.3 1.4.4 1.9-.1s.1-1.5-.6-1.4c-.2.4.7.6.4 1-.3.4-1 .3-1.4.1-.5-.3-.3-1.3.3-1.4 1.1-.2 2.2.2 3.3-.1.4-.1.7-.3 1.1-.4.2.3.4.7.4 1.1s-.2.8-.3 1.2c.5-.2 1-.5 1.6-.2.4.2.4.7.5 1.1 2.2-.6 4.1-2.3 5.3-4.3.1-.2.2-.3.4-.4-.4 1.8-1.6 3.3-3 4.5-1.9 1.4-4.3 2.1-6.7 1.7-3.3-.5-6-3-6.8-6.2zm-24.3.1.1.1c.5.8 1 1.6 1.9 2 1.4.6 3.3 0 3.8-1.5.5.2 1 .4 1.2.9.2.4.1.9 0 1.3 1.4-.4 2.6-1.5 3.4-2.7 0 0 .1 0 .1-.1-.4 1.2-1.2 2.3-2.2 2.9-1.6 1.1-3.7 1.2-5.4.4-1.4-.6-2.4-1.8-2.9-3.3zm52.7-13.2c-.1-.5-.4-1-.6-1.4 1 1.2 1.9 2.6 2.2 4.2.6 3.1 0 6.7-2.1 9.2.4-1 .9-2 1.1-3 .1-.7.8-1.3.6-2.1-.1-.6-.9-.9-1.4-.5-.2.1-.4.4-.1.5.3-.1.6-.5.9-.2.4.5 0 1.6-.8 1.5-.5-.1-.6-.6-.6-1 .1-2.4 1.4-4.8.8-7.2z" style="fill:#dfdfdf"/>
  <path d="M2966 4442.9c-11.5-25.7-21.6-53.2-24.2-65.9-2.4-12.2-2.4-15.3-.2-22.1 3.1-10.3 9.7-15.1 20.9-15.1 17.9 0 32 14.1 34.8 34.8 2.3 16.7-3.3 27.5-21.9 41.4l-6.4 4.9 2.4 12.5c1.7 8.4 1.9 13.4.5 15.7-1.6 2.7-2.6 1.6-5.9-6.2zm2.4-56.4c3.3-1.4 8.2-4.9 10.4-8 4-5 4-5.6.9-7.8-4.2-3-20-3.1-23.1-.2-2.4 2.4-3 10.6-1.2 15.5 1.7 4 4.9 4 13 .5zm-149.1 43.5c-6.3-2.6-33.7-11.5-61.4-19.8-200.4-60.7-644.9-221.5-700.9-253.5-24.7-14.1-41.8-32.5-50.3-54.3l-3.1-8.2 5.2 1.2c5.9 1.6 8.9 2.8 98.8 40.9 219 92.4 430.7 168.7 675.7 243.7l19 5.9 13.2 15.1c13.7 16 19.7 25.1 19.8 30.8 0 4.2-2.2 4-16-1.8zm632.2-13.2c-3.1-2.8-7.3-8.2-9.2-12-4.7-9.2-12.5-34.3-15.3-49.9l-2.4-13-8.5 15.8c-15.5 28.4-37.8 45.4-47.8 36.4-5-4.5-7.3-10.4-9-23l-1.6-9.7 6.8-2.6c3.8-1.6 12-4 17.9-5.2 10.6-2.3 11.5-3 18.3-13.4 7.1-11.3 15.1-29.9 18.6-44.7l2.1-8.2 4.7 4.3c6.8 6.4 9.7 19.8 12 51.1 2.1 29.7 4.9 40.4 13.4 47.8l4.2 3.8 5-6.1c6.6-8 9-7.8 12.7.3 5.2 12.9 2.4 27-6.3 31-6.5 3.1-9 2.7-15.6-2.7zm-1565.8-5.6c-6.6-7.1-12.2-22.4-17.6-49.2-2.4-12.5-4.7-23.5-4.9-24.2-.3-.9-3.8 4.9-8 13.2-9.7 19.3-28.2 38.4-41.4 42.8-5 1.9-10.4 3.1-11.7 3.1-2.8 0-5.9-9.7-7.3-24.5l-1.2-10.4 12-7c6.6-4 15.3-7.8 19.5-8.5 6.6-1.4 8.7-3.1 15.5-13.6 4.3-6.4 10.6-19.5 14.1-28.7 3.3-9.2 7.1-16.5 8.2-16.2 3.3 1.2 8.7 14.4 10.4 26.3.9 6.6 2.6 22.3 3.7 35 1.4 16.7 3 25.1 5.7 30.6 5 9.7 6.8 10.6 12.7 6.1 2.8-2.3 5.9-4 6.8-4 2.3 0 8.9 15 9 20 0 5-7.1 11.7-14.6 13.2-5 .9-6.9.2-10.9-4zm2028.1-7.4c-5.2-2.3-20.5-7.3-33.9-11.3-13.6-3.8-39-11.5-56.7-17-17.6-5.6-51.1-15.3-74.6-21.7-94.3-25.7-193.5-55.3-299.6-89.8-129.8-41.9-139-45.6-151.2-60-11.7-13.6-16.2-37.1-8.5-44.7 8-8 36.4-17.6 43.7-14.8 1.6.5 4 5.7 5.2 11.1 2.4 9.4 2.4 10.1-1.6 13.2-2.3 1.9-8.9 4.3-15 5.6-12.4 2.6-21.7 7-20.2 9.4 1.4 2.3 30.4 15.8 52 24.5 27.7 11 64.5 22.4 140.7 44.2 38.6 10.8 89.1 26.1 112.4 33.7 46.3 15.5 74.3 23.8 135.2 40 21.9 5.9 54.3 15.5 72.2 21.7 17.9 6.1 43.8 13.6 57.6 16.9 46.3 10.4 56.4 16.5 56.4 34.4 0 10.7-.6 10.8-14.1 4.6zm-2253.4-3.7c-12-5.6-20.9-16-24.5-29.1-4.2-14.1-.9-23.5 10.6-32 4.7-3.1 11-8.2 13.9-10.6l5.6-4.5-19.7-19.7c-22.1-22.1-43-39.5-95.3-79.7-19.7-15.1-39.7-30.6-44.4-34.6-8.2-7-8.4-7.1-2.8-5.9 8 1.9 34.4 14.6 47.7 23 18.1 11.7 66.5 48.5 84.7 64.9 9.4 8.4 22.1 21.2 28.4 28.5s12 13.4 12.5 13.4c.7 0 4-2.3 7.1-4.9s7-4.5 8.4-4c1.4.3 3.8 5.9 5.7 12 3 9.7 3 11.1.3 12.5-6.4 3.7-8.5 12.2-8.5 33.9-.2 15-1.2 24.2-3.3 30.8-3 8.7-3.8 9.4-9.7 10.1-4.4.3-10.8-1.1-16.7-4.1zm11.3-28c3-4.3 4.2-16.7 1.7-16.7-3.1 0-13.9 7.8-15.1 10.8-.7 1.9.3 4.3 3 6.6 5.7 4.5 7.1 4.5 10.4-.7z" class="st10" transform="matrix(.1 0 0 -.1 0 485)"/>
  <path d="m3283.1 4332.8-8.9 8v22.1c0 24.4-2.3 32.9-10.3 37.9-12.2 8-34.3-7.8-42.6-30.3-7.8-20.4-4.3-27.8 19.7-43.1 5-3.3 9.6-7.7 10.1-9.4 1.6-7.8-41.6-52.4-108.4-112.4l-39.7-35.7-5 24.7c-12 57.1-15.7 84.4-11.5 84.4.5 0 5.7-4.2 11.1-9.4 12-11.3 16.9-12.5 15-3.1-5.9 26.6-37.8 102.5-52.5 124.6-6.1 9.2-8.9 11.1-8.9 6.4 0-1.4-3.3-10.1-7.8-19.1-10.3-21.9-11.5-34.3-4.9-47.3 6.3-12.7 8.2-22.4 11.7-61.4 2.8-31.8 6.1-52.5 27.5-185.3 12.9-79.9 24.5-159.4 23.7-160.4-1.6-1.6-88.2 3.7-112.6 6.6-34.3 4.2-46.1 6.8-45.9 10.3.2 1.6 1.7 10.4 3.3 19.5 9.2 51.1 5.9 90.3-17.7 202.7-13.4 64-20.4 110.6-16.7 110.6 1.2 0 6.3-3.3 11.3-7.7 16.5-13 18.1-9.6 8.9 17.4-9.7 28.9-49.1 116.7-53.8 120.6-1.9.3-4.3-3.5-10.3-17.6-4.2-10.3-9-23.5-11-29.2l-3.1-10.8 4.9-11.1c4-8.7 5.6-16.2 7-34.6 2.4-28.7 9-67.2 28.4-165.8 12.7-64 24.9-133.8 29.1-163.4.7-6.8.5-7.1-6.1-9-3.8-.9-23.7-3.7-43.8-5.7-71.5-7.3-79.2-9.2-91.2-21.2-8.9-8.9-19.8-31-21.6-43.3l-1.2-8.7 11 1.7c16.5 2.4 76.4 2.3 98.1-.2 10.4-1.4 26.1-4 35-6.1 8.9-2.3 29.2-5.2 45.4-7.1l29.2-3.1-16-10.6c-28.4-18.6-62.5-33.4-96-41.6-19.1-4.5-51.7-5.7-64-1.9-20.5 6.1-36.2 24-40 46.1-1.2 6.3-2.4 12-3 12.5-2.6 2.6-15.3-13.4-22.1-28-9.7-21.2-15.1-27.8-26.8-33.2-11.3-5.2-28.5-6.1-37.1-1.7-13.4 7-17 18.6-12.4 39.7 1.7 7.8 2.8 15.5 2.4 17.2-.9 5-15.3-7.3-33.9-29.9-26.3-31.5-39.7-40.2-70.5-45.1-22.6-3.7-41.9.5-49.9 10.6-4.5 5.7-4.5 4.5-.9 31 .5 3.7 0 7.8-.9 9.2-3 4.5-14.6-.3-29.2-12.2-31.5-25.7-70.6-37.6-122.1-37.6-35.1 0-48 2.6-72 15.1-21.2 11-33.9 22.3-40.9 36.4-4.5 9.2-5.2 13-5 26.4 0 8.5-.3 15.5-.7 15.5-3.1 0-17.2-12.7-43.8-39.8-27.5-28-32.9-32.5-44.4-37.9-12.4-5.9-14.6-6.3-32.2-6.1-21.4 0-25.9 1.7-46.8 17-20.2 15-27.7 30.6-36.4 77.2-6.1 32.5-15.3 69.6-25.7 103.2-8 26.3-23.8 69.6-26.3 72.2-2.1 2.3-11.1-9.4-16.9-21.4-4.3-9-4.9-12.9-4.9-30.3 0-18.1.7-22.6 9.7-54.8 15.7-55.3 21.4-87 21.4-121.4v-20l-5.9-5c-9.4-7.8-26.6-15.7-39.7-18.1-23.1-4.2-43.1 4-54.6 22.1-6.6 10.4-9.4 21.9-11 44.4l-1.4 17.2-11.7-8c-8-5.2-17.6-14.8-28.9-28.5-9.4-11.3-21.9-24.4-27.7-28.7-22.1-17.4-46.3-25.6-70.6-23.5-23 1.9-36.9 11.5-65.1 44.2-24.5 28.7-28.7 31.5-41.2 30.3-15.7-1.9-32.4-11-48.2-26.3-24-23.3-30.8-35.1-47.8-83.7-13.7-39.5-23-57.6-36.5-72.2-13-13.7-17-14.8-32.9-7.3-12.5 5.9-24.9 19-32.5 33.7-8.7 17.6-11 26.6-11.8 63.1-2.4-3.7-4.7-7.3-7.1-11-1-1.6-5.7-10.4-9.2-15.1.5-4 2.6-13.9 5.6-24.5 11.1-44.7 32.2-76 57.2-85.6 18.1-6.8 28.2-4.9 43 8.4 10.3 9.2 16.2 21.7 29.2 59.5 15.7 45.8 22.4 59 38.6 73.9 13.4 12.9 32.2 23.5 44.5 25.6 8.9 1.6 15.7-4 34.6-27.5 27.5-33.7 39.1-42.1 63.8-45.6 39.7-5.7 81.6 14.8 107 52.2 9.7 14.8 16 21.4 22.6 23.7 3.1 1.4 4.2.2 6.8-6.6 7.8-19.8 19.7-41.4 26.8-48.5 19.8-19.8 50.5-22.3 81.8-6.4 16.5 8.4 24.5 18.4 31.3 39 3.1 9.7 8 20.5 10.4 24l4.5 6.1 6.6-14.1c19-39.7 40.4-58.6 72.5-63.5 16.9-2.6 32.5-.2 49.8 8 10.1 4.7 17 10.6 38.8 32.5 35.7 35.7 32.4 33.7 36.9 22.6 26.8-62.5 113.8-92.2 188.4-64.9 6.1 2.3 22.4 10.3 36.5 17.7 31.1 17 33.9 17.9 33.9 12 0-6.4 10.4-23.3 17.6-28.7 31-23.7 89.8-5 126.8 39.8l8.4 10.1 2.1-8.9c5.2-20.9 14.4-30.6 33.2-35.5 27.5-7 35.3-3 68.5 35.8l8 9.4 3.1-4.7c8.2-11.7 24.5-26.8 33.7-31.1 29.1-13.7 76-7 126.3 18.3 6.1 3 29.1 16.5 51.1 29.7 34.4 20.7 56.4 32 71.3 36.7 2.6 1.6 4.3 1.7 5.6 2.3 9.6 3.7 2.3 1.2 11.8 4.3.3.2-.3 0 4.2.5l11.1 2.3c11 2.4 41.4 6.8 46.8 6.8.5 0 1.7-15.8 2.4-35.3 1.9-55.1 3.1-60.9 11.1-52 3.1 3.7 11.3 41.4 15 69.8 2.4 19.7.2 17.7 25.9 21.6 15.1 2.3 16 2.8 21.2 9.7 8.2 11.1 13.4 29.1 12.7 43.3l-.5 12-11.3-.2c-6.3 0-19.5-.7-29.4-1.7l-18.3-1.6-1.2 7.3c-.5 4-3.3 25.4-6.1 47.1-2.6 21.9-9.4 71.7-15 110.6-5.6 39-10.1 70.8-9.7 71 4.7 2.8 41.4 29.9 56.2 41.2 26.6 20.5 69.9 63.1 89.2 87.3 8.5 10.8 16.2 19.7 17 19.7.7 0 4.3-1.7 8-4l6.6-4 3.8 6.1c1.9 3.3 4.2 9 4.9 12.9 1.6 6.2.9 7.2-7 14.7zm-21.4 13.9c-1.2-1.2-16.5 9.2-20 13.4-2.1 2.6-2.1 4 0 7.8 3.7 6.6 10.6 6.1 15-1.2 3.8-6.1 6.8-18.3 5-20z" class="st11" transform="matrix(.1 0 0 -.1 0 485)"/>
  <path d="M4070.3 3959.5c-2.6 43.3-13 112.4-23.8 159.2-3.1 13.7-7.8 37.1-10.4 51.7-2.4 14.6-6.6 37.6-9.2 51-2.4 13.6-4.7 30.8-4.7 38.6v13.9l11.1-10.6c25.6-24.4 23.5-10.3-10.3 70.5-13.9 33.7-23.5 52.7-31 62.1l-3.7 4.7-2.6-6.6c-1.6-3.3-6.1-15.8-9.7-27.7l-7-21.2 3.8-12.2c2.1-6.8 5.6-26.3 7.7-43.5 4.9-38.3 18.3-115.3 36.2-207.4 16-83 23.5-125.8 28.4-163.5l3.7-28.4-5-5.2c-11.5-12.4-40.2-28.7-59.8-34.4-16-4.7-36.4-3.1-50.5 3.8-6.1 2.8-12.4 6.8-13.9 8.7-2.8 3.1-2.1 4.2 14.6 15.1 16.9 11 53.1 30.1 57.6 30.1 4.9 0 19.7 37.6 19.7 50.1 0 5.6-1.2 6.6-10.8 12-65.1 33.9-177.4 32.5-252.9-3.3l-15.1-7.3-8-17.6c-9.2-20.5-12.7-32.5-11.1-38.6.9-3.8 1.7-4.2 7.8-2.4 3.7 1.2 11.1 4 16.7 6.4 5.2 2.6 13.2 4.7 17.6 4.7 16.9 0 44.2-12.2 69.6-30.8 15.1-11.1 15.5-10.3-9.2-22.1-33.7-15.8-63.8-23.3-96.4-23.3-28.5 0-40.9 4-54.3 17.7-10.4 10.6-14.8 22.6-14.8 40.9v12.2l-5.6-2.8c-7.3-4-13.6-11.7-26.1-32.9-13-22.1-20.9-31-32.2-36.5-17.7-8.5-44-4-58.6 10.1-9 8.9-10.8 15.8-7.1 29.4 3.7 14.6 3.8 26.6 0 28-6.4 2.6-22.4-12-42.3-38.6-12.5-16.5-25.6-28-39.7-35.3-30.8-15.5-66.1-17.4-91.9-4.7-12.4 5.9-31.3 25.1-38.4 38.8-10.1 19.5-28.9 33.1-45.6 33.1-23.8 0-55.1-28.5-84.7-76.5-7.3-12.2-10.6-20-15.5-38.8-8-30.8-19.5-54.6-32.9-68.2-5.6-5.9-13-11.5-16.5-13-5.7-2.3-7-2.1-15 2.1-20.5 11-39 37.9-46.3 68-4.3 17.7-7.1 51.5-5.9 66.3l.7 6.6c-4-1.2-7.8-2.1-8.5-2.4-.5-.2-3-.9-5.7-1.7.2-3.7 0-10.3-.5-22.1-1.4-32.9 1.2-51.8 10.1-78.8 12-35.5 29.9-59.5 53.9-71.7 14.6-7.1 21.2-7.3 32.2-.3 16.2 10.3 24.7 24.4 37.8 61.9 4.2 12 10.3 27 13.4 33.4 22.1 43.7 62.5 78.8 84.9 73.9 8.9-2.1 16.7-10.1 31-32.2 7.3-11.3 16.9-23.7 20.9-27.3 23.5-20.4 63.2-26.3 99-14.1 24.5 8.4 40.7 20 53.6 39.3 9 13.6 13.7 19.1 20.9 24l5 3.8 2.3-8.2c3.1-12.7 8.9-22.1 19.1-32.9 11.1-12 21.2-17.2 35.7-19 23.8-2.8 41.1 8.2 63.2 39.7 13.7 19.8 19.3 25.7 20.5 21.7.3-1.6 1.7-6.1 2.8-10.3 7.7-28.5 37.1-47.1 73.8-46.6 28.9.2 55.5 9.4 100.9 35 13.7 8 32.4 17.7 41.1 21.9 18.3 8.9 15.3 9.7 39.7-12.5 17.9-16.5 24.7-20.5 39.8-24.4 19.7-5 46.3-1.2 68.9 10.3 27.7 13.7 49.4 31.3 54.6 43.8 7.5 19.1 15 82.2 12.9 113.4zm-176-55.9c-4.3-3-8.7-5.6-9.6-5.6-2.6 0-28.5 28.2-28.5 31 0 1.6 1.6 3.1 3.3 3.7 8.4 2.3 33.7 1 50.6-2.4 10.3-2.1 18.6-4.2 19.3-4.5.3-.3-5.6-4.3-13.2-8.7-7.7-4.6-17.4-10.7-21.9-13.5z" style="fill:#111110;stroke:#fff;stroke-width:2.500000e-04;stroke-miterlimit:10;stroke-dasharray:.3" transform="matrix(.1 0 0 -.1 0 485)"/>
  <path d="M1405.2 3755.4c2.6 4 5.4 8.2 8 12.2 1.2 1.7 6.4 11.7 9.9 16-.2 5-.2 10.3-.3 16.4-.7 49.4-.7 50.3-5.6 59.5-2.6 5-8.5 12.9-13 17.2-6.6 6.4-10.3 8.4-20 10.3-19 3.7-53.2-.7-68.9-8.9-5-2.6-5-2.6-7.3 5.2-12.2 45.4-27.7 122.1-32.9 162.5l-3 24.2 26.1 26.1c14.4 14.1 31.5 32.5 38.4 40.7 6.6 8 13 14.6 14.4 14.6 1.2 0 3.7-1.7 5.7-4 8-8.9 14.1-8.7 18.6.3 5.2 10.3 3.8 15.1-7.8 25.6-8.5 7.7-10.8 10.8-10.6 15.1 0 3 .2 10.3.3 15.8.2 8-.9 12.7-5 20.9-6.1 11.5-9.4 13-20.4 9.4-15-4.9-23.7-18.6-26.4-41.8-1.4-10.3-1.2-10.6 5.2-16 3.7-3 11-7.8 16.2-10.8l9.7-5-6.3-8.9c-14.1-20-58.3-62.6-62.1-60-.9.7-1.7 3.7-1.7 6.8 0 3-3 23.1-6.8 44.5-11.3 67-12.2 71.3-12.2 80 0 14.4 2.4 15.5 11.7 5.2 4.5-5 10.6-9.4 13.6-10.3 6.6-1.6 7.3-4.9-9 39-23.3 62.1-35.1 91.3-41.1 100.6l-6.1 9.4-4.2-10.3c-2.4-5.6-7-15.5-10.3-22.3-6.8-14.1-7.3-22.6-2.3-35.3 4-10.4 8.2-34.3 12.5-74.3 3.7-32 10.3-81.8 17.2-128.2l4.9-32.7-5.2-5.9c-3-3.1-18.1-16.2-33.7-29.1-40.2-33.1-41.8-34.4-40.2-35.8 2.8-2.6 29.7 12.7 55.7 31.5l26.1 19 1.4-5.2c.7-2.8 3.7-19.7 6.3-37.4 2.8-17.6 9.6-55.1 15.3-83.3 5.7-28.2 10.3-52.9 10.3-54.8 0-6.1-35.7-26.1-77.4-43.8-29.7-12.5-42.3-15.7-65.9-16.9-20.5-1.2-21.6-.9-20 2.4 4.5 11.1 10.4 30.4 12.5 40.9 3.1 17 2.8 49.1-.9 64.9-4 16.9-16.7 43-23.1 48-7 5.6-12.5 4.9-25.9-2.1-30.1-16-54.5-50.8-66.8-95.3-4.7-17.2-5.7-46.4-1.9-60.9 1.7-6.6 3-12.4 3-12.7 0-1.9-23.8-5.2-36.9-5.2-25.9 0-49.2 9-63.5 24.7-15.5 16.7-23.5 40.9-39.5 121.4-11.7 58.8-17.4 80.7-26.8 104-3 7.8-9.4 25.1-13.9 38.4-8.4 24.4-18.4 46.6-26.1 57.1-2.1 3-6.1 9.7-8.7 15-2.6 5.2-5.7 9.7-6.8 10.1-2.6.9-13.6-27.7-15.7-41.1-1.4-7.7-.9-12.4.7-17 5.2-13.9 29.4-80.2 44-120 25.7-70.6 30.6-95.9 22.3-113.4-4.3-9-52.4-57.2-74.5-74.6-8.7-6.8-26.4-19-39.7-27-45.1-27.7-68.2-37.6-94.5-40.2-12.4-1.2-14.6-.7-23.5 3.7-11 5.6-16.7 12.5-22.3 27.5-4.9 13-7.1 34.4-3.7 34.4 5.7 0 26.4 11.5 35 19.3 4.9 4.5 13.9 15 20.2 23.3 12.4 16.5 23.8 29.2 26.3 29.2.7 0 1.6-1.2 1.6-2.4 0-5.2 11.5-18.3 21-23.8 32-18.1 71.7-7.7 84.5 22.4 14.6 34.3 11.1 92.4-6.6 113.6-4.5 5.2-4.9 5.6-7.1 2.3-4.2-6.1-10.8-25.7-12.4-36.7-1.7-11.5.2-25.6 4.7-34.4 1.6-3.1 2.8-6.3 2.8-7.1 0-2.8-12.4-5.6-25.4-5.6-15.7 0-26.3 4.2-33.7 13-7.1 8.5-8 15.8-3.3 33.2 4.7 17.6 4.9 21.7 1.2 21.7-6.3 0-16-12.2-27.3-33.7-16.5-31.5-35.8-52.7-58.5-63.8-20-9.7-49.9-2.4-62.1 15.1-4.3 6.4-5.2 10.1-6.3 23.8l-.9 16.2-5.9.5c-5 .5-7.3-1.2-19-13.9-23.7-26.4-51-45.2-77.2-52.7-8-2.4-15.7-3-28.5-2.4-15.8.5-18.6 1.4-33.2 8.7-24 12-35.8 22.6-50.3 44.5-23.1 35.8-34.4 46.4-49.4 46.4-24.9 0-64.5-33.4-81.4-69.1-4-8.4-12.4-30.8-18.4-50.1-6.3-19.3-13.4-39.8-16.2-45.9-10.3-23.5-28.2-43-39.1-43-2.4 0-8.9 2.4-13.9 5.6-31.3 17.9-45.8 56.7-49.4 132.2l-1.4 26.8h4.5c8 0 23 11.3 28.5 21.7 11.7 21.2 15.8 46.4 10.3 60.5-1.6 3.7-3.1 6.6-3.8 6.6-.3 0-2.6-3.8-4.9-8.5-5.2-10.8-12.5-16-22.3-16-10.3 0-17.6 6.4-24.7 21.4-14.4 29.2-12.5 60.9 8.5 139.5 14.4 54.6 19 79.2 13.9 79.2-2.6 0-12.2-15-16.7-26.4-5.6-13.9-25.7-91.7-31.5-121.6-14.6-75-6.3-130.6 23.1-151.4 5.2-3.7 7.8-6.8 7.1-8.5-5.9-19.8-5.9-76-.2-105.3 6.1-30.3 18.4-58.3 33.7-75.5 16.9-19.1 48-24.4 67.3-11.5 8 5.2 21.6 32.9 33.4 67.5 12.2 34.8 16.9 45.9 26.6 61.8 15 24.2 43.3 45.9 59.5 45.9 10.1 0 16.9-6.6 29.4-28.2 13.6-23.3 37.9-48 55.7-56.7 31.8-15.5 66.3-15.5 99-.3 8 3.8 19 12.2 35.7 27.5 31.1 28.5 30.4 28.2 32.9 16.2 1.2-5.2 4.2-13.6 6.6-18.6 5.6-10.6 23.1-27.3 32.4-30.6 3.7-1.4 6.6-3.1 6.6-4.3 0-.9-1.4-9-3-17.9-4.3-22.6-2.8-55.5 3-71 5.9-15.7 18.6-28 33.2-32.4 25.9-7.7 58.6 0 97.9 22.4 54.8 31.3 85.9 54.5 119.5 88.5 24.9 25.4 28.9 31.5 35 54.1 5.7 21.1 6.4 21.6 9 8 3.3-17.2 12.9-46.1 19.5-59.3 18.1-36.4 46.1-54.6 82.8-54.5 20 0 33.1 3.3 69.6 17.9l28.9 11.7 13.6-3.1c54.6-12.7 75.8-8.7 148.2 28.2 42.3 21.7 67.7 32.9 74.3 32.9 1.9 0 4-1.7 4.7-3.8 2.6-8.2 24-38.4 35-49.1 14.4-14.1 27.7-21.1 40.9-21.1 13.9 0 19.3 2.4 29.4 13.7 4.4 4.6 6.6 6.7 7.9 7.2zm-81.6 444.3c-.3.2.2 2.3 1.6 4.3 2.6 5.2 6.4 5.2 11.3-.2 3.3-3.8 5.2-12.9 2.6-12.9-.9.1-12.6 6.5-15.5 8.8zm-237-374.5c-16.9-15.8-33.7-16-51.5-.7-17.9 15.8-16.5 34.8 4 52.7 8 7 29.7 20.9 32.9 21.1.7-.2 4.9-5.6 9.2-12.4 9.2-14.4 16.9-32 17-39.3.1-7-3.7-14.1-11.6-21.4zm299.8-29.1c-6.8 0-14.1 1.6-19.1 3.8-7.8 3.3-25.1 19.3-25.1 23 0 2.6 26.8 1.7 37.2-1.4 10.8-3.1 15.1-8 16.9-18.6l1.2-6.8h-11.1z" class="st11" transform="matrix(.1 0 0 -.1 0 485)"/>
  <path d="M2269.8 4392.5c-12-8.9-24.7-24.2-31.8-37.1-3-5.9-5.7-11.3-5.7-12.2 0-.9 16.9-.7 37.6 0 35 1.4 49.4.5 49.4-2.4 0-.7-18.6-10.6-41.6-21.7-31.3-15.5-42.6-21.9-45.8-26.3l-4.2-5.9 6.6 1.4c27.5 5.6 58.1 10.6 63.8 10.6s10.6 2.6 25.7 13.4c35.1 24.9 52.7 46.8 55.1 68.4l.9 8.5-9 2.8c-15.5 5-32.5 7-63.3 7h-29.4l-8.3-6.5zm1828.2 2.2c-2.1-2.8-7-14.1-11-25.4-6.4-18.4-6.8-21.2-4.9-28 5.2-18.1 9.7-44.2 14.1-81.2 2.6-21.7 7.8-56.4 11.3-76.5 20.4-115.2 46.4-319.1 46.4-364.1 0-19 3-42.3 5.6-42.3 3.7 0 10.3 10.3 13.4 20.2 13.4 43.3 9.2 133.4-12.4 271.9-4.7 30.3-11.5 73.2-15.1 95.5-8 50.8-15 107.7-13.4 109.3.7.5 4.7-2.4 9.2-6.6 8.9-8.5 15.7-12.7 17.2-10.4 1.4 2.3-9.6 33.7-24.9 72.2-7.1 18.1-15.5 39.3-18.3 46.8-2.8 7.8-7 16-9.2 18.6l-4.2 4.9-3.8-4.9zm-2004.6-32.3c-215.7-71.8-344.5-118.1-432.8-155.5-20.9-8.9-45.1-19.1-53.9-22.6-34.3-14.1-44.4-22.1-49.9-38.6-4-12.7-3.8-20 .7-28.9 5.6-10.8 16.9-17.7 29.7-17.9 4.9-.2 6.3.7 8 5.7 2.8 8.2 2.6 17.7-.2 20-1.4 1.2-7 3.3-12.4 5-5.6 1.9-10.6 4.2-11.1 5.2-3.8 6.1 37.8 27.3 99.5 50.5 24.4 9.2 61.9 24 83.3 32.9 41.2 17 98.1 37.2 216.2 76.9 39.5 13.2 76.5 26.3 82.3 28.9 5.7 2.4 14.8 5.6 19.8 6.6 13 2.8 111.9 33.9 118.3 37.4 4.2 2.1 5.6 4.3 6.4 11 1.4 7.8-1.2 16.5-4.3 16-.6.1-45.5-14.7-99.6-32.6zM878 4377c-24.9-7.8-108.4-32.2-185.3-54.5-195.2-56.4-253.1-74.1-343.1-104.7-42.3-14.4-44.7-15.5-51.8-23.3-19.8-21.9-22.3-48.4-5.2-57.6 6.8-3.8 23.3-8.2 30.6-8.2 4.3 0 8.2 11 7.1 20.5-.5 6.4-.9 6.6-13.4 9.6-7 1.7-14.1 4.5-15.8 6.3-2.6 2.6-2.1 3.3 6.3 8.7 10.8 6.6 14.8 8.2 100 35.8 95.2 31 138.3 44 274 82.6 135.7 38.8 156 44.7 206.3 61.6l34.4 11.5 4.2 10.1c4 10.3 3.8 16-.5 15.7-1.3 0-22.9-6.5-47.8-14.1zm-532.1-7.7c-20.9-39.5-21.7-42.1-21.7-57.2V4298l7.1-1.2c3.8-.5 7.7-1.6 8.2-2.1 1.7-1.9-24.4-24.4-55-47.5-26.1-19.5-113.8-78.8-136-92-8.4-4.9-17.9-13-17.9-15.3 0-4.3 85.4 40 123.9 64 35.7 22.3 81.1 57.4 99 76.7l4.5 4.7 10.6-5.6c24.7-12.5 36.7-8.5 40.7 13.4 3 16.7-5.6 36.9-29.1 69.4-13.4 18.3-16.2 21.2-21.1 21.2-4.7.2-6.1-1.5-13.2-14.4zm14.1-42.4c2.3-9 1.2-10.3-6.4-6.3-7 3.7-8.9 7.7-5.6 11.5 4.1 5 10.1 2.4 12-5.2zm22.2-8.6c3.3-4 9.6-15.7 8.7-16.7-.3-.3-4.3 1.4-9 3.7-8.9 4.5-11.3 8.9-7.7 13.4 3.2 3.5 4.6 3.5 8-.4zm741.7 41.3c-19.7-8.2-56.4-22.1-81.2-31.3-144.9-53.1-136.9-49.8-140-57.4-1.7-3.8-3.3-10.1-4-13.9l-1.2-7 28.2 9.6c40.9 13.9 104.6 38.3 173.6 65.6 45.4 17.9 60.9 24.9 63.2 28.4 4 6.1 4.2 20 .3 20.5-1.9-.1-19.1-6.5-38.9-14.5zm-927.8 3.3c-6.6-7.7-13.4-25.9-18.3-49.1-1.4-5.7-3-13.7-4.2-17.9l-1.9-7.7-6.6 17c-10.3 25.7-18.4 36.5-33.7 43.7-13.6 6.4-19.1 6.1-21.6-1.6-3.3-10.8-4.3-21.2-2.3-26.4 2.3-6.1 12.9-12 26.6-15 8.7-1.9 9.7-2.8 13.9-10.8 2.4-4.9 6.8-16 9.6-24.7s7.7-18.3 10.4-21.6l5.2-5.9 3.7 7.3c4.9 9.6 5.6 12.2 9 40.7 3.1 26.1 8.9 41.1 17 45.4 4.2 2.3 5.2 2.1 9.2-1.7l4.5-4.2 4.2 5.2c5.7 7.1 4.7 23-1.9 29.9-6.6 8-15 7-22.8-2.6zm1207.8 2.6c-2.3-3.7-17.9-43.7-19.1-48.2-.7-3.7.3-8.9 3.7-16.9 3.1-7.7 6.3-21.1 8.7-38.4 2.1-14.6 11.3-64.5 20.5-110.8 18.3-91.5 45.9-252.1 53.9-313.8 2.6-21.4 5.9-52.4 7.1-69.1l2.3-30.1 5.2 5.6c2.8 3 6.8 10.8 8.9 17 16.5 50.8 6.6 157.1-33.7 362-12.5 63.1-19.1 106.5-16.7 108.9 1.6 1.6 7.8-2.1 17.7-11 6.4-5.6 9.2-7 9.6-5 .9 4.9-25.1 69.8-39.7 99-7.8 15.7-16.2 33.7-18.6 40.2-4.2 10.8-7.5 14.4-9.8 10.6zm2515.4-54.8c-45.9-16.7-119-40.4-207-67.5-143.5-44-205.1-65.1-264.6-90.6-25.9-11-27.5-12.5-29.4-28.5l-1.4-8.7 11.1 4.9c57.4 25.6 132.2 51 302.7 102.8 108.9 33.2 202.3 63.3 206 66.3 3 2.6 5 13.4 3.3 18.4-2.1 7.4-6.4 8.1-20.7 2.9zm-1153.2-17.4c-12-7.3-25.9-30.1-25.9-42.3 0-8.5 4.5-13.9 19.5-23.5 5.7-3.8 11-7.7 11.7-8.7 2.6-4.2-25.6-35-55.7-60.9-11.1-9.6-32.7-27.3-48.2-39-43.7-33.7-81.9-64.5-81.1-65.4 1.9-1.7 16.5 5.9 36.4 19.1 11.5 7.7 29.4 19.5 40 26.3 49.4 32.4 98.1 77.1 122.8 112.6.3.3 4-1.9 8.2-5.2 4.7-3.8 9.2-5.9 11.7-5.6 5.2.7 9 7.8 9 16.9 0 5.7-1.4 8.2-6.6 12.9-3.8 3.1-7.7 5.9-8.5 5.9-4.7 0-7.7 11.5-7.7 30.8 0 17-.5 20.4-4 24.7-4.5 6.1-13.1 6.8-21.6 1.4zm8.5-29.6c3.7-4.5 5.6-13.9 3-13.9-2.4 0-11.7 5.7-14.1 8.5-2.1 2.4-1.9 3.7.9 6.6 4.5 4.9 5.5 4.7 10.2-1.2zm-1988.2 16.9c-3.3-8.5-2.1-21.1 3.8-36.7 7.1-19.5 7.7-30.8.9-35.1-2.4-1.7-8-3.3-12.2-4-6.4-.9-7.8-.3-10.8 4.2s-3 6.4-1.2 18.1c4.2 24.2 1.7 37.6-6.8 37.6-8.9 0-14.6-10.1-18.1-32.4-1.2-6.3-.7-7 3.7-8.2 4.5-1.2 4.7-1.9 4.7-13.9.2-16.9 4.7-26.8 14.1-31.3 12-5.7 29.4-.5 41.4 12l5.6 5.7 6.3-5.6c24-21 51.5-1.9 44.2 30.8-2.1 9.7-27.8 63.7-30.3 63.7-2.8 0-6.1-16.9-4.7-24.9.7-4.3 5-16 9.6-25.9 4.5-9.6 8.4-18.4 8.4-19.3 0-3-10.3-1.7-16.5 2.1-8.5 5-11.3 10.3-19.7 35.3-4.7 14.4-9 23.8-12.5 27.5-6.1 6.6-7.7 6.6-9.9.3zm1686.4-67.2c-8.2-12-14.1-24.5-22.6-47.8-4.2-11.3-12.4-32.4-17.9-46.3-12.5-31-15.8-43.8-18.4-71.3-3.7-33.7 2.4-67.3 14.6-81.6 5.7-6.8 15.5-11.5 23.8-11.5 9.2 0 24.5 8 31.5 16.2 12.7 15.3 24.7 49.2 24.7 69.4v9.4l-4.7-4.3c-2.6-2.4-7.1-8.9-10.3-14.4-7.7-13.2-13.7-17.7-24.4-17.7-10.8 0-19.1 6.1-25.1 18.3-4 8-4.5 11.7-4.5 30.8.2 27 3.1 39.3 23.7 92.6 13.7 36.5 21.7 62.8 19.3 65.1-2.6 2.2-4.5.8-9.7-6.9zm-1780.9-5.7c-30.6-12.4-76.2-27.5-151.2-49.9-119.3-35.8-196.9-63.3-212.6-75.3-7.3-5.7-12.4-15.5-12.4-24.5v-6.6l14.8 6.8c45.9 21.6 101.4 41.1 231.9 81.8 64.9 20.2 121.8 40 130.6 45.6s19 24.2 14.6 26.8c-.9.5-8-1.6-15.7-4.7zm1180.2-60.5c-11.1-17-14.4-23.5-16.7-33.7-.9-4.3.2-5.7 8.9-11.1 25.9-16.5 40-24.5 43.1-24.5 6.6 0 20.9 28.2 23.3 46.3l1.4 9.4-23.1 15.1c-12.7 8.4-23.7 15.3-24.2 15.7-.9 0-6.4-7.7-12.7-17.2zm-1646.6-30.7c-3-3.3-9-12.7-13.4-20.5-4.3-7.8-8.7-15-9.7-15.5-1.2-.7-13.6 6.4-28 15.8-29.9 19.7-26.6 19.8-41.6-2.6-10.4-15.5-17.9-35.1-13.9-36.5 1.4-.3 10.6-7.7 20.4-15.7 10.1-8.4 20.5-16.2 23.5-17.7 12.7-6.6 19.7-2.1 29.1 18.6 7.7 16.2 12 20.9 19 19 2.8-.5 13.2-7 23.3-14.1s19.7-13 21.6-13c5.2 0 30.1 42.1 30.1 51.5 0 3.3-25.9 23.8-37.9 30.1-15.9 7.6-16.6 7.6-22.5.6zm835.6-26.2c-3.1-3.3-9-11.1-13.4-17.4-4.2-6.3-9.4-13.2-12.2-15.5l-4.3-4.2-17.6 14.8c-23.8 19.8-25.7 21.1-30.4 15.1-14.4-17-30.8-47.8-27.3-50.8 20.4-17.7 45.9-35.8 50.5-35.8 3.7 0 10.6 8.7 21.4 26.4 4.9 8.4 9.6 15.1 10.4 15.1.9 0 8.7-5.6 17.6-12.4 18.1-13.7 27.5-19.1 29.1-16.7.5.9 5 7.1 10.1 13.9 9 12.7 18.4 30.6 18.4 35.7 0 3-4 6.6-25.4 23-21 16.3-20.3 16.1-26.9 8.8zm2150.4.8c0-1.2-6.6-9-15-17.7-22.3-23.8-23.8-33.9-6.4-44 4.9-2.8 14.4-10.3 20.9-16.2 9.4-8.9 12.9-11 17.9-11 9.4 0 13.9 4.3 22.3 21.1 4.2 8.2 8.5 15 9.6 15 3.3 0 13.6-5.9 32.7-18.4l18.4-12.7 9.2 10.4c5 5.7 12 15.5 15 21.7 6.1 12.4 9 25.6 6.1 25.6-.9 0-11.3 6.4-23 14.1-11.7 7.8-23.3 14.1-25.7 14.1-3.3 0-7.1-4.2-17.9-19.8l-13.4-19.8-14.1 11.7c-19.6 16.2-36.6 28.4-36.6 25.9zM1619.7 4068c-6.6-9.4-13-18.3-13.9-19.8-1.7-2.4-6.4.2-27.8 14.1-14.1 9.4-26.4 17.2-27.5 17.2-4.2 0-20.2-25.1-27-41.9-3.8-9.4-4-11.1-1.7-13.9 4.9-5.9 52.9-37.1 55.5-35.8 3.3 1.4 13.2 14.8 19.1 26.1 2.4 4.9 5.2 9.4 6.4 10.1 3 1.9 21.2-7.7 35-17.9 6.4-4.9 12.7-9.4 13.6-10.1 1.2-.7 6.8 6.1 12.9 15 15.8 24 19.5 36.4 12.9 44.4-3.3 4.2-28.5 21.2-39.7 26.8l-5.9 3-11.9-17.3zm1984.2 12c-1.6-1.9-8.4-11.7-15-21.7l-12.2-18.4-25.4 18.1c-19.8 14.1-25.7 17.6-27.5 15.7-5.6-5.9-27.5-40-28.4-44.4-1.9-7.3 2.4-13.4 14.8-21.2 5.9-3.8 14.8-10.3 19.5-14.1 9.4-8.2 18.4-9.7 24.4-5 1.7 1.6 7 10.3 11.7 19.3 4.7 9.2 9.4 16.9 10.4 16.9s10.6-5.9 21.6-13c26.6-17.6 26.4-17.6 35.3-7.7 8.7 10.1 20.4 32.5 21.1 40.4.3 5-.9 6.6-14.8 15.7-8.4 5.6-19.1 12.9-23.8 16.5-8.2 5.7-8.9 5.9-11.7 2.9zm-1845.8-82.4c-1.4-1.7-3-6.8-3.3-11.5-.9-7 .2-11 5.9-23 9-19.1 9.2-28.5.7-35.7-4.9-4.2-7.3-4.9-13.4-4.2-8 1.2-14.1 5.6-16.7 12.4-1.4 3.1-.7 6.8 2.3 13.2 5 11.5 5.6 28.9.7 38.8-1.9 4-4 6.6-4.7 5.7-4.2-4.2-9.7-29.7-10.8-47.3-1.7-30.1 4.5-46.6 19.3-51.7 10.4-3.3 17.6-.7 30.6 12l12 11.3 7.1-6.6c9-8.2 18.3-10.3 27.8-6.4 16 6.8 16.5 33.4 1.2 70.6-3.1 7.7-7.7 16.5-9.7 19.7l-4.2 5.7-2.8-5.2c-1.7-3-2.8-10.3-2.8-15.8 0-9.7 1.6-14.4 12.7-40.2l3-7.1-5 1.4c-15.5 3.8-20.2 9.4-29.1 36.5-7.4 20.4-16.4 32.6-20.8 27.4zM491.7 3767.9c-2.1-5-4-12.5-4-16 0-6.3-.5-6.8-5.2-6.8-7.1 0-9.7 3.1-9.7 12.4-.2 4.2-1.2 9.4-2.4 12-2.4 4.3-2.4 4.3-11-4.9-4.5-4.9-11.5-13-15.5-17.9s-10.8-10.8-15.1-12.9c-7-3.8-9.4-4-24.9-2.6-28.9 2.6-32.9 2.1-48.4-5.2-17-8.2-28.9-16.7-60.2-43.7-26.8-23.1-54.5-42.1-78.8-54.8-15.3-8-28.9-18.1-28.9-21.9 0-1.7 27.3 5.9 47.8 13.2 20.4 7.7 37.6 17.9 58.5 35.5 40.7 34.6 53.6 43.3 72.2 48.5 9.2 2.8 13.2 2.8 25.1 1.2 28.9-4.3 37.1-2.4 53.2 12 5.2 4.7 10.6 8.7 11.7 8.7.9 0 5-2.1 8.9-4.7 19.3-13.2 41.9 4 41.9 31.5 0 10.8-5.6 26.1-9.2 26.1-1.3-.5-3.8-4.6-6-9.7zm3567-34.3c-20.2-30.1-26.4-50.8-21.2-70.1 5.7-20.5 27.7-21.1 39.1-.5 4.3 7.3 6.1 23.5 2.6 23.5-1.2 0-4.9-3.1-8.5-7-7.8-8.4-11.1-7.7-16.9 3.3-4.5 8.7-3 18.3 5.9 33.7 11.3 20.2 13.7 26.4 13.2 32.2-.5 5-1.7 3.7-14.2-15.1zm-2793.8 10.3c-4.3-3.8-15-16.5-23.5-28.4-8.5-11.8-19-24.2-23.1-27.5-11-8-61.4-33.2-92.4-45.9-14.4-6.1-53.6-21.4-86.8-34.3-43.3-16.9-62.1-24.9-65.8-28.5l-1.2-2.8 4 .3c3.1.5 9.7 2.4 17.2 5.6 9.2 3.7 23.7 6.8 46.6 10.3 40.4 6.1 59.5 11.3 80.7 22.4 8.9 4.7 26.6 13 39.7 18.3 46.3 19.3 68.4 32.9 81.1 49.9l6.6 8.7 5.7-3.8c19.3-12.5 31.5-14.6 39-6.6 9.7 10.6 6.1 48.7-6.3 62.6-6.7 8.2-11.2 8.2-21.5-.3zm8.2-25.4c1.9-2.1 2.8-4.3 2.3-4.9-1.2-1.2-14.6 6.3-14.6 8 0 2.5 9.4.2 12.3-3.1zm2562.7 22.6c-5.2-3-12-8.4-14.6-11.7-6.8-9-14.1-25.7-13-30.1.5-1.9 5.6-7.8 11-12.7l9.7-9-8-9c-16.2-18.3-24.4-43.8-16.9-52.5 9.6-10.8 34.3-14.1 58.3-8 35.3 8.9 71 37.6 71 57.1 0 3.7-1.6 2.8-12.7-5.7-35.8-27-80.7-35.8-98.8-19.5-3.1 3-3.3 3.8-.9 8.5 4 7.8 15.5 16.9 33.2 26.3 23.8 12.7 35.7 25.1 35.7 36.9v4.7l-13.6-6.4c-17.6-8.4-28.5-9.7-37.2-5.2-3.7 1.9-7.8 5.2-9.2 7.7-2.4 4-2.3 4.3 3.8 8.2 8.5 5 10.4 4.7 13.6-2.8 1.6-3.7 3.7-6.6 4.5-6.6 1.2 0 4.5 3 7.8 6.6 4.3 4.9 5.9 8.7 5.9 13.7.2 16-11.7 19.8-29.6 9.5zm-450.7-29.9c-12.5-18.6-18.4-29.9-18.4-34.4 0-3.8 48.5-35.7 54.3-35.7 2.3 0 26.6 38.3 29.2 45.6 1.7 4.7 1.4 6.1-2.4 9.2-3.7 3-46.4 29.2-50.8 31.1-.8.2-6.2-6.9-11.9-15.8zm-2886.8-19.3c-12.2-13.4-26.3-40.9-29.2-56.5-3.3-17.7 2.1-32 14.4-37.2 6.1-2.4 7.7-2.4 15 .3 11.1 4.2 16.5 12.2 17.4 25.9 1.2 14.1-.9 14.4-11.3 1.7-4.5-5.6-8.4-4.9-15 1.6-9.6 9.6-7.7 19.7 8.7 42.8 4.3 6.3 9.4 13.9 11.1 17.4 3.1 6.6 4.2 15.7 1.4 15.7-1.2-.2-6.6-5.4-12.5-11.7zm2402.8 3.1c-17.4-4.7-29.4-16.2-32.7-31-1.4-6.1-1.2-6.4 3-5 2.4.7 7.8 3 11.7 5 4.2 2.1 13.2 4 22.1 4.7 15.7 1.2 19.5-.5 10.4-4.7-7.8-3.7-23.7-19.5-27.8-27.8-5.6-10.4-9-24.5-9-35.3v-8.9l12.5-6.1c21.9-10.8 49.8-9.4 76.2 4 23.3 11.7 44.7 32.4 52.2 49.8 1.6 3.8 2.6 7 2.3 7s-8-4.7-16.7-10.6c-31.8-21.4-63.5-32.9-83-30.1-8.5 1.4-26.4 9.2-26.4 12 0 4.5 10.6 15.5 20.5 21.2 33.2 19 36.5 22.4 35.7 40.7l-.5 11.1-10.4 3.3c-12.3 3.9-27.7 4.2-40.1.7zM1771 3679.4c-5.7-7-13-15.8-16.5-19.8l-6.4-7-6.8 3.3c-4 2.1-11.1 8.2-16.5 13.4-5 5.6-12.9 12.4-16.9 15.3l-7.3 5.6-14.4-15.3c-28-30.1-28-31.8-.3-55 10.8-9 22.6-17.9 26.3-19.7 6.3-2.8 6.8-2.8 11.3.5 2.8 2.1 7.8 9.2 11.1 15.8 6.3 12.2 13.7 20.5 18.3 20.5 1.4 0 12.5-7.7 24.5-17 12.4-9.2 23.5-17 24.7-17 1.6 0 3 1.7 3.8 3.8.5 2.1 6.3 9.7 12.5 17.4 13.4 16.7 17 25.6 12.4 32.5-1.7 2.6-8 8.2-13.7 12.4-6.1 4.2-15.1 11-20.4 15.1-5 4.3-10.8 7.8-12.5 7.8-1.5.1-7.6-5.7-13.2-12.6zm1059.1 4c-.9-1.9-3.3-8.5-5-14.4-2.3-8.2-4-11-6.4-11-4.7 0-7 3.3-8.5 12.4-2.4 14.6-2.6 14.6-8.4 11.1-2.8-1.7-9.2-8.5-14.1-15.1-9.7-13.2-18.3-19.7-26.1-19.7-2.8 0-9.6 2.1-15.1 4.7-10.1 4.5-10.6 4.5-21.6 1.7-17.7-4.5-47.5-20-68-35.8-24.2-18.3-48.4-34.4-68.9-45.6-14.8-8.2-15.7-8.9-11.7-10.8 6.8-3 29.4 1.7 44.5 9.2 7.3 3.7 24.2 14.6 37.4 24.5 30.4 22.3 44.2 29.2 60.7 30.6 10.1.9 14.1.3 22.1-3.1 14.4-6.1 23-4.3 39.7 8.4l13.4 10.3 4.3-4.5c9.4-9.4 20.4-8.2 32.4 3.7 13 13 15.3 31 5.7 42.3-4.1 4.7-4.5 4.7-6.4 1.1zm-726.6-27c-25.7-25.1-25.9-30.6-1.2-49.9 36.2-28.2 40.2-28.5 52.7-4.9 7 13.2 12.7 17.7 19.1 15.7 2.4-.5 11-8 19.1-16 15.3-15.5 21.2-18.1 28.2-12.7 4.9 4 22.6 30.3 25.9 38.3l2.8 7.3-12.2 11.1c-15.3 13.9-30.8 26.1-33.4 26.1-2.4 0-16.7-14.6-26.3-26.8-3.8-5-7.3-9-8.2-9-.5 0-11.7 8.5-24.7 19-13 10.4-24 18.6-24.5 18.4-.5-.2-8.3-7.7-17.3-16.6z" class="st10" transform="matrix(.1 0 0 -.1 0 485)"/>
</svg>
