<svg xmlns="http://www.w3.org/2000/svg" viewBox="0 0 1600 1600">
  <path style="opacity:1" fill="#0a0a0a" d="M850.5 215.5c4.443 1.301 9.109 1.968 14 2 3.228.914 6.561 1.247 10 1 4.769 1.389 9.769 2.056 15 2 14.219 3.111 28.552 6.111 43 9 2.719 1.413 5.719 2.08 9 2 5.808 1.955 11.808 3.621 18 5 2.015 1.424 4.348 2.09 7 2 142.6 46.05 253.44 132.717 332.5 260 28.16 47.297 48.99 97.631 62.5 151 .22 2.567.89 4.901 2 7 1.79 6.971 3.46 13.971 5 21-.28 3.329.38 6.329 2 9 1.44 8.316 2.77 16.65 4 25-.06 4.576.6 8.909 2 13 5.3 47.678 5.3 95.344 0 143-1.31 5.116-1.97 10.449-2 16-3.35 18.721-7.01 37.387-11 56-1.42 2.015-2.09 4.348-2 7-4.1 14.298-8.43 28.632-13 43-1.37 2.436-2.37 5.103-3 8-58.85 154.19-163.19 265.85-313 335-2.47.25-4.47 1.25-6 3-21.44 8.56-43.104 16.23-65 23-3.662.22-6.995 1.22-10 3-5.516 1.05-10.849 2.38-16 4-2.728-.33-5.062.34-7 2-3.622-.18-6.956.49-10 2-6.608.6-12.942 1.93-19 4-5.642.85-11.309 1.52-17 2-2.995-.21-5.662.46-8 2h-3c-19.305 1.78-38.638 3.11-58 4-21.339-.04-42.672-.37-64-1h-6c-5.098-1.46-10.431-2.12-16-2-13.275-1.54-26.608-3.54-40-6-2.099-1.11-4.433-1.78-7-2-2-.33-4-.67-6-1-2.338-1.54-5.005-2.21-8-2-16.385-3.34-32.385-7.67-48-13-2.015-1.42-4.348-2.09-7-2-94.446-32.21-175.779-84.54-244-157-.919-2.59-2.586-4.59-5-6-66.896-74.21-111.896-160.21-135-258 .09-2.652-.576-4.985-2-7-1.206-7.365-2.54-14.698-4-22-.456-5.561-1.456-10.894-3-16-2.927-20.576-4.927-41.243-6-62-.074-25.007.259-50.007 1-75 1.192-12.202 2.525-24.535 4-37 1.97-6.407 3.304-13.074 4-20 1.205-7.358 2.538-14.692 4-22 1.663-1.938 2.329-4.272 2-7 32.205-130.71 100.539-238.543 205-323.5 64.078-50.048 135.411-86.048 214-108 13.789-2.924 27.456-5.757 41-8.5 2.687.164 5.354-.003 8-.5.916-.278 1.582-.778 2-1.5 9.982-1.393 19.982-2.726 30-4 5.551-.027 10.884-.694 16-2 35.667-2.656 71.334-2.656 107 0Z"/>
  <path style="opacity:1" fill="#a1a1a1" d="M850.5 215.5c4.934-.271 9.6.396 14 2-4.891-.032-9.557-.699-14-2Z"/>
  <path style="opacity:1" fill="#737373" d="M743.5 215.5c-5.116 1.306-10.449 1.973-16 2 5.083-1.578 10.416-2.245 16-2Z"/>
  <path style="opacity:1" fill="#a9a9a9" d="M874.5 218.5c5.25-.198 10.25.469 15 2-5.231.056-10.231-.611-15-2Z"/>
  <path style="opacity:1" fill="#6a6a6a" d="M697.5 221.5c-.418.722-1.084 1.222-2 1.5-2.646.497-5.313.664-8 .5 3.127-1.081 6.46-1.747 10-2Z"/>
  <path style="opacity:1" fill="#fbfbfb" d="M819.5 225.5c9.779 1.707 19.779 2.373 30 2h6c-.149 1.052.017 2.052.5 3 1.738-.627 3.571-.96 5.5-1 7.342.667 14.675 1.334 22 2h4c3.71 1.636 7.71 2.302 12 2 22.395 4.514 44.728 9.847 67 16 2.198 1.897 4.864 2.897 8 3 141.83 47.647 250.33 136.314 325.5 266 20.03 36.265 35.87 74.265 47.5 114-.09 2.652.58 4.985 2 7 2.17 3.684 3.17 7.684 3 12-.24 2.398.43 4.398 2 6 1.96 6.518 3.29 13.184 4 20 1.38 10.239 3.38 20.239 6 30v1c-.01 6.624.99 12.957 3 19 4.42 37.238 5.08 74.571 2 112-1.31 6.459-1.98 13.126-2 20-.82 13.445-2.48 26.779-5 40-1.66 1.938-2.33 4.272-2 7-.87 7.588-2.54 14.922-5 22-.81.969-1.81 1.802-3 2.5.97 3.435.97 6.935 0 10.5-44.54 158.71-138.87 278.21-283 358.5-51.74 27.11-106.41 46.28-164 57.5-3.989-.38-7.655.28-11 2-6.676 1-13.343 2-20 3-5.25-.2-10.25.47-15 2h-1c-29.971 1.65-59.971 2.32-90 2h-3c-10.447-1.73-21.113-2.73-32-3-29.575-3.43-58.575-9.09-87-17-2.015-1.42-4.348-2.09-7-2-147.644-45.12-260.478-134.45-338.5-268-22.15-39.95-39.317-81.948-51.5-126-.554-3.246-1.554-6.246-3-9-1.333-5.666-2.667-11.333-4-17 .178-3.622-.489-6.956-2-10-2.359-11.143-4.359-22.477-6-34-.316-5.344-.816-10.678-1.5-16-.383-.556-.883-.889-1.5-1v-6c-.754-10.501-1.754-20.834-3-31-.167-21.336 0-42.669.5-64 .26-14.941 1.76-29.607 4.5-44 1.531-4.75 2.198-9.75 2-15v-1c1.157-2.773 1.824-5.773 2-9 .344-4.394 1.01-8.728 2-13 1.745-3.7 2.745-7.7 3-12 28.943-122.454 90.943-224.954 186-307.5 42.506-35.816 89.172-65.15 140-88 10.039-4.734 20.372-8.567 31-11.5 4.436-.914 8.436-2.581 12-5 17.013-5.922 34.347-10.922 52-15 2.398.241 4.398-.426 6-2h2c4.651-.127 8.985-1.127 13-3 2.217-.869 4.55-1.202 7-1 8.041.043 15.708-1.29 23-4 7.261-.114 14.261-1.114 21-3 27.91-2.589 55.91-3.589 84-3Z"/>
  <path style="opacity:1" fill="#c5c5c5" d="M819.5 225.5c10.181.231 20.181.897 30 2-10.221.373-20.221-.293-30-2Z"/>
  <path style="opacity:1" fill="#bbb" d="M855.5 227.5c9.541.898 18.874 2.231 28 4-7.325-.666-14.658-1.333-22-2-1.929.04-3.762.373-5.5 1-.483-.948-.649-1.948-.5-3Z"/>
  <path style="opacity:1" fill="#888" d="M932.5 229.5c3.281-.08 6.281.587 9 2-3.281.08-6.281-.587-9-2Z"/>
  <path style="opacity:1" fill="#a8a8a8" d="M735.5 228.5c-6.739 1.886-13.739 2.886-21 3 6.751-1.822 13.751-2.822 21-3Z"/>
  <path style="opacity:1" fill="#797979" d="M887.5 231.5c4.233.039 8.233.705 12 2-4.29.302-8.29-.364-12-2Z"/>
  <path style="opacity:1" fill="#c9c9c9" d="M714.5 231.5c-7.292 2.71-14.959 4.043-23 4 7.32-2.594 14.986-3.928 23-4Z"/>
  <path style="opacity:1" fill="#8f8f8f" d="M959.5 236.5c2.652-.09 4.985.576 7 2-2.652.09-4.985-.576-7-2Z"/>
  <path style="opacity:1" fill="#929292" d="M684.5 236.5c-4.015 1.873-8.349 2.873-13 3 4.075-1.618 8.408-2.618 13-3Z"/>
  <path style="opacity:1" fill="#909090" d="M669.5 239.5c-1.602 1.574-3.602 2.241-6 2 1.602-1.574 3.602-2.241 6-2Z"/>
  <path style="opacity:1" fill="#969696" d="M966.5 249.5c2.986.403 5.652 1.403 8 3-3.136-.103-5.802-1.103-8-3Z"/>
  <path style="opacity:1" fill="#a8a8a8" d="M611.5 256.5c-3.564 2.419-7.564 4.086-12 5 3.564-2.419 7.564-4.086 12-5Z"/>
  <path style="opacity:1" fill="#060606" d="M819.5 264.5c9.819 1.103 19.819 1.769 30 2h3c5.116 1.306 10.449 1.973 16 2 5.911 1.393 11.911 2.393 18 3 5.459 1.451 11.126 2.451 17 3 154.98 34.565 273.82 119.565 356.5 255 41.39 72.83 64.89 151.164 70.5 235 1.32 22.001 1.32 44.001 0 66v9c-1.68 5.068-2.34 10.402-2 16-2.03 12.261-3.7 24.594-5 37-1.74 4.042-2.74 8.376-3 13-1.39 7.746-3.06 15.412-5 23-1.27 2.405-1.93 5.072-2 8-46.57 160.41-145.24 276.57-296 348.5-31.202 13.34-63.202 24.18-96 32.5-3.374.17-6.707.67-10 1.5-.556.38-.889.88-1 1.5-2.361.17-4.694.51-7 1-11.542 1.55-22.875 3.55-34 6-3.542-.31-6.875.02-10 1-11.837.74-23.504 1.74-35 3-20.349.23-40.683-.1-61-1-13.057-.34-26.057-1.34-39-3-5.07-1.73-10.403-2.73-16-3-9.077-1.35-18.077-3.01-27-5-3.354-1.76-7.021-2.76-11-3-124.354-31.59-225.187-98.59-302.5-201-34.465-47.6-60.965-99.26-79.5-155-.854-6.005-2.521-11.672-5-17-.065-2.928-.732-5.595-2-8 .09-2.652-.576-4.985-2-7-2.001-10.34-4.001-20.673-6-31 .241-2.398-.426-4.398-2-6v-3c-.308-3.86-.975-7.526-2-11v-3c-1.054-10.506-2.387-20.839-4-31-1.696-21.268-2.362-42.602-2-64 .993-8.826 1.66-17.826 2-27-.31-3.213.023-6.213 1-9 1.379-6.117 2.046-12.45 2-19 .839-6.051 1.839-12.051 3-18 2.007-5.354 3.007-11.021 3-17 1.977-8.58 3.977-17.247 6-26 1.601-3.05 2.601-6.384 3-10 46.23-154.748 141.897-267.914 287-339.5 16.883-7.402 33.883-14.402 51-21 6.064-1.744 12.064-3.578 18-5.5 3.979-.242 7.646-1.242 11-3 6.187-1.798 12.52-3.465 19-5 2.652.09 4.985-.576 7-2 5.611-1.121 11.277-2.121 17-3 3.227-.176 6.227-.843 9-2 1.915.284 3.581-.049 5-1 5.036-.088 10.036-.588 15-1.5.916-.278 1.582-.778 2-1.5h3c8.197-.528 16.197-1.528 24-3 14.315-.853 28.649-1.519 43-2 8.507 0 16.84.334 25 1Z"/>
  <path style="opacity:1" fill="#7d7d7d" d="M819.5 264.5c10.217-.325 20.217.342 30 2-10.181-.231-20.181-.897-30-2Z"/>
  <path style="opacity:1" fill="#a2a2a2" d="M751.5 265.5c-7.803 1.472-15.803 2.472-24 3 .418-.722 1.084-1.222 2-1.5 7.323-.721 14.656-1.221 22-1.5Z"/>
  <path style="opacity:1" fill="#a5a5a5" d="M852.5 266.5c5.584-.245 10.917.422 16 2-5.551-.027-10.884-.694-16-2Z"/>
  <path style="opacity:1" fill="#505050" d="M724.5 268.5c-.418.722-1.084 1.222-2 1.5-4.964.912-9.964 1.412-15 1.5 5.484-1.304 11.151-2.304 17-3Z"/>
  <path style="opacity:1" fill="#656565" d="M702.5 272.5c-2.773 1.157-5.773 1.824-9 2 2.623-1.765 5.623-2.432 9-2Z"/>
  <path style="opacity:1" fill="#a3a3a3" d="M886.5 271.5c6.003-.167 11.67.833 17 3-5.874-.549-11.541-1.549-17-3Z"/>
  <path style="opacity:1" fill="#636363" d="M676.5 277.5c-2.015 1.424-4.348 2.09-7 2 2.015-1.424 4.348-2.09 7-2Z"/>
  <path style="opacity:1" fill="#868686" d="M650.5 284.5c-3.354 1.758-7.021 2.758-11 3 3.354-1.758 7.021-2.758 11-3Z"/>
  <path style="opacity:1" fill="#919191" d="M827.5 293.5c-26.714-.473-53.381.194-80 2 .418-.722 1.084-1.222 2-1.5 26.15-1.704 52.15-1.87 78-.5Z"/>
  <path style="opacity:1" fill="#f9f9f9" d="M827.5 293.5h3c8.817 1.115 17.817 1.782 27 2 10.883 1.023 21.55 2.69 32 5 3.127 1.081 6.46 1.747 10 2 2.361.174 4.694.507 7 1 1.938 1.663 4.272 2.329 7 2 10.599 2.865 21.265 5.531 32 8 1.938 1.663 4.272 2.329 7 2 117.58 39.052 210.08 110.718 277.5 215 20.02 33.708 36.52 69.042 49.5 106-.09 2.652.58 4.985 2 7 1.14 2.868 2.14 5.868 3 9-.33 2.728.34 5.062 2 7 1.27 2.405 1.93 5.072 2 8 .73 4.938 2.06 9.605 4 14v1c.27 2.619-.06 5.119-1 7.5.67.333 1.33.667 2 1-36.33.5-72.67.667-109 .5-2.48-6.91-4.81-13.91-7-21-.05-2.846-1.05-5.18-3-7-31.14-82.662-83.14-149.162-156-199.5-23.984-14.991-48.984-27.824-75-38.5-3.92-2.328-8.254-3.661-13-4-5.527-1.376-10.86-3.043-16-5-2.015-1.424-4.348-2.09-7-2-8.333-2-16.667-4-25-6-2.338-1.54-5.005-2.206-8-2-21.374-2.094-42.707-4.428-64-7-.833 16.657-1.333 33.323-1.5 50-3.825 7.665-9.659 9.832-17.5 6.5-1.5-2.167-3-4.333-4.5-6.5-.5-16.663-.667-33.33-.5-50-10.341.565-20.674 1.231-31 2-8.045.339-16.045 1.172-24 2.5-.556.383-.889.883-1 1.5-36.78 5.872-71.78 17.039-105 33.5-36.057 18.355-69.39 40.688-100 67-37.856 36.565-67.689 78.732-89.5 126.5-7.87 17.59-15.37 35.424-22.5 53.5-35.665.5-71.332.667-107 .5.049-3.578.715-6.911 2-10 1.424-2.015 2.09-4.348 2-7 2.741-12.971 6.408-25.637 11-38 2.334-1.676 3.334-4.009 3-7 44.506-117.335 121.173-207.168 230-269.5 32.15-17.441 65.816-31.274 101-41.5 2.928-.065 5.595-.732 8-2 4.415-1.94 9.082-3.273 14-4 4.337-.084 8.337-1.084 12-3 3.127-1.081 6.46-1.747 10-2 3.281.08 6.281-.587 9-2 6.003.167 11.67-.833 17-3 7.283-1.16 14.617-1.827 22-2 26.619-1.806 53.286-2.473 80-2Z"/>
  <path style="opacity:1" fill="#5c5c5c" d="M830.5 293.5c9.227-.377 18.227.289 27 2-9.183-.218-18.183-.885-27-2Z"/>
  <path style="opacity:1" fill="#9a9a9a" d="M725.5 297.5c-5.33 2.167-10.997 3.167-17 3 5.459-1.451 11.126-2.451 17-3Z"/>
  <path style="opacity:1" fill="#848484" d="M889.5 300.5c3.66-.341 6.993.325 10 2-3.54-.253-6.873-.919-10-2Z"/>
  <path style="opacity:1" fill="#8a8a8a" d="M708.5 300.5c-2.719 1.413-5.719 2.08-9 2 2.671-1.618 5.671-2.285 9-2Z"/>
  <path style="opacity:1" fill="#8f8f8f" d="M906.5 303.5c2.652-.09 4.985.576 7 2-2.728.329-5.062-.337-7-2Z"/>
  <path style="opacity:1" fill="#9c9c9c" d="M689.5 304.5c-3.663 1.916-7.663 2.916-12 3 3.7-1.745 7.7-2.745 12-3Z"/>
  <path style="opacity:1" fill="#999" d="M663.5 311.5c-2.405 1.268-5.072 1.935-8 2 2.338-1.54 5.005-2.206 8-2Z"/>
  <path style="opacity:1" fill="#7b7b7b" d="M945.5 313.5c2.567.221 4.901.888 7 2-2.728.329-5.062-.337-7-2Z"/>
  <path style="opacity:1" fill="#050505" d="M799.5 316.5c1.333 5.333 1.333 10.667 0 16-.333-1-1-1.667-2-2-5.475-.989-11.142-1.322-17-1 .267 15.174.933 30.174 2 45 .543.06.876.393 1 1-3.563 1.205-7.23 1.872-11 2-2.14-.056-3.806-.723-5-2 .617-.111 1.117-.444 1.5-1 .248-7.847-.252-15.514-1.5-23v-20c-6.522-.323-12.855.01-19 1-.333.667-.667 1.333-1 2-1.598-2.357-2.598-5.023-3-8v-6c17.175.33 34.175-.003 51-1 1.73-.526 3.064-1.526 4-3Z"/>
  <path style="opacity:1" fill="#a7a7a7" d="M799.5 316.5c.06-.543.393-.876 1-1 1.333 6 1.333 12 0 18-.607-.124-.94-.457-1-1 1.333-5.333 1.333-10.667 0-16Z"/>
  <path style="opacity:1" fill="#b4b4b4" d="M828.5 319.5c-6.854-.324-13.521.009-20 1-.543-.06-.876-.393-1-1 7.156-1.319 14.156-1.319 21 0Z"/>
  <path style="opacity:1" fill="#8c8c8c" d="M795.5 319.5c-16.825.997-33.825 1.33-51 1v4c-.951-1.419-1.284-3.085-1-5h52Z"/>
  <path style="opacity:1" fill="#4b4b4b" d="M828.5 319.5c2.424-.308 4.757.026 7 1-.124.607-.457.94-1 1-7.667-1.333-15.333-1.333-23 0-1.291.237-2.291-.096-3-1 6.479-.991 13.146-1.324 20-1Z"/>
  <path style="opacity:1" fill="#0a0a0a" d="M834.5 321.5c-2.414.906-3.247 2.572-2.5 5 2.306 3.966 4.972 7.632 8 11 4.033-2.533 7.2-5.866 9.5-10 .951-1.419 1.284-3.085 1-5 6.329.4 12.662.733 19 1 1.052-.149 2.052.017 3 .5-1.333.667-2.667 1.333-4 2-8.139 8.807-16.305 17.641-24.5 26.5-.5 7.993-.666 15.993-.5 24-4.667 1.333-9.333 1.333-14 0 .722-.418 1.222-1.084 1.5-2 .667-7.667.667-15.333 0-23-5.004-8.676-10.004-17.343-15-26-1.397-1.57-2.897-2.904-4.5-4 7.667-1.333 15.333-1.333 23 0Z"/>
  <path style="opacity:1" fill="#b2b2b2" d="M869.5 323.5c-6.338-.267-12.671-.6-19-1 .284 1.915-.049 3.581-1 5 .239-1.967-.094-3.801-1-5.5 5.667-.667 11.333-.667 17 0 1.558.21 2.891.71 4 1.5Z"/>
  <path style="opacity:1" fill="#0a0a0a" d="M733.5 333.5c-.432 3.377.235 6.377 2 9 1.08 6.974 2.08 13.974 3 21-.07 3.925.597 7.591 2 11 .359 1.871 1.359 3.371 3 4.5-2.838 1.255-5.838 2.089-9 2.5-2.914.305-5.581.305-8 0 1.196-5.723.862-11.39-1-17-1.774-8.978-3.441-17.978-5-27 .241-2.398-.426-4.398-2-6-.432-1.21-1.099-2.21-2-3-.111-.617-.444-1.117-1-1.5 1.882-.198 3.548-.698 5-1.5 5.004-.835 10.004-1.335 15-1.5-1.727 2.904-2.393 6.07-2 9.5Z"/>
  <path style="opacity:1" fill="#5f5f5f" d="M935.5 325.5c2.31-.664 4.81-.997 7.5-1 3.805-.196 7.305.47 10.5 2-5.964-.807-11.964-1.14-18-1Z"/>
  <path style="opacity:1" fill="#838383" d="M720.5 325.5c-1.452.802-3.118 1.302-5 1.5.556.383.889.883 1 1.5-1.548-.321-2.215-1.321-2-3h6Z"/>
  <path style="opacity:1" fill="#0a0a0a" d="M935.5 325.5c6.036-.14 12.036.193 18 1 20.968 7.255 29.635 21.922 26 44-6.511 18.671-19.677 28.338-39.5 29-22.113-2.113-34.28-14.28-36.5-36.5 1.785-19.96 12.452-32.46 32-37.5Z"/>
  <path style="opacity:1" fill="#767676" d="M699.5 333.5c-5.664.97-11.497.97-17.5 0-5.242.249-10.408.916-15.5 2 1.181-1.567 2.847-2.401 5-2.5 9.342-.463 18.675-.296 28 .5Z"/>
  <path style="opacity:1" fill="#0b0b0b" d="M699.5 333.5c.597.235.93.735 1 1.5-.476 4.422-1.476 8.589-3 12.5-1.183-1.004-2.516-1.838-4-2.5-8.744-.91-17.411-.576-26 1-5.251 3.462-6.251 7.796-3 13 5.782.688 11.449.188 17-1.5 4.63-.729 9.297-1.063 14-1 13.758 3.01 18.258 11.344 13.5 25-2.592 3.262-5.759 5.762-9.5 7.5-6.398 2.448-13.064 3.948-20 4.5-5.231-.056-10.231.611-15 2-1.305-1.897-1.971-4.231-2-7 .003-2.525.337-4.859 1-7 .809.969 1.809 1.802 3 2.5 8.474.95 16.807.283 25-2 4.958-1.938 6.791-5.438 5.5-10.5-1.302-.585-2.469-1.251-3.5-2-1.464-.66-3.131-.993-5-1-2.986-.118-5.652.548-8 2-6.583 1.614-13.249 2.114-20 1.5-14.627-11.539-14.627-23.206 0-35 1.936-.813 3.936-1.313 6-1.5 5.092-1.084 10.258-1.751 15.5-2 6.003.97 11.836.97 17.5 0Z"/>
  <path style="opacity:1" fill="#7e7e7e" d="M744.5 326.5c.402 2.977 1.402 5.643 3 8-.709.904-1.709 1.237-3 1v-9Z"/>
  <path style="opacity:1" fill="#969696" d="M718.5 331.5c1.574 1.602 2.241 3.602 2 6-1.574-1.602-2.241-3.602-2-6Z"/>
  <path style="opacity:1" fill="#727272" d="M733.5 333.5c1.157 2.773 1.824 5.773 2 9-1.765-2.623-2.432-5.623-2-9Z"/>
  <path style="opacity:1" fill="#6d6d6d" d="M797.5 330.5h-16c.72 14.655 1.053 29.322 1 44-1.067-14.826-1.733-29.826-2-45 5.858-.322 11.525.011 17 1Z"/>
  <path style="opacity:1" fill="#919191" d="M949.5 338.5c-4.369-.033-8.702.3-13 1 2.348-1.452 5.014-2.118 8-2 1.869.007 3.536.34 5 1Z"/>
  <path style="opacity:1" fill="#f9f9f9" d="M949.5 338.5c12.677 4.683 17.511 13.683 14.5 27-5.319 18.242-16.819 24.076-34.5 17.5-4.346-3.527-7.012-8.027-8-13.5-.087-5.037.246-10.037 1-15 2.606-6.939 7.272-11.939 14-15 4.298-.7 8.631-1.033 13-1Z"/>
  <path style="opacity:1" fill="#676767" d="M699.5 333.5c.06-.543.393-.876 1-1 .333.833.667 1.667 1 2.5-.393 4.678-1.393 9.178-3 13.5-.607-.124-.94-.457-1-1 1.524-3.911 2.524-8.078 3-12.5-.07-.765-.403-1.265-1-1.5Z"/>
  <path style="opacity:1" fill="#ababab" d="M748.5 332.5c6.145-.99 12.478-1.323 19-1v20c-.839-6.175-1.506-12.508-2-19h-17Z"/>
  <path style="opacity:1" fill="#0d0d0d" d="M620.5 352.5c14.87.372 22.036 8.038 21.5 23-1.923 3.758-4.423 7.091-7.5 10 7.449 4.94 14.782 10.106 22 15.5-4.624 2.95-9.624 5.45-15 7.5-.634-2.067-1.634-3.9-3-5.5-5.952-3.892-12.119-7.392-18.5-10.5-4.267.652-7.767 2.486-10.5 5.5 3.546 4.923 6.712 10.09 9.5 15.5 1.307 1.272 2.807 2.272 4.5 3-5.607 2.137-10.94 4.804-16 8-.728-2.712-1.561-5.379-2.5-8-6.667-12-13.333-24-20-36-2.282-3.457-5.448-5.457-9.5-6 15.219-7.11 30.219-14.444 45-22Z"/>
  <path style="opacity:1" fill="gray" d="M695.5 356.5c-4.703-.063-9.37.271-14 1 2.307-1.547 4.973-2.213 8-2 2.196.005 4.196.338 6 1Z"/>
  <path style="opacity:1" fill="#0b0b0b" d="M992.5 415.5c-.472 2.031-1.472 3.698-3 5-4.156-2.579-8.489-4.913-13-7 1.26-.882 2.426-1.882 3.5-3 6.76-13.191 13.76-26.191 21-39 1.15-2.893 1.65-5.893 1.5-9 14.15 5.777 27.81 12.611 41 20.5 3.85 1.669 7.85 2.836 12 3.5-3.33 4.333-6.67 8.667-10 13-.74-2.247-2.08-4.08-4-5.5-8.91-3.929-17.58-8.262-26-13-3.56-.123-5.73 1.71-6.5 5.5-.67 1-.67 2 0 3 6.73 5.285 14.23 8.785 22.5 10.5-3.14 4.641-6.47 9.141-10 13.5-1.13-2.963-3.13-5.129-6-6.5-4.33-1.829-8.33-4.162-12-7-1.29-.49-2.63-.657-4-.5-2.284 5.307-4.618 10.64-7 16Z"/>
  <path style="opacity:1" fill="#acacac" d="M922.5 354.5c-.754 4.963-1.087 9.963-1 15-.662-1.804-.995-3.804-1-6-.157-3.314.509-6.314 2-9Z"/>
  <path style="opacity:1" fill="#f1f1f1" d="M618.5 365.5c10.362-.042 12.362 3.958 6 12-6.934 2.468-13.601 5.468-20 9-3.076-3.188-4.91-6.855-5.5-11 6.514-3.506 13.014-6.839 19.5-10Z"/>
  <path style="opacity:1" fill="#5f5f5f" d="M693.5 369.5c-4.369-.033-8.702.3-13 1 2.348-1.452 5.014-2.118 8-2 1.869.007 3.536.34 5 1Z"/>
  <path style="opacity:1" fill="#afafaf" d="M738.5 363.5c.77 2.186 1.77 4.352 3 6.5-.648 1.44-.981 2.94-1 4.5-1.403-3.409-2.07-7.075-2-11Z"/>
  <path style="opacity:1" fill="#9b9b9b" d="M767.5 351.5c1.248 7.486 1.748 15.153 1.5 23-.383.556-.883.889-1.5 1v-24Z"/>
  <path style="opacity:1" fill="#a3a3a3" d="M725.5 364.5c1.862 5.61 2.196 11.277 1 17-.407-5.661-.74-11.328-1-17Z"/>
  <path style="opacity:1" fill="#4b4b4b" d="M829.5 376.5c4.667 1.333 9.333 1.333 14 0 .789.283 1.456.783 2 1.5-5.696.83-11.363.663-17-.5.124-.607.457-.94 1-1Z"/>
  <path style="opacity:1" fill="#0d0d0d" d="M559.5 378.5c3.744 4.597 7.411 9.43 11 14.5-1.679.395-3.345.228-5-.5-1.438.219-2.771.719-4 1.5-7.391 5.723-15.057 11.056-23 16-1.231 1.183-1.231 2.349 0 3.5 2.029 2.358 4.029 4.692 6 7 7.182-4.623 14.015-8.957 20.5-13 2.467 4.1 5.301 7.934 8.5 11.5-8.099 2.241-15.432 6.074-22 11.5 2.008 3.5 4.508 6.5 7.5 9 9.235-5.702 18.401-11.536 27.5-17.5.571-1.205 1.238-2.372 2-3.5 3.526 4.359 6.859 8.859 10 13.5-3 .333-6 .667-9 1-11.861 8.694-23.861 17.194-36 25.5-10.235-15.274-21.568-29.774-34-43.5-1.667-.333-3.333-.667-5-1 14.762-9.797 29.262-19.964 43.5-30.5 1.009-1.525 1.509-3.192 1.5-5Z"/>
  <path style="opacity:1" fill="#929292" d="M726.5 381.5c2.419.305 5.086.305 8 0-2.842 1.499-5.842 1.833-9 1 .124-.607.457-.94 1-1Z"/>
  <path style="opacity:1" fill="#b1b1b1" d="M663.5 381.5c-.663 2.141-.997 4.475-1 7 .029 2.769.695 5.103 2 7-.709.904-1.709 1.237-3 1-.328-5.375.005-10.708 1-16 .607.124.94.457 1 1Z"/>
  <path style="opacity:1" fill="#a2a2a2" d="M679.5 393.5c-.763.768-1.763 1.268-3 1.5-3.986.499-7.986.666-12 .5 4.769-1.389 9.769-2.056 15-2Z"/>
  <path style="opacity:1" fill="#949494" d="M755.5 401.5c-8.2 1.404-16.533 2.738-25 4 .111-.617.444-1.117 1-1.5 7.955-1.328 15.955-2.161 24-2.5Z"/>
  <path style="opacity:1" fill="#0a0a0a" d="M1096.5 435.5c-1.31.645-2.31 1.645-3 3 6.6 1.327 13.27 1.993 20 2 5.43 1.512 11.1 2.179 17 2h7c-.16-1.699.01-3.366.5-5 5.83 6.5 11.67 13 17.5 19.5-14.95-1.204-29.95-2.371-45-3.5.31 2.885-.03 5.552-1 8-1.46 5.098-2.12 10.431-2 16-2.27 9.407-3.77 19.073-4.5 29-4.64-4.974-9.31-9.974-14-15 1.2-1.768 2.37-3.768 3.5-6 1.71-4.381 2.38-9.047 2-14 1.05-5.146 1.72-10.479 2-16 .95-1.419 1.28-3.085 1-5-5.86-.322-11.52.011-17 1-4.27 4.771-8.77 9.438-13.5 14-.2 1.756-.7 3.422-1.5 5-4.49-4.323-9.16-8.49-14-12.5 2.78-.066 4.94-1.232 6.5-3.5 12.28-14.78 25.11-29.114 38.5-43 .57-2.677 1.24-5.343 2-8 5.53 5.698 11.53 10.865 18 15.5-2.08.192-4.08.692-6 1.5-4.69 5.02-9.36 10.02-14 15Z"/>
  <path style="opacity:1" fill="#818181" d="M874.5 406.5c2.995-.206 5.662.46 8 2-2.995.206-5.662-.46-8-2Z"/>
  <path style="opacity:1" fill="#878787" d="M907.5 414.5c2.652-.09 4.985.576 7 2-2.652.09-4.985-.576-7-2Z"/>
  <path style="opacity:1" fill="#6d6d6d" d="M992.5 415.5v6c-1.291.237-2.291-.096-3-1 1.528-1.302 2.528-2.969 3-5Z"/>
  <path style="opacity:1" fill="#0a0a0a" d="M472.5 473.5c-2.015-1.424-4.348-2.09-7-2-1.599.268-2.932-.066-4-1-2.333-.667-4.667-1.333-7-2 5.187-5.206 10.354-10.539 15.5-16 .452 5.817 3.619 8.817 9.5 9 2.015 1.424 4.348 2.09 7 2 5.847 2.089 11.847 3.756 18 5-3.149-10.283-6.982-20.283-11.5-30-1.307-1.272-2.807-2.272-4.5-3 5.012-5.01 10.345-9.677 16-14 5.642 17.68 11.475 35.347 17.5 53 1.558 2.268 3.724 3.434 6.5 3.5L515 491.5c-.979-3.125-2.813-5.625-5.5-7.5-12.418-3.289-24.751-6.789-37-10.5Z"/>
  <path style="opacity:1" fill="#ababab" d="M930.5 421.5c4.746.339 9.08 1.672 13 4-4.676-.561-9.009-1.894-13-4Z"/>
  <path style="opacity:1" fill="#f9f9f9" d="M759.5 449.5c1.489 9.122 6.155 16.289 14 21.5-5.297 3.457-9.297 7.957-12 13.5-1.555 3.703-2.222 7.703-2 12 .85 16.322 1.183 32.656 1 49-4.034.172-8.034.672-12 1.5-.556.383-.889.883-1 1.5-71.421 14.533-127.088 52.199-167 113-5.16 7.989-9.493 16.322-13 25h-118c-.284-1.915.049-3.581 1-5 2.11-4.002 3.443-8.335 4-13 26.685-72.863 72.018-131.363 136-175.5 37.134-25.233 77.468-43.4 121-54.5 3.663-.452 7.33-.952 11-1.5.916-.278 1.582-.778 2-1.5 4.205-1.41 8.538-2.077 13-2 6.965-.841 13.965-1.174 21-1-.322 5.858.011 11.525 1 17Z"/>
  <path style="opacity:1" fill="#fafafa" d="M897.5 443.5c2.015 1.424 4.348 2.09 7 2 119.28 37.434 200.28 114.767 243 232-.09 2.652.58 4.985 2 7 .93 1.068 1.27 2.401 1 4v3h-118c-1.47-3.751-3.14-7.417-5-11-.65-1.935-.98-3.935-1-6 4.35.166 8.68-.001 13-.5.92-.278 1.58-.778 2-1.5 13.58-8.127 27.58-15.794 42-23-5.64-6.474-12.31-11.641-20-15.5-11.36-3.606-21.36-1.44-30 6.5 4.5 6.467 8.5 13.133 12 20-1.29-.237-2.29.096-3 1-4.62.814-9.29 1.147-14 1-3.49-.91-6.49-2.576-9-5-.06-.543-.39-.876-1-1-.67 1.449-1.34 2.782-2 4-31.368-47.007-73.368-80.673-126-101-2.436-1.371-5.103-2.371-8-3-11.174-2.843-22.174-5.843-33-9-2.056-.716-4.223-1.383-6.5-2-.333-19.667-.667-39.333-1-59-.383-.556-.883-.889-1.5-1-3.658-7.321-9.325-12.654-17-16 11.202-9.24 16.202-21.24 15-36 6.675-.166 13.342 0 20 .5 12.981 3.329 25.981 6.495 39 9.5Z"/>
  <path style="opacity:1" fill="#8e8e8e" d="M724.5 435.5c-.418.722-1.084 1.222-2 1.5-3.67.548-7.337 1.048-11 1.5 4.015-1.873 8.349-2.873 13-3Z"/>
  <path style="opacity:1" fill="#7f7f7f" d="M759.5 449.5c-.989-5.475-1.322-11.142-1-17-7.035-.174-14.035.159-21 1 .763-.768 1.763-1.268 3-1.5 6.325-.5 12.658-.666 19-.5v18Z"/>
  <path style="opacity:1" fill="#b0b0b0" d="M1096.5 435.5c.09.996-.25 1.829-1 2.5 6.22.271 12.22 1.104 18 2.5-6.73-.007-13.4-.673-20-2 .69-1.355 1.69-2.355 3-3Z"/>
  <path style="opacity:1" fill="#5e5e5e" d="M1113.5 440.5c5.92-.284 11.58.383 17 2-5.9.179-11.57-.488-17-2Z"/>
  <path style="opacity:1" fill="#606060" d="M897.5 443.5c2.652-.09 4.985.576 7 2-2.652.09-4.985-.576-7-2Z"/>
  <path style="opacity:1" fill="#585858" d="M1080.5 451.5c5.48-.989 11.14-1.322 17-1 .28 1.915-.05 3.581-1 5v-4h-16Z"/>
  <path style="opacity:1" fill="#121212" d="M725.5 451.5c8.728-.444 12.228 3.556 10.5 12-5.909 5.848-10.909 5.181-15-2-.667-1.667-.667-3.333 0-5 1.366-1.862 2.866-3.528 4.5-5Z"/>
  <path style="opacity:1" fill="#898989" d="M479.5 461.5c2.652-.09 4.985.576 7 2-2.652.09-4.985-.576-7-2Z"/>
  <path style="opacity:1" fill="#0c0c0c" d="M745.5 466.5c.108 5.21.775 10.21 2 15 .067 8.735.9 17.402 2.5 26 .667 6 .667 12 0 18-1.492 3.994-4.325 6.328-8.5 7-2.885.306-5.552-.027-8-1 1.668-1.84 3.168-3.84 4.5-6 .736-8.88.236-17.546-1.5-26-.096-5.698-.596-11.365-1.5-17-2.326-.38-4.159-1.38-5.5-3 3.583-3.285 6.916-6.785 10-10.5 1.717-1.559 3.717-2.392 6-2.5Z"/>
  <path style="opacity:1" fill="#8a8a8a" d="M454.5 468.5c2.333.667 4.667 1.333 7 2-2.747.313-5.414-.02-8-1 .124-.607.457-.94 1-1Z"/>
  <path style="opacity:1" fill="#9e9e9e" d="M1109.5 461.5c.12 5.569-.54 10.902-2 16-.12-5.569.54-10.902 2-16Z"/>
  <path style="opacity:1" fill="#696969" d="M465.5 471.5c2.652-.09 4.985.576 7 2-2.652.09-4.985-.576-7-2Z"/>
  <path style="opacity:1" fill="#0c0c0c" d="M1152.5 472.5c5.34 5.482 10.34 11.316 15 17.5-2.74-.991-5.41-.657-8 1-10.26 7.378-20.42 14.878-30.5 22.5-1.17 8 1.67 14.167 8.5 18.5 3 .667 6 .667 9 0 10.24-5.949 20.57-11.616 31-17 1.74-2.192 2.9-4.692 3.5-7.5 3.46 6.09 7.29 11.923 11.5 17.5-2.67.333-5.33.667-8 1-11.99 7.226-24.32 13.892-37 20-6.36 1.468-12.03.135-17-4-10.36-8.546-15.36-19.379-15-32.5.93-2.266 2.27-4.266 4-6 10.74-8.454 21.58-16.788 32.5-25 .5-1.973.66-3.973.5-6Z"/>
  <path style="opacity:1" fill="#b0b0b0" d="M745.5 466.5c1.531 4.75 2.198 9.75 2 15-1.225-4.79-1.892-9.79-2-15Z"/>
  <path style="opacity:1" fill="#0b0b0b" d="M445.5 477.5c1.747 1.928 3.413 4.094 5 6.5 12.283 8.615 24.283 17.615 36 27 2.544 1.092 5.211 1.759 8 2-4.167 4.833-8.333 9.667-12.5 14.5-1.384-2.468-3.217-4.635-5.5-6.5-12-8.667-24-17.333-36-26-2.269-.758-4.436-.591-6.5.5-.667-.667-.667-1.333 0-2 4.097-5.216 7.931-10.549 11.5-16Z"/>
  <path style="opacity:1" fill="#7b7b7b" d="M1094.5 471.5c.38 4.953-.29 9.619-2 14 .31-4.853.98-9.52 2-14Z"/>
  <path style="opacity:1" fill="#c9c9c9" d="M729.5 479.5c1.341 1.62 3.174 2.62 5.5 3 .904 5.635 1.404 11.302 1.5 17-1.599-5.069-2.433-10.402-2.5-16-1.667-1.333-3.333-1.333-5 0-.765-1.566-.598-2.899.5-4Z"/>
  <path style="opacity:1" fill="#fbfbfb" d="M811.5 492.5v50h-22c-.167-17.003 0-34.003.5-51 1.78-4.293 4.946-6.293 9.5-6 5.838-.626 9.838 1.707 12 7Z"/>
  <path style="opacity:1" fill="#0c0c0c" d="M725.5 503.5c.263 4.1-.07 8.1-1 12-16.913 5.967-33.579 12.3-50 19-.239-1.967.094-3.801 1-5.5-2.085-2.419-3.085-5.253-3-8.5 2.357.163 4.69-.003 7-.5 8.81-3.936 17.81-7.269 27-10 3.888-2.932 3.888-5.932 0-9-10.419-1.151-20.085 1.349-29 7.5-1.397-3.148-.731-5.814 2-8 .787-3.348 1.621-6.682 2.5-10 .561-.522 1.228-.855 2-1 1.626.518 3.293.852 5 1 8.19-4.057 16.69-4.891 25.5-2.5 6.211 3.375 9.878 8.542 11 15.5ZM924.5 506.5c1.418-1.808 3.418-2.475 6-2 3.132.512 6.465.512 10 0-3.752 10.846-8.085 21.513-13 32-1.574 1.131-3.241 1.298-5 .5-8.687-4.062-17.687-7.229-27-9.5-1.533-1.745-3.533-2.745-6-3-11.399-4.522-23.065-8.355-35-11.5-1.501-1.252-3.168-2.252-5-3 .865-1.359 1.865-2.526 3-3.5h5c.268-1.599-.066-2.932-1-4 .104-6.923 3.437-10.757 10-11.5-1.545 1.822-2.212 3.989-2 6.5-.449 3.137.551 5.637 3 7.5 17.889 6.685 35.889 12.851 54 18.5 1.583-4.478 3.25-8.978 5-13.5-.478-1.303-1.145-2.469-2-3.5Z"/>
  <path style="opacity:1" fill="#151515" d="M622.5 494.5c7.37-1.105 10.537 1.895 9.5 9-4.333 6.667-8.667 6.667-13 0-1.02-3.947.147-6.947 3.5-9Z"/>
  <path style="opacity:1" fill="#0c0c0c" d="M610.5 583.5c-1.238-1.714-1.905-3.714-2-6 .904-.709 1.237-1.709 1-3-3.537-.886-5.204-3.219-5-7 6.722.715 12.056-1.952 16-8-5.252-5.752-11.252-10.585-18-14.5-5.377-5.438-7.71-12.105-7-20 .193-2.504.859-4.837 2-7-1.581-4.097-1.081-7.93 1.5-11.5 14.344 10.348 28.677 20.681 43 31 3.265-1.045 6.098-2.711 8.5-5-2.528-6.559-6.195-12.392-11-17.5-.948-.483-1.948-.649-3-.5 0-3.333 1.667-5 5-5 .907-2.157 1.573-4.49 2-7 .755-1.966 1.921-2.3 3.5-1 6.833 12.167 13.667 24.333 20.5 36.5-7.764 5.297-15.598 10.464-23.5 15.5-10.719-6.714-20.885-14.214-30.5-22.5-4.583-.934-6.083.9-4.5 5.5 9.335 7.174 18.502 14.507 27.5 22-8.714 8.382-17.38 16.716-26 25Z"/>
  <path style="opacity:1" fill="#838383" d="M811.5 492.5c.997 16.825 1.33 33.825 1 51-7.852.325-15.518-.008-23-1h22v-50Z"/>
  <path style="opacity:1" fill="#ccc" d="M840.5 485.5c.617.111 1.117.444 1.5 1 .333 19.667.667 39.333 1 59 2.277.617 4.444 1.284 6.5 2h-8c.31-20.713-.023-41.379-1-62Z"/>
  <path style="opacity:1" fill="#6d6d6d" d="M930.5 504.5c-2.582-.475-4.582.192-6 2-.904-.709-1.237-1.709-1-3 2.559-.302 4.893.032 7 1ZM856.5 502.5c.934 1.068 1.268 2.401 1 4h-5c1.068-.934 2.401-1.268 4-1v-3Z"/>
  <path style="opacity:1" fill="#838383" d="M643.5 502.5c-.427 2.51-1.093 4.843-2 7-.162-2.027.005-4.027.5-6 .383-.556.883-.889 1.5-1Z"/>
  <path style="opacity:1" fill="#0b0b0b" d="M467.5 538.5c2 .667 4 1.333 6 2-3.97 4.584-7.47 9.584-10.5 15-.576-2.352-2.076-3.352-4.5-3-9.84 1.826-19.507 3.826-29 6-3.227.176-6.227.843-9 2h-6c-.237 1.291.096 2.291 1 3 10.85 5.756 22.183 10.422 34 14-3.072 5.712-6.239 11.379-9.5 17-1.833-3.167-4.333-5.667-7.5-7.5-13.88-6.106-27.88-11.94-42-17.5-1.655.728-3.321.895-5 .5 4.211-6.919 8.044-14.086 11.5-21.5 1.182 1.857 2.849 2.857 5 3 9.311-1.96 18.478-3.96 27.5-6 3.622.178 6.956-.489 10-2 1.695-.511 3.361-1.178 5-2-8.431-5.436-17.098-10.436-26-15-2.333-.667-4.667-1.333-7-2 3.153-5.623 6.82-10.957 11-16 .816 1.787 1.816 3.454 3 5 14.035 8.388 28.035 16.721 42 25Z"/>
  <path style="opacity:1" fill="#999" d="M725.5 503.5c.662 1.804.995 3.804 1 6-.039 2.452-.706 4.452-2 6 .93-3.9 1.263-7.9 1-12Z"/>
  <path style="opacity:1" fill="#8c8c8c" d="M960.5 518.5c2.787-.977 5.787-1.31 9-1 .343 1.983-.324 3.317-2 4 1.098-.897 1.098-1.73 0-2.5-2.31-.497-4.643-.663-7-.5Z"/>
  <path style="opacity:1" fill="#0e0e0e" d="M960.5 518.5c2.357-.163 4.69.003 7 .5 1.098.77 1.098 1.603 0 2.5-8.158 10.97-16.324 21.97-24.5 33-8.114 9.492-15.948 9.158-23.5-1 5.095-.19 9.595-1.856 13.5-5 7.002-8.321 13.169-17.154 18.5-26.5-.344-1.365-1.011-2.532-2-3.5 3.925-.706 7.592-.706 11 0Z"/>
  <path style="opacity:1" fill="#9d9d9d" d="M761.5 484.5c-.214 20.633-.214 41.3 0 62-4.719.388-9.386 1.055-14 2 .111-.617.444-1.117 1-1.5 3.966-.828 7.966-1.328 12-1.5.183-16.344-.15-32.678-1-49-.222-4.297.445-8.297 2-12Z"/>
  <path style="opacity:1" fill="#b0b0b0" d="M411.5 524.5c2.333.667 4.667 1.333 7 2-2.897-.181-5.73.152-8.5 1-1.815-1.717-1.315-2.717 1.5-3Z"/>
  <path style="opacity:1" fill="#757575" d="M889.5 524.5c2.467.255 4.467 1.255 6 3-2.467-.255-4.467-1.255-6-3Z"/>
  <path style="opacity:1" fill="#141414" d="M889.5 530.5c7.995-.503 11.828 3.164 11.5 11-4.396 8.376-9.563 9.043-15.5 2-2.118-5.535-.785-9.869 4-13Z"/>
  <path style="opacity:1" fill="#5c5c5c" d="M733.5 531.5c2.448.973 5.115 1.306 8 1-3.187 1.306-6.52 1.306-10 0 .457-.798 1.124-1.131 2-1Z"/>
  <path style="opacity:1" fill="#909090" d="M467.5 538.5c2.424-.308 4.757.026 7 1-.124.607-.457.94-1 1-2-.667-4-1.333-6-2Z"/>
  <path style="opacity:1" fill="#0b0b0b" d="M1043.5 541.5c2.33.667 4.67 1.333 7 2-14.36 13.524-28.86 26.857-43.5 40 .68 3.655 2.68 6.655 6 9 .5 2.31.66 4.643.5 7-1.07.751-1.24 1.751-.5 3 1.7-.906 3.53-1.239 5.5-1 4.12 3.547 7.78 7.547 11 12 2.06-2.693 4.73-4.36 8-5 .15-1.052-.02-2.052-.5-3-4.47-6.102-9.31-11.936-14.5-17.5 7.99-10.331 18.33-13.664 31-10 8.19 3.592 15.53 8.426 22 14.5-15.74 12.285-31.91 23.951-48.5 35-1.61-.601-2.94-1.601-4-3-3.48-5.474-7.64-10.307-12.5-14.5-2.31-.497-4.64-.663-7-.5 1.71-7.41-.62-13.076-7-17-8.683 7.756-18.35 9.089-29 4-2.909-5.337-4.075-11.004-3.5-17 1.905-3.471 4.072-6.804 6.5-10-4.333-4.667-8.667-9.333-13-14 .209-.586.543-1.086 1-1.5 2.982-.498 5.982-.665 9-.5.376-4.681 2.709-6.015 7-4-1.839 2.027-2.339 4.36-1.5 7 4.294 4.129 8.46 8.462 12.5 13-2.984 3.485-6.151 6.818-9.5 10-1.521 5.297.312 8.631 5.5 10 2.444-1.267 4.777-2.767 7-4.5 14.23-13.895 28.73-27.395 43.5-40.5.16-2.495.32-4.828.5-7 3.29 2.417 6.95 3.751 11 4Z"/>
  <path style="opacity:1" fill="#6d6d6d" d="M1043.5 541.5c2.75-.313 5.41.02 8 1-.12.607-.46.94-1 1-2.33-.667-4.67-1.333-7-2Z"/>
  <path style="opacity:1" fill="#0d0d0d" d="M1201.5 540.5h3c-.16 1.373.01 2.707.5 4 8.83 15.654 17.16 31.654 25 48 1.56 1.859 3.39 3.359 5.5 4.5-5.73 1.312-11.4 2.812-17 4.5-.05-3.165-.22-6.498-.5-10-5.04-9.589-10.21-19.089-15.5-28.5-3.42.361-6.76 1.361-10 3-1.07.739-1.74 1.739-2 3 3.17 6.167 6.33 12.333 9.5 18.5 1.21 1.549 2.71 2.715 4.5 3.5-4.82 1.91-9.48 4.076-14 6.5-2.16-8.814-5.82-16.981-11-24.5-6.19 1.462-12.19 3.796-18 7-1.27 1.307-2.27 2.807-3 4.5-3.51-5.01-6.51-10.343-9-16 2.07-.052 4.4-.219 7-.5 13.72-7.527 27.72-14.527 42-21 1.67-1.843 2.67-4.009 3-6.5Z"/>
  <path style="opacity:1" fill="#898989" d="M439.5 543.5c-3.044 1.511-6.378 2.178-10 2 3.089-1.285 6.422-1.951 10-2Z"/>
  <path style="opacity:1" fill="#6e6e6e" d="M1062.5 552.5c-2.74-.099-5.4.235-8 1 .99-1.526 2.49-2.193 4.5-2 1.38.014 2.55.348 3.5 1Z"/>
  <path style="opacity:1" fill="#6f6f6f" d="M882.5 556.5c2.897.629 5.564 1.629 8 3-3.216.155-5.883-.845-8-3Z"/>
  <path style="opacity:1" fill="#7e7e7e" d="M429.5 558.5c-2.671 1.618-5.671 2.285-9 2 2.773-1.157 5.773-1.824 9-2Z"/>
  <path style="opacity:1" fill="#f8f8f8" d="M825.5 560.5c2.773 1.157 5.773 1.824 9 2 7.736.748 15.403 1.915 23 3.5 7.608 2.653 15.275 5.153 23 7.5.763.768 1.763 1.268 3 1.5-1.237.232-2.237.732-3 1.5-3.213-.31-6.213.023-9 1-7.656-.295-14.99.705-22 3-8.392.21-16.725 1.043-25 2.5-10.181 10.348-20.514 20.514-31 30.5-9.667-10-19.333-20-29-30-9.624-1.286-19.291-1.953-29-2-6.105-1.496-12.438-2.163-19-2-3.512.555-6.512-.112-9-2 5.023-1.54 10.023-3.207 15-5 3.08-.248 6.08-.914 9-2 1.286.352 2.119 1.018 2.5 2 1.826-.51 1.993-1.344.5-2.5 4.11-1.515 8.11-3.015 12-4.5 4.804-1.361 9.804-2.361 15-3 4.934.271 9.6-.396 14-2 16.66-1.3 33.326-1.3 50 0Z"/>
  <path style="opacity:1" fill="#909090" d="M775.5 560.5c-4.4 1.604-9.066 2.271-14 2 4.419-1.472 9.086-2.138 14-2Z"/>
  <path style="opacity:1" fill="#757575" d="M825.5 560.5c3.377-.432 6.377.235 9 2-3.227-.176-6.227-.843-9-2Z"/>
  <path style="opacity:1" fill="#585858" d="M420.5 560.5c-2.031.472-3.698 1.472-5 3-.904-.709-1.237-1.709-1-3h6Z"/>
  <path style="opacity:1" fill="#101010" d="M1062.5 552.5c3.65 2.641 4.99 6.308 4 11 7.7-.138 10.87 3.529 9.5 11-4.78 5.105-9.45 5.105-14 0-.71-2.399-.54-4.732.5-7-4.63-.154-8.13-2.154-10.5-6-.98-3.317-.14-5.984 2.5-8 2.6-.765 5.26-1.099 8-1Z"/>
  <path style="opacity:1" fill="#0f0f0f" d="M644.5 582.5c-2.615-3.509-3.615-7.509-3-12 4.825-5.164 9.659-5.164 14.5 0 1.947 9.884-1.887 13.884-11.5 12Z"/>
  <path style="opacity:1" fill="#c9c9c9" d="M746.5 565.5c-3.89 1.485-7.89 2.985-12 4.5 1.493 1.156 1.326 1.99-.5 2.5-.381-.982-1.214-1.648-2.5-2-2.92 1.086-5.92 1.752-9 2 7.756-2.86 15.756-5.194 24-7Z"/>
  <path style="opacity:1" fill="#0d0d0d" d="M566.5 660.5c-4.721 1.291-9.388 2.291-14 3-2.688 4.35-6.022 8.017-10 11-6.44-2.146-12.773-4.479-19-7-1.53-1.846-3.53-2.846-6-3-8.46-3.065-16.793-6.398-25-10-1.677-1.998-3.677-2.331-6-1-.929-1.189-1.262-2.522-1-4-.752-2.59-1.752-5.09-3-7.5.184-1.376.851-2.209 2-2.5 2.588 2.092 5.588 3.425 9 4 13.893 6.388 27.893 12.555 42 18.5 4.385.968 7.385-.699 9-5-9.083-16.627-4.083-25.96 15-28 1.287-1.41 2.454-2.91 3.5-4.5.624-1.964.124-3.631-1.5-5-11.347-7.006-22.347-14.506-33-22.5-3.621-2.09-7.121-1.923-10.5.5-1.181-3.808-.348-6.975 2.5-9.5-.243-.902-.577-1.735-1-2.5-.475-2.582.192-4.582 2-6 15.6 10.811 31.267 21.644 47 32.5 3.183.342 5.183-1.158 6-4.5-3.066-2.063-5.399-4.73-7-8-.744-3.619-1.077-7.285-1-11 1.479-2.79 2.812-5.623 4-8.5.007-1.812-.66-3.312-2-4.5 1.333-.333 2.667-.667 4-1 3.815 1.336 7.815 2.169 12 2.5l2 2c-7.573.911-10.406 5.077-8.5 12.5 4.204 5.241 8.537 5.241 13 0 .497-2.31.663-4.643.5-7 2.953 1.82 6.286 2.987 10 3.5.857.689 1.523 1.522 2 2.5-11.386 14.719-22.386 29.719-33 45 5.026 9.453 3.693 17.787-4 25Z"/>
  <path style="opacity:1" fill="#6f6f6f" d="M880.5 573.5h4v3h-4c.763-.768 1.763-1.268 3-1.5-1.237-.232-2.237-.732-3-1.5Z"/>
  <path style="opacity:1" fill="#919191" d="M608.5 577.5c.095 2.286.762 4.286 2 6-.802 1.385-1.469 1.218-2-.5-1.16-1.997-1.16-3.831 0-5.5Z"/>
  <path style="opacity:1" fill="#101010" d="M639.5 578.5c2.371 2.497 3.371 5.497 3 9-2.371 5.681-6.371 7.181-12 4.5-5.333-4.667-5.333-9.333 0-14 3.092-.736 6.092-.569 9 .5Z"/>
  <path style="opacity:1" fill="#5c5c5c" d="M871.5 577.5c-7.172 1.167-14.506 2.167-22 3 7.01-2.295 14.344-3.295 22-3Z"/>
  <path style="opacity:1" fill="#5e5e5e" d="M641.5 570.5c-.615 4.491.385 8.491 3 12-.667 1.667-1.333 3.333-2 5 .371-3.503-.629-6.503-3-9 .667-2.667 1.333-5.333 2-8Z"/>
  <path style="opacity:1" fill="#474747" d="M707.5 577.5c2.488 1.888 5.488 2.555 9 2v1h-12c0-.667-.333-1-1-1 1.171-.845 2.505-1.511 4-2Z"/>
  <path style="opacity:1" fill="#8f8f8f" d="M716.5 580.5v-1c6.562-.163 12.895.504 19 2-6.338-.267-12.671-.6-19-1Z"/>
  <path style="opacity:1" fill="#f9f9f9" d="M919.5 670.5c.102-19.185-.565-38.185-2-57-9.788-12.293-19.788-24.46-30-36.5 58.778 23.271 101.778 63.605 129 121-1.08 1.543-2.41 1.543-4 0-12.49-8.748-25.161-17.248-38-25.5-18.324-.965-36.658-1.631-55-2Z"/>
  <path style="opacity:1" fill="#686868" d="M521.5 579.5c-1.808 1.418-2.475 3.418-2 6-.968-2.107-1.302-4.441-1-7 1.291-.237 2.291.096 3 1Z"/>
  <path style="opacity:1" fill="#f7f7f7" d="M703.5 579.5c.667 0 1 .333 1 1-10.97 14.484-21.803 29.151-32.5 44-.5 14.329-.667 28.663-.5 43-13.337-.437-26.671-.604-40-.5-16.491 11.665-32.825 23.498-49 35.5-.667 0-1-.333-1-1 25.641-55.641 66.308-96.308 122-122Z"/>
  <path style="opacity:1" fill="#090909" d="M371.5 671.5c-3.007-1.675-6.34-2.341-10-2-6.636-1.145-13.303-2.145-20-3-2.357.595-4.523 1.595-6.5 3-.789-2.212-.622-4.212.5-6 1.268-2.405 1.935-5.072 2-8 1.021-4.749 2.354-9.416 4-14 1.387 1.71 2.721 3.377 4 5 2.405 1.268 5.072 1.935 8 2 9.015 1.558 18.015 3.225 27 5 2.686 1.491 5.686 2.157 9 2 3.027.213 5.693-.453 8-2 7.301-2.809 11.467-8.143 12.5-16 2.304-7.65.138-13.483-6.5-17.5-12.236-4.48-24.569-8.813-37-13-5.026-1.494-9.192-.327-12.5 3.5 3.201-9.074 6.867-18.074 11-27 .807 3.473 2.973 5.64 6.5 6.5 14.967 6.124 29.967 12.124 45 18 4.167 2.167 7.333 5.333 9.5 9.5 2.164 12.807.164 24.807-6 36-4.66 8.998-11.493 15.498-20.5 19.5-9.411.792-18.744.292-28-1.5Z"/>
  <path style="opacity:1" fill="#fbfbfb" d="M904.5 617.5v53h-12c-13.337.167-26.671 0-40-.5-2.077-.192-4.077-.692-6-1.5-13.905-13.404-27.739-27.071-41.5-41-.667-.667-.667-1.333 0-2 9.003-10.502 18.17-20.835 27.5-31 4.264.156 8.264-.511 12-2 12.605-1.894 25.271-3.061 38-3.5 7.549 9.376 14.882 18.876 22 28.5Z"/>
  <path style="opacity:1" fill="#e3e3e3" d="M1043.5 590.5c9.53 1.362 10.2 4.362 2 9-4.92-2.653-5.58-5.653-2-9Z"/>
  <path style="opacity:1" fill="#fcfcfc" d="M748.5 669.5h-61c.319-4.863-.014-9.53-1-14-.745-10.327-.912-20.661-.5-31 8.549-10.214 16.715-20.714 24.5-31.5 15.183 1.42 30.516 2.753 46 4 10.801 10.637 21.134 21.637 31 33-12.602 13.768-25.602 26.934-39 39.5Z"/>
  <path style="opacity:1" fill="#898989" d="M844.5 592.5c-3.736 1.489-7.736 2.156-12 2 3.71-1.636 7.71-2.302 12-2Z"/>
  <path style="opacity:1" fill="#8e8e8e" d="M566.5 588.5c-.077 3.715.256 7.381 1 11-.617-.111-1.117-.444-1.5-1-.808-3.527-.641-6.86.5-10Z"/>
  <path style="opacity:1" fill="#969696" d="M1013.5 599.5c1.67.667 3.33 1.333 5 2-1.97-.239-3.8.094-5.5 1-.74-1.249-.57-2.249.5-3Z"/>
  <path style="opacity:1" fill="#0c0c0c" d="M1209.5 621.5c8.31 1.652 16.81 2.985 25.5 4 1.9-.115 3.56-.782 5-2 .38.556.88.889 1.5 1 3.08 7.134 5.25 14.467 6.5 22-2.74-1.11-5.57-1.277-8.5-.5-12.63 11.64-25.63 22.807-39 33.5-1.8 1.631-2.96 3.631-3.5 6-2.26-6.61-4.43-13.276-6.5-20-.24-1.291.1-2.291 1-3 7.05.117 10.55-3.217 10.5-10-1.03-3.833-2.2-7.499-3.5-11 .09-2.652-.58-4.985-2-7-1.09-3.893-3.76-5.56-8-5-3.45-.495-6.28.505-8.5 3-1.77-5.65-4.1-10.984-7-16-.67-1-.67-2 0-3 1.21 1.549 2.71 2.715 4.5 3.5 10.77 1.512 21.44 3.012 32 4.5Z"/>
  <path style="opacity:1" fill="#7c7c7c" d="M904.5 617.5c.997 17.826 1.33 35.826 1 54-4.532.318-8.866-.015-13-1h12v-53Z"/>
  <path style="opacity:1" fill="#b6b6b6" d="M1209.5 621.5c7.55.064 15.05.731 22.5 2 2.53-.124 5.03-.457 7.5-1 1.21.247 1.88.914 2 2-.62-.111-1.12-.444-1.5-1-1.44 1.218-3.1 1.885-5 2-8.69-1.015-17.19-2.348-25.5-4Z"/>
  <path style="opacity:1" fill="#8e8e8e" d="M324.5 624.5c.334 2.991-.666 5.324-3 7 .435-2.657 1.435-4.991 3-7Z"/>
  <path style="opacity:1" fill="#0a0a0a" d="M1041.5 672.5c-11.34 3.845-18.84.179-22.5-11-.76-1.566-.6-2.899.5-4 2.51 2.424 5.51 4.09 9 5 1.8.662 3.8.995 6 1 3.03.213 5.69-.453 8-2 .71-.904 1.71-1.237 3-1-3.5-6.867-7.5-13.533-12-20 8.64-7.94 18.64-10.106 30-6.5 7.69 3.859 14.36 9.026 20 15.5-14.42 7.206-28.42 14.873-42 23Z"/>
  <path style="opacity:1" fill="#e8e8e8" d="M1206.5 632.5c5.67.367 11.34.867 17 1.5.81.308 1.47.808 2 1.5-4.33 4-8.67 8-13 12-3.16-4.452-5.16-9.452-6-15Z"/>
  <path style="opacity:1" fill="#969696" d="M1347.5 632.5c1.42 2.015 2.09 4.348 2 7-1.42-2.015-2.09-4.348-2-7Z"/>
  <path style="opacity:1" fill="#949494" d="M1196.5 634.5c1.42 2.015 2.09 4.348 2 7-1.42-2.015-2.09-4.348-2-7Z"/>
  <path style="opacity:1" fill="#a9a9a9" d="M484.5 639.5c3.86-.446 6.86.887 9 4-3.412-.575-6.412-1.908-9-4Z"/>
  <path style="opacity:1" fill="#989898" d="M1279.5 636.5c1.42 2.015 2.09 4.348 2 7-1.42-2.015-2.09-4.348-2-7Z"/>
  <path style="opacity:1" fill="#eaeaea" d="M552.5 640.5c7.989-1.183 10.656 1.984 8 9.5-7.257 2.746-10.423.246-9.5-7.5.717-.544 1.217-1.211 1.5-2Z"/>
  <path style="opacity:1" fill="#696969" d="M345.5 646.5c2.995-.206 5.662.46 8 2-2.928-.065-5.595-.732-8-2Z"/>
  <path style="opacity:1" fill="#dbdbdb" d="M1051.5 644.5c9.31 1.222 9.98 3.888 2 8-1.33-2-2.67-4-4-6 .74-.682 1.41-1.349 2-2Z"/>
  <path style="opacity:1" fill="gray" d="M1361.5 649.5c1.66 1.938 2.33 4.272 2 7-1.11-2.099-1.78-4.433-2-7Z"/>
  <path style="opacity:1" fill="#a9a9a9" d="M485.5 649.5c-.262 1.478.071 2.811 1 4 2.323-1.331 4.323-.998 6 1h-8c-.284-1.915.049-3.581 1-5Z"/>
  <path style="opacity:1" fill="#727272" d="M380.5 653.5c5.675 1.268 11.342 1.268 17 0-2.307 1.547-4.973 2.213-8 2-3.314.157-6.314-.509-9-2Z"/>
  <path style="opacity:1" fill="#828282" d="M917.5 613.5c1.435 18.815 2.102 37.815 2 57-1.577-18.81-2.243-37.81-2-57Z"/>
  <path style="opacity:1" fill="#8e8e8e" d="M283.5 653.5c-.399 3.616-1.399 6.95-3 10 .09-3.714 1.09-7.048 3-10Z"/>
  <path style="opacity:1" fill="#868686" d="M337.5 655.5c-.065 2.928-.732 5.595-2 8-.206-2.995.46-5.662 2-8Z"/>
  <path style="opacity:1" fill="#8e8e8e" d="M1352.5 651.5c1.57 1.602 2.24 3.602 2 6-1.57-1.602-2.24-3.602-2-6Z"/>
  <path style="opacity:1" fill="#9b9b9b" d="M1284.5 652.5c1.42 2.015 2.09 4.348 2 7-1.66-1.938-2.33-4.272-2-7Z"/>
  <path style="opacity:1" fill="#999" d="M566.5 660.5c-.847 1.466-2.18 2.3-4 2.5-3.317.498-6.65.665-10 .5 4.612-.709 9.279-1.709 14-3Z"/>
  <path style="opacity:1" fill="#a0a0a0" d="M1042.5 661.5c-2.31 1.547-4.97 2.213-8 2-2.2-.005-4.2-.338-6-1 4.71.147 9.38-.186 14-1Z"/>
  <path style="opacity:1" fill="#606060" d="M1191.5 662.5c-.9.709-1.24 1.709-1 3-1.41-1.544-1.75-3.211-1-5 1.02.355 1.69 1.022 2 2Z"/>
  <path style="opacity:1" fill="#9a9a9a" d="M517.5 664.5c2.47.154 4.47 1.154 6 3-2.589.039-4.589-.961-6-3Z"/>
  <path style="opacity:1" fill="#919191" d="M1174.5 663.5c1.95 1.82 2.95 4.154 3 7-1.57-2.009-2.57-4.343-3-7Z"/>
  <path style="opacity:1" fill="#727272" d="M227.5 663.5c.329 2.728-.337 5.062-2 7-.09-2.652.576-4.985 2-7Z"/>
  <path style="opacity:1" fill="#b9b9b9" d="M686.5 655.5c.986 4.47 1.319 9.137 1 14h61c-20.493.997-41.16 1.331-62 1v-15Z"/>
  <path style="opacity:1" fill="#686868" d="M361.5 669.5c3.66-.341 6.993.325 10 2-3.54-.253-6.873-.919-10-2Z"/>
  <path style="opacity:1" fill="#888" d="M242.5 668.5c-.255 4.3-1.255 8.3-3 12 .255-4.3 1.255-8.3 3-12Z"/>
  <path style="opacity:1" fill="#999" d="M454.5 668.5c-.557 4.665-1.89 8.998-4 13 .557-4.665 1.89-8.998 4-13Z"/>
  <path style="opacity:1" fill="#8f8f8f" d="M310.5 669.5c.09 2.652-.576 4.985-2 7-.09-2.652.576-4.985 2-7Z"/>
  <path style="opacity:1" fill="#c9c9c9" d="M1019.5 657.5c-1.1 1.101-1.26 2.434-.5 4 3.66 11.179 11.16 14.845 22.5 11-.42.722-1.08 1.222-2 1.5-4.32.499-8.65.666-13 .5.02 2.065.35 4.065 1 6-3.63-6.585-7.3-13.251-11-20 .66-1.218 1.33-2.551 2-4 .61.124.94.457 1 1Z"/>
  <path style="opacity:1" fill="#929292" d="M1288.5 667.5c2.25 4.305 3.58 8.971 4 14-1.94-4.395-3.27-9.062-4-14Z"/>
  <path style="opacity:1" fill="#979797" d="M1147.5 677.5c1.42 2.015 2.09 4.348 2 7-1.42-2.015-2.09-4.348-2-7Z"/>
  <path style="opacity:1" fill="#838383" d="M1368.5 677.5c1.16 2.773 1.82 5.773 2 9-1.62-2.671-2.28-5.671-2-9Z"/>
  <path style="opacity:1" fill="#fbfbfb" d="M604.5 754.5c.08-3.281-.587-6.281-2-9-1.965-10.79-4.465-21.457-7.5-32-.769-2.599-.602-5.099.5-7.5 13.333-8.333 26.667-16.667 40-25 13.663-.5 27.329-.667 41-.5.167 19.669 0 39.336-.5 59-13.316 14.817-26.816 29.483-40.5 44-10.314-8.479-20.48-17.146-30.5-26-.483-.948-.649-1.948-.5-3Z"/>
  <path style="opacity:1" fill="#aaa" d="M1358.5 677.5c1.68 2.825 2.68 5.991 3 9.5 1.29 6.801 2.29 13.634 3 20.5-2.62-9.761-4.62-19.761-6-30Z"/>
  <path style="opacity:1" fill="#fcfcfc" d="M947.5 687.5c7.363-.331 14.697.003 22 1 9.804 6.072 19.804 11.905 30 17.5 1.49.745 2.49 1.912 3 3.5-.68 4.429-1.68 8.762-3 13-1.582 3.376-2.249 7.042-2 11-1.273 6.254-2.773 12.588-4.5 19-11.319 10.651-22.652 21.318-34 32-13.047-11.881-25.547-24.215-37.5-37-.976-19.954-1.31-39.954-1-60h27Z"/>
  <path style="opacity:1" fill="#b6b6b6" d="M1150.5 688.5c.93 1.068 1.27 2.401 1 4-39.84.332-79.5-.001-119-1h118v-3Z"/>
  <path style="opacity:1" fill="#b7b7b7" d="M1292.5 682.5c1.51 3.044 2.18 6.378 2 10-36.84.332-73.5-.002-110-1 36.33.167 72.67 0 109-.5-.67-.333-1.33-.667-2-1 .94-2.381 1.27-4.881 1-7.5Z"/>
  <path style="opacity:1" fill="#1f1f1f" d="M304.5 697.5c85.832-.999 171.832-1.333 258-1 .237 1.291-.096 2.291-1 3-85.327-1.997-170.994-2.664-257-2Z"/>
  <path style="opacity:1" fill="#8e8e8e" d="M304.5 697.5c86.006-.664 171.673.003 257 2 0 .667-.333 1-1 1-42.328-1.333-84.995-2-128-2-42.667.167-85.333.333-128 .5-.599 1.622-1.266 3.122-2 4.5-.446-2.51.22-4.51 2-6Z"/>
  <path style="opacity:1" fill="#878787" d="M221.5 692.5c-.696 6.926-2.03 13.593-4 20 .511-6.961 1.844-13.627 4-20Z"/>
  <path style="opacity:1" fill="#fbfbfb" d="M560.5 700.5c-2.018 6.106-4.018 12.106-6 18-1.424 2.015-2.09 4.348-2 7-1.338 4.753-2.671 9.419-4 14-1.081 3.127-1.747 6.46-2 10-.946 5.293-1.613 10.626-2 16-1.231 5.456-2.564 10.79-4 16h-216c.967-7.914 1.301-15.914 1-24 .111-.617.444-1.117 1-1.5 6.359-.169 12.693-.669 19-1.5.954-2.411 2.288-4.577 4-6.5-4.98-4.31-9.98-8.643-15-13-7.343-.988-10.843 2.179-10.5 9.5 4.245-3.063 7.078-2.063 8.5 3-4.151-.401-7.485.933-10 4-.617.111-1.117.444-1.5 1-.5 9.661-.666 19.328-.5 29h-26c.766-8.979 1.099-17.979 1-27 .868-6.266 1.535-12.6 2-19 .722-.418 1.222-1.084 1.5-2 .499-3.652.665-7.318.5-11v-2c2.167-5.33 3.167-10.997 3-17 .734-1.378 1.401-2.878 2-4.5 42.667-.167 85.333-.333 128-.5 43.005 0 85.672.667 128 2Z"/>
  <path style="opacity:1" fill="#818181" d="M237.5 693.5c-.176 3.227-.843 6.227-2 9-.285-3.329.382-6.329 2-9Z"/>
  <path style="opacity:1" fill="#565656" d="M581.5 701.5c0 .667.333 1 1 1v6c-.522-1.719-1.522-3.052-3-4 .432-1.21 1.099-2.21 2-3Z"/>
  <path style="opacity:1" fill="#fafafa" d="M1035.5 839.5c-1.54 2.338-2.21 5.005-2 8v1c-1.42 2.015-2.09 4.348-2 7-2.65 13.284-6.98 25.95-13 38-1.87-6.21-3.2-12.543-4-19 .01-5.979-.99-11.646-3-17v-2c.21-2.995-.46-5.662-2-8-.28-3.688-.78-7.355-1.5-11-13.081-13.226-25.915-26.559-38.5-40 12.708-12.543 25.541-24.876 38.5-37 1.17-5.44 2.34-10.773 3.5-16 1.46-5.098 2.12-10.431 2-16 .4-8.481 1.73-16.815 4-25 .98.477 1.81 1.143 2.5 2 17.81 43.372 22.97 88.372 15.5 135Z"/>
  <path style="opacity:1" fill="#464646" d="M274.5 689.5c.007 5.979-.993 11.646-3 17 .549-5.874 1.549-11.541 3-17Z"/>
  <path style="opacity:1" fill="#f9f9f9" d="M579.5 704.5c1.478.948 2.478 2.281 3 4 2.961 18.097 6.461 36.097 10.5 54 8.818 9.486 17.651 18.986 26.5 28.5-9.979 12.789-20.312 25.289-31 37.5-2.475 1.187-3.475 3.187-3 6-.667 5.667-1.333 11.333-2 17-1.636 3.71-2.302 7.71-2 12v5c-1.117 3.795-1.783 7.795-2 12v2c-.768.763-1.268 1.763-1.5 3-.278-.916-.778-1.582-1.5-2-12.289-35.169-17.289-71.502-15-109 1.725-4.723 2.725-9.723 3-15 .698-8.463 2.198-16.797 4.5-25 3.208-10.126 6.708-20.126 10.5-30Z"/>
  <path style="opacity:1" fill="#a0a0a0" d="M302.5 703.5c.167 6.003-.833 11.67-3 17 .549-5.874 1.549-11.541 3-17Z"/>
  <path style="opacity:1" fill="#a9a9a9" d="M235.5 703.5c.198 5.25-.469 10.25-2 15-.311-5.266.355-10.266 2-15Z"/>
  <path style="opacity:1" fill="#999" d="M1364.5 708.5c1.95 6.056 2.95 12.389 3 19-2.01-6.043-3.01-12.376-3-19Z"/>
  <path style="opacity:1" fill="#111" d="M417.5 741.5c-.155 3.216.845 5.883 3 8 2.916 5.596 2.249 10.762-2 15.5-1.496.507-2.663.007-3.5-1.5-.84-2.702-1.673-5.368-2.5-8 .327-5.044-.006-10.044-1-15-.798.457-1.131 1.124-1 2-4.343 6.212-9.176 6.546-14.5 1-2.449-9.37-.282-17.537 6.5-24.5 4.005-1.098 7.505-.265 10.5 2.5 1.442 6.713 2.942 13.38 4.5 20ZM487.5 717.5c1.517.011 2.684.677 3.5 2 3.9 6.527 6.734 13.527 8.5 21 2.081-7.32 5.081-14.153 9-20.5 1.525-1.009 3.192-1.509 5-1.5-.259 3.74.074 7.406 1 11-2.695 3.53-5.195 7.196-7.5 11-2.362 8.119-5.029 16.119-8 24-1.308-12.269-5.641-23.269-13-33 .482-4.621.982-9.288 1.5-14Z"/>
  <path style="opacity:1" fill="#0d0d0d" d="M370.5 737.5c.514 6.322.847 12.655 1 19-.951 1.419-1.284 3.085-1 5-.79 1.109-1.29 2.442-1.5 4-.885-3.452-1.718-6.786-2.5-10v-2c-.557-4.665-1.89-8.998-4-13-1.973-3.947-3.973-7.947-6-12 2.171-3.005 3.671-6.339 4.5-10 4.273 5.878 7.439 12.212 9.5 19Z"/>
  <path style="opacity:1" fill="#9c9c9c" d="M1374.5 711.5c1.4 4.091 2.06 8.424 2 13-1.4-4.091-2.06-8.424-2-13Z"/>
  <path style="opacity:1" fill="#131313" d="M451.5 720.5c.996-.086 1.829.248 2.5 1 1.986 11.302 6.652 21.302 14 30-.075 4.749-.909 9.416-2.5 14-5.969-6.891-9.636-14.891-11-24-2.161 5.959-4.327 11.959-6.5 18-1.041 2.085-2.541 3.752-4.5 5-4.726-7.739-3.893-14.739 2.5-21 2.689-7.47 4.522-15.136 5.5-23Z"/>
  <path style="opacity:1" fill="#5d5d5d" d="M554.5 718.5c.09 2.652-.576 4.985-2 7-.09-2.652.576-4.985 2-7Z"/>
  <path style="opacity:1" fill="#989898" d="M1298.5 711.5c1.55 4.067 2.22 8.4 2 13-1.68-4.045-2.34-8.378-2-13Z"/>
  <path style="opacity:1" fill="#999" d="M728.5 725.5c44.83-.999 89.83-1.332 135-1v38c1.915-.284 3.581.049 5 1h-6v-38h-134Z"/>
  <path style="opacity:1" fill="#efefef" d="M728.5 725.5h134v38h6c6.826 1.494 11.493 5.494 14 12 .468 5.829 1.135 11.496 2 17 8.431 2.099 14.431 7.099 18 15 .968 29.642 1.302 59.308 1 89h-214v-85c2.544-9.377 8.377-15.71 17.5-19-.149-10.988 3.685-20.155 11.5-27.5 3.108-1.759 6.441-2.592 10-2.5v-37Z"/>
  <path style="opacity:1" fill="#d8d8d8" d="M947.5 687.5h-27c-.31 20.046.024 40.046 1 60-.617-.111-1.117-.444-1.5-1-.5-19.997-.667-39.997-.5-60 9.515-.327 18.848.006 28 1Z"/>
  <path style="opacity:1" fill="#b6b6b6" d="M299.5 722.5c.165 3.682-.001 7.348-.5 11-.278.916-.778 1.582-1.5 2 .27-4.528.937-8.861 2-13Z"/>
  <path style="opacity:1" fill="#f0f0f0" d="M408.5 735.5h-6v-6c6.333-2.333 8.333-.333 6 6Z"/>
  <path style="opacity:1" fill="#828282" d="M999.5 722.5c-.146 3.887-.813 7.554-2 11-.249-3.958.418-7.624 2-11Z"/>
  <path style="opacity:1" fill="#5f5f5f" d="M268.5 724.5c.046 6.55-.621 12.883-2 19-.163-6.562.504-12.895 2-19Z"/>
  <path style="opacity:1" fill="#b5b5b5" d="M1300.5 724.5c1.24 5.46 1.9 11.127 2 17-1.62-5.416-2.28-11.083-2-17Z"/>
  <path style="opacity:1" fill="#101010" d="M325.5 757.5c-.992 7.148-1.325 14.481-1 22h-3c-.28-9.386.053-18.72 1-28 2.515-3.067 5.849-4.401 10-4-1.422-5.063-4.255-6.063-8.5-3-.343-7.321 3.157-10.488 10.5-9.5 5.02 4.357 10.02 8.69 15 13-1.712 1.923-3.046 4.089-4 6.5-6.307.831-12.641 1.331-19 1.5-.556.383-.889.883-1 1.5Z"/>
  <path style="opacity:1" fill="#a8a8a8" d="M402.5 729.5v6h6c-1.901 2.374-4.235 2.541-7 .5-1.52-2.552-1.187-4.718 1-6.5Z"/>
  <path style="opacity:1" fill="#acacac" d="M1013.5 727.5c.12 5.569-.54 10.902-2 16-.25-5.584.42-10.917 2-16Z"/>
  <path style="opacity:1" fill="#121212" d="M1054.5 762.5v-4c9.01-.2 18.01-.534 27-1 .7-5.604 2.87-10.604 6.5-15 .5-1.973.66-3.973.5-6 8.93 2.558 15.76 7.892 20.5 16 2.23 15.692-3.44 19.358-17 11-1.06.13-1.89.63-2.5 1.5-11.66.5-23.33.667-35 .5v-3Z"/>
  <path style="opacity:1" fill="#727272" d="M1047.5 736.5c1.66 1.938 2.33 4.272 2 7-1.11-2.099-1.78-4.433-2-7Z"/>
  <path style="opacity:1" fill="#a5a5a5" d="M362.5 740.5c2.11 4.002 3.443 8.335 4 13-2.11-4.002-3.443-8.335-4-13Z"/>
  <path style="opacity:1" fill="#787878" d="M417.5 741.5c1.371 2.436 2.371 5.103 3 8-2.155-2.117-3.155-4.784-3-8Z"/>
  <path style="opacity:1" fill="#838383" d="M412.5 755.5c-.667-4.333-1.333-8.667-2-13-.131-.876.202-1.543 1-2 .994 4.956 1.327 9.956 1 15Z"/>
  <path style="opacity:1" fill="#8b8b8b" d="M548.5 739.5c.341 3.66-.325 6.993-2 10 .253-3.54.919-6.873 2-10Z"/>
  <path style="opacity:1" fill="#8f8f8f" d="M370.5 737.5c1.422 3.739 2.089 7.739 2 12-.003 2.525-.337 4.859-1 7-.153-6.345-.486-12.678-1-19Z"/>
  <path style="opacity:1" fill="#636363" d="M602.5 745.5c1.413 2.719 2.08 5.719 2 9-1.413-2.719-2.08-5.719-2-9Z"/>
  <path style="opacity:1" fill="#a9a9a9" d="M265.5 752.5c-.34 9.174-1.007 18.174-2 27-.166-7.008 0-14.008.5-21 .191-2.208.691-4.208 1.5-6Z"/>
  <path style="opacity:1" fill="#6a6a6a" d="M564.5 759.5c-.275 5.277-1.275 10.277-3 15 .275-5.277 1.275-10.277 3-15Z"/>
  <path style="opacity:1" fill="#b4b4b4" d="M366.5 755.5c.782 3.214 1.615 6.548 2.5 10 .21-1.558.71-2.891 1.5-4v6h-3c-.662-3.966-.995-7.966-1-12Z"/>
  <path style="opacity:1" fill="#0a0a0a" d="M863.5 767.5c6.315.576 11.149 3.576 14.5 9 .5 37.332.667 74.665.5 112h-15v-121Z"/>
  <path style="opacity:1" fill="#656565" d="M322.5 751.5c-.947 9.28-1.28 18.614-1 28h3c-.325-7.519.008-14.852 1-22 .301 8.086-.033 16.086-1 24h-4c-.166-9.672 0-19.339.5-29 .383-.556.883-.889 1.5-1Z"/>
  <path style="opacity:1" fill="#030303" d="M727.5 888.5h-14v-110c2.794-5.459 7.128-9.126 13-11 1 40.328 1.333 80.661 1 121Z"/>
  <path style="opacity:1" fill="#787878" d="M833.5 784.5c.998 34.496 1.332 69.163 1 104h24v-159h-125v159c-.999-53.164-1.332-106.497-1-160h127v161h-26v-105Z"/>
  <path style="opacity:1" fill="#030303" d="M833.5 784.5c-3.039-12.078-8.705-22.745-17-32-6.035-6.365-12.701-12.031-20-17-13.075 7.908-23.242 18.575-30.5 32-1.759 3.509-2.926 7.175-3.5 11-2.036 1.706-3.036 4.039-3 7-.998 34.163-1.332 68.496-1 103h-25v-159h125v159h-24c.332-34.837-.002-69.504-1-104Z"/>
  <path style="opacity:1" fill="#020202" d="M811.5 753.5c2.825 3.637 5.658 7.303 8.5 11 3.393 6.116 6.226 12.449 8.5 19v104h-64v-102c-.134-1.792.199-3.458 1-5 5.868-15.512 15.534-28.345 29-38.5 1-.667 2-.667 3 0 4.54 4.046 9.207 7.879 14 11.5Z"/>
  <path style="opacity:1" fill="#dfdfdf" d="M816.5 752.5c-1.195-.178-2.362-.511-3.5-1-1.03.336-1.53 1.003-1.5 2-4.793-3.621-9.46-7.454-14-11.5-1-.667-2-.667-3 0-13.466 10.155-23.132 22.988-29 38.5.028-5.065-.972-5.731-3-2 .574-3.825 1.741-7.491 3.5-11 7.258-13.425 17.425-24.092 30.5-32 7.299 4.969 13.965 10.635 20 17Z"/>
  <path style="opacity:1" fill="#8c8c8c" d="M295.5 754.5c.099 9.021-.234 18.021-1 27-1.046-9.027-.713-18.027 1-27Z"/>
  <path style="opacity:1" fill="#5b5b5b" d="M1303.5 751.5c1.71 9.109 2.71 18.442 3 28 0 2.855-.34 5.522-1 8-.53-12.008-1.2-24.008-2-36Z"/>
  <path style="opacity:1" fill="#a1a1a1" d="M713.5 778.5v110h14c-4.805.987-9.805 1.321-15 1-.332-37.17.002-74.17 1-111Z"/>
  <path style="opacity:1" fill="#717171" d="M1305.5 787.5c-82.5.999-165.16 1.333-248 1v10c82.84-.333 165.5.001 248 1h-249v-12h249Z"/>
  <path style="opacity:1" fill="#a4a4a4" d="M882.5 775.5c.768.763 1.268 1.763 1.5 3 .499 4.655.666 9.321.5 14-.865-5.504-1.532-11.171-2-17Z"/>
  <path style="opacity:1" fill="#a5a5a5" d="M544.5 765.5c-2.071 15.966-2.404 31.966-1 48-1.44-6.604-2.44-13.271-3-20v-12c1.436-5.21 2.769-10.544 4-16Z"/>
  <path style="opacity:1" fill="#4d4d4d" d="M759.5 785.5v104c-8.849.326-17.516-.007-26-1h25c-.332-34.504.002-68.837 1-103Z"/>
  <path style="opacity:1" fill="#8a8a8a" d="M213.5 749.5c-.741 24.993-1.074 49.993-1 75-.667-10.161-1-20.495-1-31-.195-14.865.472-29.532 2-44Z"/>
  <path style="opacity:1" fill="#919191" d="M1054.5 758.5v4c-.64.597-.97 1.43-1 2.5 1.96 16.111 2.46 32.277 1.5 48.5-.13 6.901-.96 13.568-2.5 20 2.44-24.346 2.44-48.679 0-73 .67-.667 1.33-1.333 2-2Z"/>
  <path style="opacity:1" fill="#fbfbfb" d="M1298.5 711.5c-.34 4.622.32 8.955 2 13-.28 5.917.38 11.584 2 17 .82 3.264 1.16 6.598 1 10 .8 11.992 1.47 23.992 2 36h-249v12h249c-.17 15.357-.83 30.691-2 46-.9 11.069-2.23 22.069-4 33-.98 3.816-1.65 7.816-2 12-1.81 6.904-3.14 13.904-4 21-1.42 2.015-2.09 4.348-2 7-37.84 143.85-121.51 252.35-251 325.5-44.442 23.7-91.442 40.54-141 50.5-5.227.48-10.227 1.48-15 3-50.407 8.09-101.073 9.09-152 3-7.655-2.61-15.655-3.94-24-4h-1c-2.338-1.54-5.005-2.21-8-2-5.196-.64-10.196-1.64-15-3-2.338-1.54-5.005-2.21-8-2-6.083-1.69-12.083-3.35-18-5-2.015-1.42-4.348-2.09-7-2-142.241-46.06-246.074-136.39-311.5-271-5.609-14.826-11.609-29.493-18-44-4.65-13.076-8.484-26.41-11.5-40-.304-3.022-.804-6.022-1.5-9-.383-.556-.883-.889-1.5-1-1.001-5.34-2.001-10.673-3-16-.922-8.283-2.589-16.283-5-24 .236-3.109-.097-6.109-1-9 .22-4.6-.446-8.933-2-13-.694-5.305-1.028-10.638-1-16-.278-15.335-.611-30.668-1-46h246c.56 6.729 1.56 13.396 3 20 1.44 21.088 5.107 41.755 11 62-.09 2.652.576 4.985 2 7 31.144 82.979 88.977 137.65 173.5 164 7.637 1.63 15.137 3.29 22.5 5 1.843.78 3.843 1.45 6 2 .667 6.15 1.333 12.15 2 18 .516 3.4 1.35 6.73 2.5 10 2.74 4.21 5.574 8.21 8.5 12-8.517 2.29-13.351 7.96-14.5 17-.5 31.66-.667 63.33-.5 95-5.782-.54-11.449-1.54-17-3-2.015-1.42-4.348-2.09-7-2-.202-2.49.298-4.82 1.5-7 1.194-10.47-.472-20.47-5-30-9.155-10.81-20.321-18.97-33.5-24.5-10.634-5.15-21.634-9.48-33-13-24.688-10.17-47.688-23.17-69-39-8.426-7.75-16.093-16.09-23-25 3.017-2.95 6.684-4.45 11-4.5 15.281-1.64 30.615-2.31 46-2 6.531-.41 11.198 2.26 14 8v3c4.667 0 7-2.33 7-7v-13c2.235.29 4.235-.04 6-1 11.02-2.01 17.02-8.34 18-19-6.837 3.92-14.17 6.42-22 7.5-21.157.92-42.157 1.75-63 2.5-5.66-.06-10.994.94-16 3-12.983 2.1-24.65 7.1-35 15-1.951 1.73-3.118 3.73-3.5 6 17.332 19.61 36.165 37.78 56.5 54.5 18.159 13.91 38.159 24.41 60 31.5 1.533 1.75 3.533 2.75 6 3 18.112 4.09 33.946 12.42 47.5 25 8.071 12.69 6.905 24.53-3.5 35.5-7.809 2.44-15.809 3.1-24 2-.559-.72-.892-1.56-1-2.5 1.094-5 2.094-10 3-15-52.902-21.38-100.902-50.88-144-88.5-1.333-.67-2.667-.67-4 0-5.47 3.57-11.136 6.91-17 10-9.909 3.42-14.743-.08-14.5-10.5 5.391-6.55 10.557-13.22 15.5-20-7.558-10.24-15.558-20.24-24-30 14.225-11.05 28.892-21.55 44-31.5 1.187-1.02 2.187-2.19 3-3.5-13.205-18.6-31.205-28.938-54-31-6.821-1.155-13.821-1.321-21-.5-2.153.099-3.819.933-5 2.5-11.799 1.589-21.466 6.923-29 16 7.744 13.38 15.411 26.71 23 40-14.949 7.03-28.115 4.7-39.5-7-3.911-4.82-7.578-9.82-11-15-1.961 18.27 3.539 33.77 16.5 46.5 7.404 3.64 15.237 5.14 23.5 4.5 9.427.22 18.427-1.44 27-5 1.711-.06 3.044.61 4 2 10.337 14.15 6.837 21.48-10.5 22 1.787 2.36 2.787 5.03 3 8 .756 4.27 2.089 8.27 4 12-.206 3 .46 5.66 2 8 .869 2.22 1.202 4.55 1 7v14h18c10.671 1.75 20.838 5.08 30.5 10 .332-9.67 5.165-14.5 14.5-14.5 15.49 13.16 31.824 25.16 49 36 18.241 10.26 36.908 19.59 56 28 2.084 1.5 3.417 3.5 4 6-3.035 5.23-6.201 10.4-9.5 15.5-.667 1-.667 2 0 3 6.329 3.22 12.829 6.05 19.5 8.5 4.72 7.28 9.553 14.45 14.5 21.5 7.989-5.07 16.155-9.74 24.5-14 8.848.44 17.515.44 26 0 .667-4 1.333-8 2-12 9.042.26 18.042.93 27 2 11.79 1.78 23.79 2.78 36 3v-25c1.59-14.8 2.256-29.8 2-45v-18c-.326-11.38.174-22.71 1.5-34 6.025-9.06 13.525-10.4 22.5-4 .958 2.12 2.125 4.12 3.5 6 .667 44 .667 88 0 132-.643 5.05-1.476 10.05-2.5 15-1.741 1.89-2.741 4.23-3 7-.131.88.202 1.54 1 2 8.694-2.92 15.86-7.92 21.5-15 1.128-1.85 1.628-3.85 1.5-6 .821-5.03 1.154-10.03 1-15 9.58 2.22 16.914-1.11 22-10-4.965-.13-8.465-2.46-10.5-7-.167-38.34-.667-76.67-1.5-115-2.592-5.26-6.258-9.59-11-13 5.273-4.12 8.773-9.45 10.5-16 1.164-8.28 1.831-16.62 2-25 100.91-21.58 167.91-81.242 201-179 3.61-12.965 6.45-25.965 8.5-39 1.54-6.432 2.37-13.099 2.5-20 .96-16.223.46-32.389-1.5-48.5.03-1.07.36-1.903 1-2.5v3c11.67.167 23.34 0 35-.5.61-.87 1.44-1.37 2.5-1.5 13.56 8.358 19.23 4.692 17-11-4.74-8.108-11.57-13.442-20.5-16 .16 2.027 0 4.027-.5 6-3.63 4.396-5.8 9.396-6.5 15-8.99.466-17.99.8-27 1-.67.667-1.33 1.333-2 2-.87-5.698-1.87-11.364-3-17 .33-2.728-.34-5.062-2-7-2.07-10.96-5.07-21.627-9-32h259c-.3 2.559.03 4.893 1 7Z"/>
  <path style="opacity:1" fill="#9b9b9b" d="M1272.5 759.5v6c-1.29.237-2.29-.096-3-1 1.53-1.302 2.53-2.969 3-5ZM1245.5 752.5c.33 2.667.67 5.333 1 8-1.91-2.54-2.25-5.207-1-8Z"/>
  <path style="opacity:1" fill="#e0e0e0" d="M1098.5 752.5c4.33 1 7 3.667 8 8-7 1.667-9.67-1-8-8Z"/>
  <path style="opacity:1" fill="#e8e8e8" d="M1088.5 748.5c6-.939 8 1.395 6 7-2.97 1.077-5.97 1.077-9 0-.35-2.953.65-5.287 3-7Z"/>
  <path style="opacity:1" fill="#111" d="M1216.5 738.5c3.21 2.217 5.88 5.05 8 8.5-2.19 2.022-4.19 4.188-6 6.5-3.2-2.366-5.87-5.2-8-8.5 1.51-2.678 3.51-4.845 6-6.5Z"/>
  <path style="opacity:1" fill="#888" d="M1128.5 732.5c1.6 2.348 2.6 5.014 3 8-1.9-2.198-2.9-4.864-3-8Z"/>
  <path style="opacity:1" fill="#141414" d="M1174.5 717.5h3c.16 1.373-.01 2.707-.5 4-3.08 2.752-6.41 5.086-10 7-.67 1.333-.67 2.667 0 4 2.32 1.612 4.82 2.945 7.5 4 1.51.749 2.51 1.916 3 3.5-2.81 3.813-5.98 7.313-9.5 10.5-1.01 1.525-1.51 3.192-1.5 5 6.04-.329 12.04.004 18 1-4.8 8.067-11.8 11.234-21 9.5-3.63-2.251-4.79-5.418-3.5-9.5 1.97-5.085 4.47-9.752 7.5-14-6.44-.931-9.27-4.598-8.5-11 4.12-5.956 9.28-10.622 15.5-14Z"/>
  <path style="opacity:1" fill="#111" d="M1260.5 721.5c1.56 10.873 5.73 20.54 12.5 29 .3 3.007.13 6.007-.5 9-.47 2.031-1.47 3.698-3 5-4.87-6.925-8.2-14.592-10-23-.8.457-1.13 1.124-1 2-1.27 2.405-1.93 5.072-2 8-.79 3.307-2.29 6.307-4.5 9-1.26 2.246-3.09 3.579-5.5 4v-4c-.33-2.667-.67-5.333-1-8 6.54-8.294 10.54-17.628 12-28 .79-1.109 1.29-2.442 1.5-4 .38.556.88.889 1.5 1Z"/>
  <path style="opacity:1" fill="#919191" d="M1258.5 743.5c.21 2.995-.46 5.662-2 8 .07-2.928.73-5.595 2-8Z"/>
  <path style="opacity:1" fill="#0e0e0e" d="M1128.5 732.5c.1 3.136 1.1 5.802 3 8 .7 8.624-.46 16.957-3.5 25-1.22-13.227-5.05-25.561-11.5-37 1.06-3.122 2.39-6.122 4-9 3.93 3.521 6.6 7.855 8 13Z"/>
  <path style="opacity:1" fill="#7a7a7a" d="M1260.5 721.5c-.62-.111-1.12-.444-1.5-1-.21 1.558-.71 2.891-1.5 4-.45-2.477.22-4.477 2-6 .89.825 1.22 1.825 1 3Z"/>
  <path style="opacity:1" fill="#888" d="M540.5 792.5v1h-246c.389 15.332.722 30.665 1 46-1.683-15.467-2.35-31.134-2-47h247Z"/>
  <path style="opacity:1" fill="#020202" d="M704.5 802.5h3v85h-12v-77c1.706-4.035 4.706-6.702 9-8Z"/>
  <path style="opacity:1" fill="#080808" d="M886.5 802.5c4.788 1.288 8.622 3.954 11.5 8 .5 25.665.667 51.331.5 77h-14c-.658-28.686.008-57.02 2-85Z"/>
  <path style="opacity:1" fill="#acacac" d="M1330.5 764.5c.77.763 1.27 1.763 1.5 3 .67 19.667.67 39.333 0 59-.21 1.558-.71 2.891-1.5 4 1.32-21.999 1.32-43.999 0-66Z"/>
  <path style="opacity:1" fill="#fcfcfc" d="M671.5 840.5v63c-15.667-.306-31.334-.639-47-1-11.106-5.721-22.106-11.721-33-18-.465-9.029.201-18.029 2-27 2.05-6.026 3.05-12.359 3-19-.149-1.052.017-2.052.5-3l33-33c14.034 12.538 27.868 25.205 41.5 38Z"/>
  <path style="opacity:1" fill="#101010" d="M470.5 805.5c10.601-.572 14.101 4.094 10.5 14-9.92 5.368-14.587 2.368-14-9 1.176-1.696 2.343-3.362 3.5-5Z"/>
  <path style="opacity:1" fill="#aaa" d="M883.5 801.5c-.331 28.838.002 57.505 1 86h14c-5.14.988-10.474 1.321-16 1-.331-29.171.002-58.171 1-87Z"/>
  <path style="opacity:1" fill="#272727" d="M883.5 801.5c1.291-.237 2.291.096 3 1-1.992 27.98-2.658 56.314-2 85-.998-28.495-1.331-57.162-1-86Z"/>
  <path style="opacity:1" fill="#111" d="M451.5 809.5c8.023.183 11.523 4.183 10.5 12-4.851 6.053-10.018 6.386-15.5 1-2.393-6.023-.726-10.356 5-13Z"/>
  <path style="opacity:1" fill="#060606" d="M371.5 810.5c5.703-.125 11.37.208 17 1 3.127 1.081 6.46 1.747 10 2 10.206 1.705 19.539 5.538 28 11.5 6.024 7.022 12.357 13.689 19 20 13.196.746 26.196-.587 39-4 7.354-5.207 11.354-12.374 12-21.5 9.699 2.564 15.699 8.73 18 18.5 7.739-.016 15.072 1.651 22 5 3.848 2.647 6.181 6.147 7 10.5-10.361 2.227-20.694 4.56-31 7-3.374.174-6.707.674-10 1.5-.556.383-.889.883-1 1.5-19.352 3.87-38.685 7.87-58 12-2.398-.241-4.398.426-6 2-2.403-.052-4.736.281-7 1-4.552.557-8.885 1.557-13 3-3.73 1.192-7.396 2.692-11 4.5-.626.75-1.126 1.584-1.5 2.5 1.108 13.402 2.941 26.735 5.5 40-.333 1.333-.667 2.667-1 4-1.526.494-2.859 1.161-4 2-3.447.583-6.447 1.916-9 4-6.165.91-8.832 4.576-8 11 1.154 3.539 3.654 5.873 7.5 7 13.093-5.059 26.26-9.726 39.5-14h3c.432-3.377-.235-6.377-2-9-2.703-12.146-5.703-24.146-9-36 7.377-1.175 14.711-2.675 22-4.5 13.355-1.616 26.355-.282 39 4 17.555 10.243 29.555 25.077 36 44.5-4.639.548-8.973 1.881-13 4-5.892 1.629-11.559 3.629-17 6-29.268 10.49-58.601 20.99-88 31.5-4.506 4.173-8.673 8.673-12.5 13.5-8.354-14.752-20.854-23.419-37.5-26-3.431-.635-6.764-1.635-10-3 4.709-8.124 8.042-16.791 10-26 1.546-4.733 2.213-9.733 2-15-.001-3.849-.335-7.516-1-11 .304-2.296 1.304-2.629 3-1 2.015 1.424 4.348 2.09 7 2 3.018.165 6.018-.002 9-.5 3.741-4.783 5.408-10.283 5-16.5-.459-5.371-1.126-10.704-2-16-.241-5.194-.907-10.194-2-15-1.534-14.677-3.201-29.344-5-44-.04-4.693-.373-9.359-1-14Z"/>
  <path style="opacity:1" fill="#707070" d="M388.5 811.5c3.66-.341 6.993.325 10 2-3.54-.253-6.873-.919-10-2Z"/>
  <path style="opacity:1" fill="#fcfcfc" d="M963.5 906.5c-15.665.413-31.331.747-47 1 .822-18.988 1.155-37.988 1-57 13.953-13.618 27.953-27.285 42-41 12.45 10.649 24.617 21.649 36.5 33 3.506 15.19 5.84 30.523 7 46-13.284 5.795-26.451 11.795-39.5 18Z"/>
  <path style="opacity:1" fill="#070707" d="M1235.5 821.5c-1.84 4.362-2.84 9.029-3 14-2.32 12.27-4.32 24.603-6 37-1.57 1.602-2.24 3.602-2 6-4.57 22.017-8.9 44.017-13 66 .17 7.148 3.84 9.814 11 8-1.09 10.299-1.26 20.633-.5 31 3.42 6.16 6.25 12.493 8.5 19-2.06.02-4.06.35-6 1-2.65-.09-4.99.58-7 2-5.7 1.69-11.04 4.19-16 7.5-5.25 4.74-9.92 9.91-14 15.5-1.06-7.45-4.39-13.61-10-18.5-33.05-16.684-66.72-32.017-101-46-4.33-.667-8.67-.667-13 0-3.37 2.248-5.04 5.415-5 9.5-6.82-1.501-10.49-5.834-11-13 1.05-3.488 2.22-6.821 3.5-10-7.75-4.58-12.58-11.247-14.5-20-.57-3.829.1-7.163 2-10 10.52 4.571 21.19 9.071 32 13.5 19.75 10.21 39.75 19.876 60 29 15.12 6.653 30.46 12.82 46 18.5 2.35 1.452 5.01 2.118 8 2 2.7.184 5.04-.483 7-2 1.52-.011 2.68-.677 3.5-2 .67-3.667.67-7.333 0-11-5.3-3.66-10.8-6.827-16.5-9.5 5.91-23.886 11.91-47.719 18-71.5 1.41-2.719 2.08-5.719 2-9 2.57-9.857 4.91-19.857 7-30-14.97-5.344-24.3-.344-28 15-1.37 2.436-2.37 5.103-3 8-4.08 13.236-7.75 26.57-11 40-1.78 3.005-2.78 6.338-3 10-1.97 6.988-4.31 13.988-7 21-3.3-5.132-6.8-10.132-10.5-15-2.55-4.483-4.38-9.15-5.5-14v-10h-11c-1.81.009-3.48-.491-5-1.5-5.44-6.191-11.1-12.191-17-18-8.72-4.236-16.56-3.069-23.5 3.5-1.77 6.137-1.94 12.303-.5 18.5-1 .667-2 .667-3 0-1.45-1.102-2.78-2.269-4-3.5-1.55-2.382-2.21-5.049-2-8-2.56-.302-4.89.032-7 1-7.28 2.035-13.28.035-18-6 1.73-1.621 3.73-2.955 6-4 8.64-4.781 16.64-10.614 24-17.5 9.83-4.9 19.5-4.567 29 1 7.5 5.249 15.16 10.249 23 15 5.88 1.653 10.71.153 14.5-4.5 6.72-9.982 10.55-20.982 11.5-33 1.42-2.015 2.09-4.348 2-7 6.18-12.935 16.52-19.601 31-20 7.59-.136 14.92-1.136 22-3 9.37-.098 18.37-1.764 27-5-.55 3.307-.88 6.64-1 10Z"/>
  <path style="opacity:1" fill="#575757" d="M1209.5 816.5c-7.08 1.864-14.41 2.864-22 3 7.08-1.864 14.41-2.864 22-3Z"/>
  <path style="opacity:1" fill="#a9a9a9" d="M371.5 810.5c.627 4.641.96 9.307 1 14-1.956-4.587-2.289-9.254-1-14Z"/>
  <path style="opacity:1" fill="#6a6a6a" d="M1305.5 799.5c1.16 8.156 1.32 16.49.5 25-.11 7.234-.94 14.234-2.5 21 1.17-15.309 1.83-30.643 2-46Z"/>
  <path style="opacity:1" fill="#555" d="M588.5 828.5c-1.008 2.044-2.008 4.044-3 6-.475-2.813.525-4.813 3-6Z"/>
  <path style="opacity:1" fill="#606060" d="M1235.5 821.5c-.27 4.95-1.27 9.617-3 14 .16-4.971 1.16-9.638 3-14Z"/>
  <path style="opacity:1" fill="#efefef" d="M395.5 836.5c12.306-.682 21.639 4.152 28 14.5-.32 1.653-1.32 2.653-3 3-8.059 2.109-16.059 4.276-24 6.5-.835-7.01-1.835-14.01-3-21 .442-1.239 1.109-2.239 2-3Z"/>
  <path style="opacity:1" fill="#4d4d4d" d="M228.5 826.5c1.246 10.166 2.246 20.499 3 31-.722-.418-1.222-1.084-1.5-2-1.028-9.641-1.528-19.308-1.5-29Z"/>
  <path style="opacity:1" fill="#898989" d="M902.5 807.5c.768.763 1.268 1.763 1.5 3 .83 28.836.664 57.503-.5 86 .302-29.692-.032-59.358-1-89Z"/>
  <path style="opacity:1" fill="#6e6e6e" d="M1156.5 839.5c.09 2.652-.58 4.985-2 7-.09-2.652.58-4.985 2-7Z"/>
  <path style="opacity:1" fill="#9d9d9d" d="M596.5 838.5c.05 6.641-.95 12.974-3 19 .551-6.536 1.551-12.869 3-19Z"/>
  <path style="opacity:1" fill="#676767" d="M1035.5 839.5c-.07 2.928-.73 5.595-2 8-.21-2.995.46-5.662 2-8Z"/>
  <path style="opacity:1" fill="#8e8e8e" d="M1369.5 839.5c.29 6.905-.37 13.572-2 20 .02-6.874.69-13.541 2-20Z"/>
  <path style="opacity:1" fill="#737373" d="M1330.5 839.5c-.03 5.551-.69 10.884-2 16-.34-5.598.32-10.932 2-16Z"/>
  <path style="opacity:1" fill="#7f7f7f" d="M265.5 843.5c1.613 10.161 2.946 20.494 4 31-2.71-10.007-4.043-20.341-4-31Z"/>
  <path style="opacity:1" fill="#8d8d8d" d="M1009.5 847.5c1.54 2.338 2.21 5.005 2 8-1.27-2.405-1.93-5.072-2-8Z"/>
  <path style="opacity:1" fill="#646464" d="M1033.5 848.5c.33 2.728-.34 5.062-2 7-.09-2.652.58-4.985 2-7Z"/>
  <path style="opacity:1" fill="#a6a6a6" d="M583.5 851.5c.156 4.264-.511 8.264-2 12-.302-4.29.364-8.29 2-12Z"/>
  <path style="opacity:1" fill="#afafaf" d="M512.5 860.5c-3.224 1.799-6.89 2.799-11 3 .111-.617.444-1.117 1-1.5 3.293-.826 6.626-1.326 10-1.5Z"/>
  <path style="opacity:1" fill="#6e6e6e" d="M296.5 855.5c1.554 4.067 2.22 8.4 2 13-1.209-4.118-1.876-8.451-2-13Z"/>
  <path style="opacity:1" fill="#999" d="M1177.5 863.5c.15 3.216-.85 5.883-3 8 .63-2.897 1.63-5.564 3-8Z"/>
  <path style="opacity:1" fill="#9e9e9e" d="M231.5 863.5c.617.111 1.117.444 1.5 1 .684 5.322 1.184 10.656 1.5 16-1.637-5.427-2.637-11.093-3-17Z"/>
  <path style="opacity:1" fill="#969696" d="M1011.5 857.5c2.01 5.354 3.01 11.021 3 17-1.45-5.459-2.45-11.126-3-17Z"/>
  <path style="opacity:1" fill="#0b0b0b" d="M525.5 874.5c19.009-1.19 24.843 6.81 17.5 24-9.762 6.6-17.762 4.934-24-5-1.623-7.707.543-14.041 6.5-19Z"/>
  <path style="opacity:1" fill="#272727" d="M704.5 802.5c1.068-.934 2.401-1.268 4-1v87h-14c-.331-26.172.002-52.172 1-78v77h12v-85h-3Z"/>
  <path style="opacity:1" fill="#838383" d="M1376.5 867.5c.25 5.584-.42 10.917-2 16 .03-5.551.69-10.884 2-16Z"/>
  <path style="opacity:1" fill="#969696" d="M443.5 875.5c-1.602 1.574-3.602 2.241-6 2 1.602-1.574 3.602-2.241 6-2Z"/>
  <path style="opacity:1" fill="#424242" d="M581.5 868.5c.165 3.35-.002 6.683-.5 10-.278.916-.778 1.582-1.5 2 .217-4.205.883-8.205 2-12Z"/>
  <path style="opacity:1" fill="#919191" d="M377.5 868.5c1.093 4.806 1.759 9.806 2 15-1.645-4.734-2.311-9.734-2-15Z"/>
  <path style="opacity:1" fill="#7d7d7d" d="M1226.5 872.5c.24 2.398-.43 4.398-2 6-.24-2.398.43-4.398 2-6Z"/>
  <path style="opacity:1" fill="#9a9a9a" d="M554.5 875.5c1.424 2.015 2.09 4.348 2 7-1.424-2.015-2.09-4.348-2-7Z"/>
  <path style="opacity:1" fill="#8b8b8b" d="M430.5 878.5c-3.974 2.075-8.308 3.075-13 3 4.115-1.443 8.448-2.443 13-3Z"/>
  <path style="opacity:1" fill="#8f8f8f" d="M1198.5 878.5c.08 3.281-.59 6.281-2 9-.08-3.281.59-6.281 2-9Z"/>
  <path style="opacity:1" fill="#949494" d="M269.5 877.5c1.025 3.474 1.692 7.14 2 11-1.717-3.345-2.384-7.011-2-11Z"/>
  <path style="opacity:1" fill="#7d7d7d" d="M299.5 877.5c2.411 7.717 4.078 15.717 5 24-2.411-7.717-4.078-15.717-5-24Z"/>
  <path style="opacity:1" fill="#5c5c5c" d="M579.5 882.5v5h-3v-4c.722.418 1.222 1.084 1.5 2 .232-1.237.732-2.237 1.5-3Z"/>
  <path style="opacity:1" fill="#a6a6a6" d="M671.5 840.5c.997 21.16 1.331 42.493 1 64-16.19.142-32.19-.525-48-2 15.666.361 31.333.694 47 1v-63Z"/>
  <path style="opacity:1" fill="#7c7c7c" d="M1052.5 885.5c-2.27 1.045-4.27 2.379-6 4-.9-.709-1.24-1.709-1-3 2.36-.174 4.69-.507 7-1Z"/>
  <path style="opacity:1" fill="#0d0d0d" d="M1239.5 885.5c10.68-1.136 16.18 3.53 16.5 14-2.97 6.953-8.13 9.453-15.5 7.5-2.35-.346-4.18-1.513-5.5-3.5-3.15-7.339-1.65-13.339 4.5-18Z"/>
  <path style="opacity:1" fill="#545454" d="M1299.5 878.5c.42 4.317-.25 8.317-2 12 .35-4.184 1.02-8.184 2-12Z"/>
  <path style="opacity:1" fill="#676767" d="M828.5 783.5c.998 34.829 1.332 69.829 1 105h-66c-.332-34.504.002-68.837 1-103v102h64v-104Z"/>
  <path style="opacity:1" fill="#f9f9f9" d="M687.5 1002.5c.744 3.45-.59 5.12-4 5-46.91-26.58-81.244-64.58-103-114 .865-1.083 1.865-1.249 3-.5 13.508 7.588 27.174 14.921 41 22 14.307 1.364 28.64 2.197 43 2.5-.167 13.004 0 26.004.5 39 7.191 15.084 13.691 30.417 19.5 46Z"/>
  <path style="opacity:1" fill="#5c5c5c" d="M271.5 891.5c1.574 1.602 2.241 3.602 2 6-1.574-1.602-2.241-3.602-2-6Z"/>
  <path style="opacity:1" fill="#818181" d="M689.5 811.5v85h214c-71.498.999-143.165 1.333-215 1-.331-28.838.002-57.505 1-86Z"/>
  <path style="opacity:1" fill="#afafaf" d="M1064.5 895.5c2.11-.968 4.44-1.302 7-1-.21 2.951.45 5.618 2 8-2.23-1.319-3.57-3.319-4-6-1.55-.952-3.21-1.285-5-1Z"/>
  <path style="opacity:1" fill="#9c9c9c" d="M218.5 886.5c1.544 5.106 2.544 10.439 3 16-2.447-4.938-3.447-10.272-3-16Z"/>
  <path style="opacity:1" fill="#6e6e6e" d="M1323.5 892.5c-.05 4.687-1.05 9.021-3 13 .26-4.624 1.26-8.958 3-13Z"/>
  <path style="opacity:1" fill="#fafafa" d="M917.5 922.5c17.193.266 34.193-.401 51-2 2.104-1.412 4.437-2.412 7-3 2.467-.255 4.467-1.255 6-3 11.18-5.512 22.51-10.846 34-16 .33.333.67.667 1 1-26.167 54.167-66.5 93.834-121 119-1.083-.86-1.249-1.86-.5-3 7.05-13.76 14.383-27.429 22-41 .5-17.33.667-34.663.5-52Z"/>
  <path style="opacity:1" fill="#838383" d="M1362.5 899.5c-.22 2.567-.89 4.901-2 7-.33-2.728.34-5.062 2-7Z"/>
  <path style="opacity:1" fill="#7b7b7b" d="M1126.5 903.5h11v10c-.98-2.787-1.31-5.787-1-9-3.54.313-6.88-.021-10-1ZM917.5 850.5c.155 19.012-.178 38.012-1 57 15.669-.253 31.335-.587 47-1-3.141.821-6.475 1.321-10 1.5-12.662.5-25.329.667-38 .5.233-19.507.899-38.84 2-58Z"/>
  <path style="opacity:1" fill="#c3c3c3" d="M748.5 916.5c-1.256.039-2.256-.461-3-1.5-21.331-.5-42.664-.667-64-.5v41c-.996-13.823-1.329-27.823-1-42 22.003-.167 44.003 0 66 .5.881.708 1.547 1.542 2 2.5Z"/>
  <path style="opacity:1" fill="#919191" d="M360.5 914.5c2.652-.09 4.985.576 7 2-2.652.09-4.985-.576-7-2Z"/>
  <path style="opacity:1" fill="#9f9f9f" d="M469.5 914.5c-4.048-.105-8.048.228-12 1v5c-1.293-1.864-1.293-3.864 0-6 4.131-1.296 8.131-1.296 12 0Z"/>
  <path style="opacity:1" fill="#f3f3f3" d="M469.5 914.5h2c1.533 1.745 3.533 2.745 6 3 4.599 2.902 7.432 6.902 8.5 12-8.246 2.914-16.413 5.914-24.5 9-1.359-6.092-2.692-12.092-4-18v-5c3.952-.772 7.952-1.105 12-1Z"/>
  <path style="opacity:1" fill="#fcfcfc" d="M748.5 916.5c13.242 13.737 25.909 27.904 38 42.5-10.764 11.656-21.431 23.489-32 35.5-10.226.171-20.226 1.171-30 3-8.353.812-16.686.812-25 0-6.575-13.809-12.575-27.809-18-42v-41c21.336-.167 42.669 0 64 .5.744 1.039 1.744 1.539 3 1.5Z"/>
  <path style="opacity:1" fill="#9b9b9b" d="M1163.5 911.5c-.22 3.662-1.22 6.995-3 10 .22-3.662 1.22-6.995 3-10Z"/>
  <path style="opacity:1" fill="#575757" d="M471.5 914.5c2.467.255 4.467 1.255 6 3-2.467-.255-4.467-1.255-6-3Z"/>
  <path style="opacity:1" fill="#fcfcfc" d="M902.5 916.5c.089 8.255 1.089 16.255 3 24 1.054 7.981 1.554 15.981 1.5 24-7.28 13.565-13.78 27.565-19.5 42-8.164-1.75-16.164-4.08-24-7-3.126-2.49-6.792-3.823-11-4-5.69-1.674-11.357-3.508-17-5.5-9.13-10.799-18.63-21.299-28.5-31.5-.638-1.109-1.138-2.275-1.5-3.5 12.285-12.951 24.951-25.618 38-38 19.664-.5 39.331-.667 59-.5Z"/>
  <path style="opacity:1" fill="#9b9b9b" d="M981.5 914.5c-1.533 1.745-3.533 2.745-6 3 1.411-2.039 3.411-3.039 6-3Z"/>
  <path style="opacity:1" fill="#8c8c8c" d="M240.5 914.5c1.511 3.044 2.178 6.378 2 10-1.285-3.089-1.951-6.422-2-10Z"/>
  <path style="opacity:1" fill="#636363" d="M1293.5 911.5c.09 2.652-.58 4.985-2 7-.09-2.652.58-4.985 2-7Z"/>
  <path style="opacity:1" fill="#818181" d="M968.5 920.5c-16.807 1.599-33.807 2.266-51 2 16.818-1.301 33.818-1.967 51-2Z"/>
  <path style="opacity:1" fill="#929292" d="M307.5 917.5c.617.111 1.117.444 1.5 1 .696 2.978 1.196 5.978 1.5 9-1.493-3.083-2.493-6.417-3-10Z"/>
  <path style="opacity:1" fill="#979797" d="M902.5 916.5c1.64 7.783 2.64 15.783 3 24-1.911-7.745-2.911-15.745-3-24Z"/>
  <path style="opacity:1" fill="#636363" d="M1038.5 920.5c-1.9 2.837-2.57 6.171-2 10-.98-3.462-1.31-7.129-1-11 1.29-.237 2.29.096 3 1Z"/>
  <path style="opacity:1" fill="#818181" d="M357.5 915.5c.665 3.484.999 7.151 1 11 .213 5.267-.454 10.267-2 15 .646-8.652.979-17.318 1-26Z"/>
  <path style="opacity:1" fill="#828282" d="M225.5 924.5c1.424 2.015 2.09 4.348 2 7-1.663-1.938-2.329-4.272-2-7Z"/>
  <path style="opacity:1" fill="#b3b3b3" d="M1355.5 928.5c-.13 4.651-1.13 8.985-3 13 .97-3.565.97-7.065 0-10.5 1.19-.698 2.19-1.531 3-2.5Z"/>
  <path style="opacity:1" fill="#8d8d8d" d="M279.5 928.5c1.424 2.015 2.09 4.348 2 7-1.424-2.015-2.09-4.348-2-7Z"/>
  <path style="opacity:1" fill="#868686" d="M1315.5 928.5c.21 2.995-.46 5.662-2 8 .07-2.928.73-5.595 2-8Z"/>
  <path style="opacity:1" fill="#969696" d="M405.5 934.5c-2.553 2.084-5.553 3.417-9 4 2.553-2.084 5.553-3.417 9-4Z"/>
  <path style="opacity:1" fill="#8c8c8c" d="M436.5 933.5c1.765 2.623 2.432 5.623 2 9h-3c.891-.761 1.558-1.761 2-3-.656-1.953-.989-3.953-1-6Z"/>
  <path style="opacity:1" fill="#686868" d="M246.5 941.5c1.446 2.754 2.446 5.754 3 9-2.054-2.508-3.054-5.508-3-9Z"/>
  <path style="opacity:1" fill="#7f7f7f" d="M1363.5 939.5c.33 2.728-.34 5.062-2 7-.09-2.652.58-4.985 2-7Z"/>
  <path style="opacity:1" fill="#a2a2a2" d="M511.5 945.5c-5.133 3.158-10.8 5.158-17 6 5.441-2.371 11.108-4.371 17-6Z"/>
  <path style="opacity:1" fill="#ababab" d="M283.5 943.5c2.479 5.328 4.146 10.995 5 17-3.041-5.158-4.707-10.825-5-17Z"/>
  <path style="opacity:1" fill="#fafafa" d="M856.5 1010.5c2.517 2.17 5.517 3.17 9 3 7.475 1.16 14.808 2.83 22 5 .418.72 1.084 1.22 2 1.5-.916.28-1.582.78-2 1.5-8.203 2.24-16.203 4.91-24 8-2.928.07-5.595.73-8 2-37.351 9.3-74.684 9.3-112 0-2.338-1.54-5.005-2.21-8-2-12.951-3.09-25.285-7.76-37-14-1.453-1.32-1.119-2.16 1-2.5 7.538-.77 14.872-1.93 22-3.5 6.32.1 12.32-.9 18-3 7.348-1 14.681-2.17 22-3.5 12.833-12.167 25.667-24.333 38.5-36.5 10.845 11.846 21.345 24.013 31.5 36.5 8.356 2.72 16.69 5.22 25 7.5Z"/>
  <path style="opacity:1" fill="#aeaeae" d="M346.5 967.5c3.236 1.365 6.569 2.365 10 3h-11c-.237-1.291.096-2.291 1-3Z"/>
  <path style="opacity:1" fill="#7a7a7a" d="M1176.5 981.5c5.01 1.252 10.01 1.252 15 0-1.96 1.517-4.3 2.184-7 2-2.99.118-5.65-.548-8-2Z"/>
  <path style="opacity:1" fill="#797979" d="M482.5 989.5c-8.782-.416-17.449.251-26 2 1.181-1.567 2.847-2.401 5-2.5 7.179-.821 14.179-.655 21 .5Z"/>
  <path style="opacity:1" fill="#959595" d="M1348.5 989.5c.15 3.216-.85 5.883-3 8 .63-2.897 1.63-5.564 3-8Z"/>
  <path style="opacity:1" fill="#555" d="M754.5 994.5c-9.786 1.709-19.786 2.709-30 3 9.774-1.829 19.774-2.829 30-3Z"/>
  <path style="opacity:1" fill="#9a9a9a" d="M852.5 995.5c4.208.177 7.874 1.51 11 4-3.895-.962-7.561-2.296-11-4Z"/>
  <path style="opacity:1" fill="#060606" d="M1043.5 1120.5c-3.12-.98-6.46-1.31-10-1-.32 7.19.01 14.19 1 21 1.64 9.29 4.97 17.95 10 26-4.96 3.82-9.96 7.66-15 11.5 2.48 3.31 5.15 6.48 8 9.5-6.17 7.67-12.33 15.33-18.5 23-.49 1.29-.66 2.63-.5 4-.99 5.14-1.32 10.47-1 16h-3c-6.09-2.75-12.42-4.75-19-6-1.82-1.95-4.154-2.95-7-3-3.35-.17-6.683 0-10 .5-5.066 2.13-10.4 3.29-16 3.5.327-5.04-.006-10.04-1-15-8.538 2.55-16.871 5.55-25 9-4.436.91-8.436 2.58-12 5-4.572.52-8.906 1.86-13 4-.667-.33-1.333-.67-2-1-6.805-12.72-8.472-26.06-5-40 1.565-2.01 2.565-4.34 3-7 4.796-10.93 10.63-21.26 17.5-31 3.673-6.72 4.339-13.72 2-21-3.907-6.81-7.573-13.81-11-21-1.736-3.24-4.236-5.57-7.5-7-.111-.62-.444-1.12-1-1.5-2.867-.8-5.534-.63-8 .5-3.595 1.2-7.261 2.2-11 3-1.515-11.96 2.652-21.3 12.5-28-1.716-9.47-.383-18.47 4-27 1.684-1.85 3.517-3.52 5.5-5 24.719 49.28 49.553 98.61 74.5 148 6.059 5.71 11.392 5.04 16-2 .58-8.09-1.583-15.42-6.5-22 5.475-4.07 11.48-7.07 18-9-1.19-4.73-2.69-9.4-4.5-14-.5-2.98-.66-5.98-.5-9 1.47-4.42 2.14-9.09 2-14h-3c-6-.79-11.996-1.62-18-2.5-3.579-.79-6.912-2.13-10-4-5.516-.82-10.85-.65-16 .5h-3c-.226-5.06.108-10.06 1-15 1.646-2.31 3.646-4.31 6-6 .209-5.61.376-11.27.5-17 3.609-5.17 6.109-10.83 7.5-17 .617-.11 1.117-.44 1.5-1 .495-1.97.662-3.97.5-6v-1c.985-4.13 1.318-8.47 1-13h3c5.079 2.44 10.413 4.27 16 5.5 8.36.45 16.69.45 25 0 2.48 1.31 4.48 3.14 6 5.5 6.91-5.09 13.91-5.26 21-.5 1.02 1.05 1.18 2.22.5 3.5-2.74 2.48-4.74 5.48-6 9-.5 10.99-.67 21.99-.5 33 12.54-1.12 22.88 3.04 31 12.5 7.32-5.83 13.99-12.66 20-20.5-4.9-7.22-8.9-14.89-12-23-.25-2.47-1.25-4.47-3-6-2.54-12.03-2.54-24.03 0-36 1.42-2.01 2.09-4.35 2-7 2.15-6.44 4.48-12.77 7-19 26.23 13.79 51.56 29.12 76 46-28.43 33.19-57.1 66.19-86 99-9.29-10.3-20.62-16.97-34-20Z"/>
  <path style="opacity:1" fill="#858585" d="M1224.5 1003.5c-2.01 1.42-4.35 2.09-7 2 2.01-1.42 4.35-2.09 7-2Z"/>
  <path style="opacity:1" fill="#bfbfbf" d="M687.5 1002.5c1.892 2.78 3.559 5.78 5 9-.333.33-.667.67-1 1-3.068-1.19-5.735-2.86-8-5 3.41.12 4.744-1.55 4-5Z"/>
  <path style="opacity:1" fill="#9a9a9a" d="M739.5 1006.5c-5.68 2.1-11.68 3.1-18 3 5.81-1.36 11.81-2.36 18-3Z"/>
  <path style="opacity:1" fill="#949494" d="M721.5 1009.5c-7.128 1.57-14.462 2.73-22 3.5-2.119.34-2.453 1.18-1 2.5-3.945-.92-3.945-2.09 0-3.5 7.629-1.25 15.295-2.08 23-2.5Z"/>
  <path style="opacity:1" fill="#b4b4b4" d="M856.5 1010.5c3.492-.05 6.492.95 9 3-3.483.17-6.483-.83-9-3Z"/>
  <path style="opacity:1" fill="#f3f3f3" d="M470.5 1013.5c9.227-.71 16.894 2.29 23 9-6.119 5.95-12.952 10.95-20.5 15-4.415-5.83-8.581-11.83-12.5-18 2.635-3.31 5.969-5.31 10-6Z"/>
  <path style="opacity:1" fill="#5b5b5b" d="M1080.5 1014.5c.09 2.65-.58 4.99-2 7-.09-2.65.58-4.99 2-7Z"/>
  <path style="opacity:1" fill="#545454" d="M887.5 1018.5h4v3h-4c.418-.72 1.084-1.22 2-1.5-.916-.28-1.582-.78-2-1.5Z"/>
  <path style="opacity:1" fill="#999" d="M735.5 1029.5c2.995-.21 5.662.46 8 2-2.928-.07-5.595-.73-8-2Z"/>
  <path style="opacity:1" fill="gray" d="M863.5 1029.5c-2.338 1.54-5.005 2.21-8 2 2.405-1.27 5.072-1.93 8-2Z"/>
  <path style="opacity:1" fill="#f1f1f1" d="M1108.5 1033.5c2.91.08 5.57.91 8 2.5 4.03 3.01 8.03 6.01 12 9-3.8 5.46-7.96 10.63-12.5 15.5-8.47-4.96-11.47-12.29-9-22 .61-1.65 1.11-3.32 1.5-5Z"/>
  <path style="opacity:1" fill="#636363" d="M587.5 1036.5c-5.07 1.73-10.403 2.73-16 3 5.006-2.06 10.34-3.06 16-3Z"/>
  <path style="opacity:1" fill="#5a5a5a" d="M980.5 1038.5h-3c.318 4.53-.015 8.87-1 13v-14c1.599-.27 2.932.07 4 1Z"/>
  <path style="opacity:1" fill="#5e5e5e" d="M654.5 1045.5c-1.765.96-3.765 1.29-6 1v13h-1v-14h7Z"/>
  <path style="opacity:1" fill="#9c9c9c" d="M752.5 1051.5c2.42-.21 4.753.13 7 1 .996 6.3 1.33 12.63 1 19-.667-5.85-1.333-11.85-2-18-2.157-.55-4.157-1.22-6-2Z"/>
  <path style="opacity:1" fill="#aeaeae" d="M627.5 1055.5c-15.385-.31-30.719.36-46 2 4.772-1.37 9.772-2.2 15-2.5 10.508-.83 20.842-.66 31 .5Z"/>
  <path style="opacity:1" fill="#323232" d="M809.5 1056.5c-6.145-.99-12.478-1.32-19-1v17c-.686-5.73-1.352-11.57-2-17.5 8.333-.67 16.667-.67 25 0-1.401.41-2.734.91-4 1.5Z"/>
  <path style="opacity:1" fill="#f9f9f9" d="M808.5 1075.5c-.876 4.86-3.876 7.19-9 7-4.427-.82-7.094-3.49-8-8v-18h17v19Z"/>
  <path style="opacity:1" fill="#575757" d="M976.5 1052.5c.162 2.03-.005 4.03-.5 6-.383.56-.883.89-1.5 1 .427-2.51 1.093-4.84 2-7Z"/>
  <path style="opacity:1" fill="#707070" d="M1078.5 1057.5c1.75 1.53 2.75 3.53 3 6-1.75-1.53-2.75-3.53-3-6Z"/>
  <path style="opacity:1" fill="#a6a6a6" d="M647.5 1059.5h1c0 4.67-2.333 7-7 7v-3c.712 1.24 1.712 1.74 3 1.5 2.107-1.26 3.107-3.1 3-5.5Z"/>
  <path style="opacity:1" fill="#bfbfbf" d="M809.5 1056.5c.323 6.52-.01 12.86-1 19v-19h-17v18c-.838-.34-1.172-1.01-1-2v-17c6.522-.32 12.855.01 19 1Z"/>
  <path style="opacity:1" fill="#f2f2f2" d="M1000.5 1073.5c11.49-1.34 16.32 3.66 14.5 15-3.68 5.67-8.85 7.51-15.5 5.5-4.503-3.84-6.003-8.68-4.5-14.5 1.36-2.52 3.193-4.52 5.5-6Z"/>
  <path style="opacity:1" fill="#616161" d="M899.5 1099.5c2.466-1.13 5.133-1.3 8-.5.556.38.889.88 1 1.5-2.93-.8-5.93-1.13-9-1Z"/>
  <path style="opacity:1" fill="#848484" d="M960.5 1099.5c-.892 4.94-1.226 9.94-1 15h3c-1.068.93-2.401 1.27-4 1-.166-5.01.001-10.01.5-15 .383-.56.883-.89 1.5-1Z"/>
  <path style="opacity:1" fill="#b6b6b6" d="M463.5 1103.5c2.306 3.58 3.639 7.58 4 12-1.911-3.73-3.244-7.73-4-12Z"/>
  <path style="opacity:1" fill="#0e0e0e" d="M907.5 1122.5c-2.554.89-5.221 1.22-8 1-5.562-2.6-7.396-6.93-5.5-13 5.494-6.61 11.16-6.61 17 0 1.407 4.94.241 8.94-3.5 12Z"/>
  <path style="opacity:1" fill="#909090" d="M467.5 1115.5c1.268 2.41 1.935 5.07 2 8-1.54-2.34-2.206-5-2-8Z"/>
  <path style="opacity:1" fill="#6f6f6f" d="M907.5 1122.5c1.333.67 2.667 1.33 4 2-2.779-.22-5.446.11-8 1-1.333-.67-2.667-1.33-4-2 2.779.22 5.446-.11 8-1Z"/>
  <path style="opacity:1" fill="#101010" d="M911.5 1124.5c2.589.92 4.589 2.59 6 5 .234 4.3-1.1 7.97-4 11-7.995 2.86-12.662.03-14-8.5.705-2.54 2.039-4.71 4-6.5 2.554-.89 5.221-1.22 8-1Z"/>
  <path style="opacity:1" fill="#454545" d="M1006.5 1120.5h3c.14 4.91-.53 9.58-2 14-.12-3.54.21-7.04 1-10.5-.36-1.43-1.03-2.6-2-3.5Z"/>
  <path style="opacity:1" fill="#a1a1a1" d="M1043.5 1120.5h-9v20c-.99-6.81-1.32-13.81-1-21 3.54-.31 6.88.02 10 1Z"/>
  <path style="opacity:1" fill="#acacac" d="M917.5 1129.5c1.201 2.91 1.034 5.91-.5 9-.816 1.32-1.983 1.99-3.5 2 2.9-3.03 4.234-6.7 4-11Z"/>
  <path style="opacity:1" fill="#6b6b6b" d="M470.5 1130.5c.985 4.13 1.318 8.47 1 13 5.858-.32 11.525.01 17 1h-18v-14Z"/>
  <path style="opacity:1" fill="#707070" d="M649.5 1146.5c2.467.25 4.467 1.25 6 3-2.467-.25-4.467-1.25-6-3Z"/>
  <path style="opacity:1" fill="#eaeaea" d="M941.5 1165.5c1.911.07 3.078 1.07 3.5 3 2.55 7.08 5.05 14.08 7.5 21-5.613.87-10.947 2.54-16 5-1.925-.09-3.092-1.09-3.5-3-.667-3.67-.667-7.33 0-11 2.325-5.32 5.158-10.32 8.5-15Z"/>
</svg>
